<svg xmlns="http://www.w3.org/2000/svg" width="700.996" height="226.619" viewBox="0 0 700.996 226.619"><g transform="translate(-18400.131 7112.499)"><path d="M197.295,224.22V219l-2.374,3.8h-.146L192.4,219v5.222h-1.206v-7.3H192.4l2.447,3.907,2.447-3.907h1.2v7.3Zm-10.446,0V218.05H184.7v-1.133h5.514v1.133h-2.155v6.171Zm-24.155-.039a20.718,20.718,0,0,1-18.268-10.945l-5.232-9.778a98.99,98.99,0,0,1-65.249,0l-5.232,9.778a20.717,20.717,0,0,1-18.268,10.945h-5.94A10.925,10.925,0,0,1,34.874,208.1l10.7-20c-17.25-13.354-32.009-33.8-40.236-63.221C-8.371,75.858,4.988,27.7,37.826,7.783c22.641-13.738,51.41-7.416,68.744,4.5,17.334-11.919,46.1-18.24,68.743-4.5,32.838,19.92,46.2,68.075,32.49,117.1-8.229,29.43-22.983,49.867-40.236,63.221l10.7,20a10.926,10.926,0,0,1-9.633,16.079Zm-73.218-49.75a64.712,64.712,0,0,0,34.186,0l-17.093-31.944ZM124.863,108.3l35,65.278a.6.6,0,0,0,1.105-.393c-1.335-7.732-2.767-14.121-4.142-19.066,29.616-34.746,29.337-82.911,12.853-108.042-10.449-15.931-26.809-17.843-42.462-9.069l.025-.014-.031.017C138.5,58.535,139.088,84.324,124.863,108.3ZM43.489,46.038c-17.079,26.171-16.174,73.686,12.76,108.02,0,0-2.825,11.355-4.166,19.126a.6.6,0,0,0,1.105.394l31.335-58.262A64.483,64.483,0,0,0,97.93,127.324a.581.581,0,0,0,.808-.8C86.59,108.041,70.613,80.94,80.277,51.02,95.431,54.8,109.6,72.386,120.6,97.3a.884.884,0,0,0,1.686-.481c-5.183-37.3-31.625-65.1-54.6-65.1C58.553,31.714,49.97,36.105,43.489,46.038Zm83.721-9.026Zm.033-.019h0Zm.031-.017-.031.017Zm0,0h0Zm.035-.019-.035.019Zm.007,0-.007,0Zm0,0,0,0Zm0,0h0Zm.008,0-.008,0Zm.006,0-.006,0Zm.009-.005-.009.005Zm.01-.006-.01.006Zm.018-.01-.018.01Zm.017-.009-.017.009Zm0,0,0,0Zm.009,0-.009,0Zm0,0,0,0Zm0,0Z" transform="translate(18400.629 -7111.999)" fill="#ff8900"/><path d="M199,224.72h-2.2v-3.979l-1.6,2.556h-.7l-1.6-2.555v3.978h-2.206V218.55h-2.141v6.171h-2.205V218.55H184.2v-2.133h8.482l2.17,3.465,2.17-3.465H199Zm-1.2-1h.2v-6.3h-.2Zm-6.1,0h.206v-6.3h-.206Zm-4.346,0h.205V217.55h2.155v-.133H185.2v.133h2.154Zm4.653-6.3,2.845,4.554,2.846-4.554h-.122l-2.724,4.35-2.724-4.35Zm-23.369,7.264h-5.939a21.218,21.218,0,0,1-18.708-11.209l-5.032-9.4a101.382,101.382,0,0,1-16.194,4.078,98.419,98.419,0,0,1-32.381,0,101.4,101.4,0,0,1-16.195-4.078l-5.031,9.4a21.217,21.217,0,0,1-18.708,11.209h-5.94a11.425,11.425,0,0,1-10.072-16.815l10.5-19.624A105.994,105.994,0,0,1,21.654,162.8a134.527,134.527,0,0,1-16.8-37.777C-8.913,75.777,4.538,27.391,37.567,7.355A53.16,53.16,0,0,1,51.886,1.346,59.861,59.861,0,0,1,66.823-.5,72.821,72.821,0,0,1,106.57,11.68,72.83,72.83,0,0,1,146.315-.5a59.869,59.869,0,0,1,14.938,1.845,53.168,53.168,0,0,1,14.32,6.009c33.029,20.036,46.481,68.421,32.712,117.664a134.533,134.533,0,0,1-16.8,37.779,105.956,105.956,0,0,1-23.28,25.443l10.5,19.624a11.426,11.426,0,0,1-10.074,16.815Zm-29.2-21.835L144.867,213a20.218,20.218,0,0,0,17.827,10.681h5.939a10.426,10.426,0,0,0,9.192-15.344l-10.9-20.368.334-.259a104.876,104.876,0,0,0,23.391-25.461,133.536,133.536,0,0,0,16.67-37.5c13.649-48.813.38-96.736-32.267-116.54A52.168,52.168,0,0,0,161,2.314,58.868,58.868,0,0,0,146.315.5a71.788,71.788,0,0,0-39.462,12.2l-.283.195-.283-.195A71.778,71.778,0,0,0,66.823.5,58.86,58.86,0,0,0,52.136,2.314a52.159,52.159,0,0,0-14.05,5.9C5.439,28.015-7.83,75.938,5.819,124.75a133.531,133.531,0,0,0,16.671,37.5,104.914,104.914,0,0,0,23.39,25.463l.334.259-10.9,20.368a10.425,10.425,0,0,0,9.191,15.344h5.94A20.217,20.217,0,0,0,68.272,213l5.433-10.155.4.14a100.382,100.382,0,0,0,16.434,4.176,97.419,97.419,0,0,0,32.054,0,100.364,100.364,0,0,0,16.433-4.176ZM106.57,177.23a68.175,68.175,0,0,1-17.222-2.315l-.611-.162,17.832-33.325L124.4,174.753l-.611.162A68.16,68.16,0,0,1,106.57,177.23Zm-16.353-3.123a64.051,64.051,0,0,0,32.7,0l-16.352-30.56Zm70.151.28h0a1.062,1.062,0,0,1-.945-.574l-35.133-65.527.144-.243a77.96,77.96,0,0,0,7.9-18.11A70.25,70.25,0,0,0,135.1,71.727a69.593,69.593,0,0,0-1.984-17.749,73.755,73.755,0,0,0-6.352-16.734l-.227-.432.432-.24h0l0,0a43.688,43.688,0,0,1,9.224-3.912,33.081,33.081,0,0,1,9.131-1.342,26.985,26.985,0,0,1,13.514,3.535A33.339,33.339,0,0,1,170.1,45.8a60.311,60.311,0,0,1,5.441,10.52,76.805,76.805,0,0,1,3.74,12.245,90.9,90.9,0,0,1,1.886,13.545,100.059,100.059,0,0,1-.126,14.42,103.205,103.205,0,0,1-6.927,29.765,100.171,100.171,0,0,1-16.733,27.944c1.448,5.253,2.858,11.766,4.082,18.859a1.073,1.073,0,0,1-.233.89A1.136,1.136,0,0,1,160.367,174.387Zm-34.931-66.077,34.866,65.03c.023.043.042.047.064.047h0a.132.132,0,0,0,.095-.042c.008-.009.022-.026.013-.075-1.239-7.177-2.667-13.753-4.131-19.017l-.071-.256.172-.2a99.165,99.165,0,0,0,16.736-27.866,102.207,102.207,0,0,0,6.86-29.477,99.056,99.056,0,0,0,.125-14.276,89.891,89.891,0,0,0-1.865-13.4A75.81,75.81,0,0,0,174.61,56.7a59.312,59.312,0,0,0-5.349-10.345c-6.022-9.182-14.3-14.035-23.928-14.035a32.081,32.081,0,0,0-8.855,1.3,42.4,42.4,0,0,0-8.6,3.595,74.688,74.688,0,0,1,6.212,16.528,70.592,70.592,0,0,1,2.012,18,71.25,71.25,0,0,1-2.8,18.466A78.881,78.881,0,0,1,125.437,108.311ZM52.683,174.387h0a1.136,1.136,0,0,1-.86-.4,1.075,1.075,0,0,1-.234-.891c1.22-7.066,3.692-17.2,4.113-18.913a102,102,0,0,1-16.519-27.623,103.658,103.658,0,0,1-7.067-29.531,99.086,99.086,0,0,1-.223-14.4,89.86,89.86,0,0,1,1.827-13.611A76.836,76.836,0,0,1,37.483,56.6,62.31,62.31,0,0,1,43.07,45.765c6.212-9.519,14.723-14.551,24.612-14.552,11.442,0,23.961,6.828,34.348,18.736A84.907,84.907,0,0,1,115.249,70.7a94.315,94.315,0,0,1,7.527,26.045,1.369,1.369,0,0,1-.314,1.106,1.434,1.434,0,0,1-1.07.482,1.347,1.347,0,0,1-1.255-.836c-11.4-25.821-25.419-42.084-39.528-45.876A60.87,60.87,0,0,0,78.293,62.16a61.722,61.722,0,0,0-.418,10.658A74.239,74.239,0,0,0,81.8,92.9a111.973,111.973,0,0,0,8.007,18c3.192,5.859,6.672,11.281,9.347,15.351a1.057,1.057,0,0,1,.054,1.1,1.075,1.075,0,0,1-1.555.4,64.089,64.089,0,0,1-13.035-11.55L53.628,173.814A1.062,1.062,0,0,1,52.683,174.387Zm15-142.675v.5a25.574,25.574,0,0,0-12.842,3.372A32.5,32.5,0,0,0,43.907,46.311a61.311,61.311,0,0,0-5.5,10.66A75.833,75.833,0,0,0,34.7,69.234a88.853,88.853,0,0,0-1.807,13.459,98.082,98.082,0,0,0,.221,14.25,102.659,102.659,0,0,0,7,29.246,101,101,0,0,0,16.52,27.546l.164.2-.062.248c-.028.113-2.836,11.427-4.159,19.09-.009.05.006.067.013.076a.132.132,0,0,0,.095.043c.022,0,.041,0,.064-.047l31.68-58.9.475.553a63.593,63.593,0,0,0,13.3,11.917.092.092,0,0,0,.048.019.1.1,0,0,0,.077-.054c.01-.018.016-.036-.009-.074-2.686-4.086-6.18-9.531-9.39-15.422A112.955,112.955,0,0,1,80.854,93.22a75.236,75.236,0,0,1-3.977-20.356A62.724,62.724,0,0,1,77.3,62.034a61.911,61.911,0,0,1,2.5-11.167l.144-.445.453.113c7.469,1.865,14.863,7.038,21.978,15.376a102.393,102.393,0,0,1,9.841,13.921A159.346,159.346,0,0,1,121.052,97.1a.355.355,0,0,0,.341.239.427.427,0,0,0,.315-.138.375.375,0,0,0,.078-.311,93.317,93.317,0,0,0-7.447-25.769,83.908,83.908,0,0,0-13.062-20.51c-10.2-11.69-22.441-18.395-33.594-18.394Z" transform="translate(18400.629 -7111.999)" fill="rgba(0,0,0,0)"/><path d="M375.739,210.53a1.924,1.924,0,0,1-.164-2.86l12.255-12.629a2.226,2.226,0,0,1,2.958-.146c10.622,8.463,20.829,10.171,25.564,10.143,4.124-.024,6.575-2.247,5.49-5s-5.242-3.364-13.268-5.693c-9.687-2.81-20.662-6-25.481-15.412-2.834-5.535-2.788-11.9.139-18.915,2.485-5.957,8.174-10.541,16.022-12.909,12.18-3.677,29.288-.927,42.573,6.606a1.941,1.941,0,0,1,.664,2.8l-9.9,14.34a2.218,2.218,0,0,1-2.886.605c-12.243-6.746-23.845-7.556-25.787-3.315-.869,1.9.634,3.169,2.653,3.789,1.316.4,4.839,1.163,8.6,2.256,11.481,3.332,30.7,8.909,29.119,28.124-.67,8.117-7.476,15.54-17.766,19.371a42.84,42.84,0,0,1-15,2.659C399.5,224.347,386.91,219.584,375.739,210.53Zm-99.38-24.287h0c0-.028,0-.058,0-.086l0,0c-.014-.433-.032-.863-.032-1.3,0-21.434,17.182-38.871,38.3-38.871,20.781,0,38.292,16.869,38.292,37.832a3.693,3.693,0,0,1-2.061,3.233c-11.774,4.4-23.9,7.425-36.231,7.425-5.287,0-12.719-1.262-17.948-2.162,3.419,7.833,10.553,12.219,19.432,12.219,5.372,0,10.083-1.364,13.415-3.762,1.864-1.342,2.716-1.663,5.6-.957l11.151,2.281c2.092.429,2.513,2.775.931,4.81-6.991,8.989-14.652,16.824-32.578,16.824C293.966,223.725,277.082,207.035,276.359,186.243Zm21.148-9.458a78.968,78.968,0,0,0,34.818,0c-3.347-6.912-9.894-11.62-17.41-11.62S300.854,169.872,297.507,176.785ZM80.84,222.127a8.3,8.3,0,0,1-7.749-5.337l-4.062-10.649a79.69,79.69,0,0,1-38.623.014L26.348,216.79a8.3,8.3,0,0,1-7.749,5.337H2.235a1.994,1.994,0,0,1-1.85-2.739l37.023-92.017a2,2,0,0,1,1.851-1.25H60.179a1.993,1.993,0,0,1,1.85,1.25l37.025,92.017a2,2,0,0,1-1.851,2.739ZM38.008,186.235a59.4,59.4,0,0,0,23.416-.016l-11.7-30.673Zm207.24,35.891a1.994,1.994,0,0,1-1.995-1.994V180.5c0-8.833-6.329-14.069-14.067-14.069s-14.069,4.671-14.069,14.069v39.628a1.994,1.994,0,0,1-1.994,1.994H200.888a7.976,7.976,0,0,1-7.976-7.976V149.59a1.994,1.994,0,0,1,1.994-1.995H208c4.791,0,8.674,5.434,8.674,10.224,3.392-6.022,9.139-11.281,18.568-11.281,18.889,0,29.131,14.929,29.131,33.494v40.1a1.994,1.994,0,0,1-1.994,1.994Zm-85.641,0a1.994,1.994,0,0,1-1.995-1.994V180.5c0-8.833-6.33-14.069-14.068-14.069s-14.069,4.671-14.069,14.069v39.628a1.994,1.994,0,0,1-1.994,1.994H115.246a7.976,7.976,0,0,1-7.976-7.976V149.59a2,2,0,0,1,1.994-1.995h13.089c4.791,0,8.674,5.434,8.674,10.224,3.392-6.022,9.139-11.281,18.568-11.281,18.889,0,29.131,14.929,29.131,33.494v40.1a1.994,1.994,0,0,1-1.994,1.994ZM362.421,163.3a4.053,4.053,0,0,1-3.861-3.607l-3.652-23.854a4.216,4.216,0,0,1,3.863-5.05H372.46a4.215,4.215,0,0,1,3.862,5.05l-3.65,23.854a4.055,4.055,0,0,1-3.862,3.607Zm85.823-11.416a6.849,6.849,0,1,1,6.849,6.849A6.847,6.847,0,0,1,448.244,151.886Zm.568,0a6.281,6.281,0,1,0,6.282-6.319A6.3,6.3,0,0,0,448.812,151.886Zm7.889,3.5-1.343-2.5h-1.173v2.5h-1.172v-7h2.157a2.341,2.341,0,0,1,2.647,2.252,2.016,2.016,0,0,1-1.286,2.024l1.476,2.725Zm-2.516-3.633h1.06c.909,0,1.4-.455,1.4-1.116,0-.681-.491-1.117-1.4-1.117h-1.06Zm-86.937-83.3h0c0-.028,0-.057,0-.085l0,0c-.014-.432-.033-.863-.033-1.3,0-21.434,17.183-38.871,38.3-38.871,20.78,0,38.292,16.869,38.292,37.832a3.691,3.691,0,0,1-2.061,3.232c-11.774,4.4-23.9,7.425-36.231,7.425-5.287,0-12.719-1.262-17.948-2.162,3.419,7.834,10.553,12.219,19.432,12.219,5.371,0,10.083-1.364,13.415-3.762,1.864-1.341,2.716-1.663,5.6-.956l11.15,2.281c2.092.429,2.513,2.775.931,4.81-6.99,8.988-14.651,16.823-32.577,16.823C384.856,105.937,367.972,89.247,367.248,68.454ZM388.4,59a78.994,78.994,0,0,0,34.818,0c-3.347-6.912-9.895-11.621-17.41-11.621S391.743,52.085,388.4,59ZM102.273,72.008v-40.1a1.994,1.994,0,0,1,1.994-1.994h17.126a1.994,1.994,0,0,1,1.995,1.994V71.536c0,8.833,6.33,14.068,14.068,14.068s14.069-4.671,14.069-14.068V31.909a1.994,1.994,0,0,1,1.994-1.994h12.235a7.976,7.976,0,0,1,7.976,7.976v64.56a1.994,1.994,0,0,1-1.994,1.995H158.647c-4.791,0-8.674-5.435-8.674-10.224-3.392,6.021-9.139,11.281-18.568,11.281C112.516,105.5,102.273,90.572,102.273,72.008Zm235.117,32.331a2,2,0,0,1-1.995-1.994V38.008a2,2,0,0,1,1.995-1.995h11.726a7.4,7.4,0,0,1,7.4,7.394v58.938a2,2,0,0,1-1.995,1.994Zm-34.225,0a22.1,22.1,0,0,1-22.1-22.1V50.923H270.556a2,2,0,0,1-1.995-1.995V31.8a2,2,0,0,1,1.995-1.995H281.07V20.17a9.684,9.684,0,0,1,5.779-8.862l10.31-4.545a3.581,3.581,0,0,1,5.026,3.277V29.807h15.628a2,2,0,0,1,1.995,1.995V47.491a3.432,3.432,0,0,1-3.433,3.433h-14.19V77.94a6.856,6.856,0,0,0,6.835,6.835h9.922a2.071,2.071,0,0,1,2.046,2.389l-2.645,15.422a2.07,2.07,0,0,1-2.046,1.753Zm-62.111,0a2,2,0,0,1-1.995-1.994V62.717c0-8.833-6.33-14.068-14.068-14.068s-14.068,4.671-14.068,14.068v39.628a2,2,0,0,1-1.994,1.994H196.695a7.976,7.976,0,0,1-7.976-7.976V31.8a1.994,1.994,0,0,1,1.994-1.995H203.8c4.791,0,8.674,5.435,8.674,10.224,3.392-6.021,9.139-11.28,18.568-11.28,18.889,0,29.131,14.929,29.131,33.493v40.1a2,2,0,0,1-1.994,1.994Zm-160.454,0A8.3,8.3,0,0,1,72.852,99L68.789,88.354a79.7,79.7,0,0,1-38.622.013L26.109,99a8.3,8.3,0,0,1-7.749,5.337H2A2,2,0,0,1,.146,101.6L37.17,9.583a1.994,1.994,0,0,1,1.851-1.25H59.939a1.993,1.993,0,0,1,1.851,1.25L98.814,101.6a2,2,0,0,1-1.851,2.74ZM37.768,68.447a59.44,59.44,0,0,0,23.417-.016L49.479,37.758ZM333.432,12.979a12.979,12.979,0,1,1,12.979,12.98A12.979,12.979,0,0,1,333.432,12.979Z" transform="translate(18638.686 -7110.726)" fill="#fff"/><path d="M411.529,224.846h0a51.234,51.234,0,0,1-18.4-3.546,65.55,65.55,0,0,1-17.708-10.382,2.407,2.407,0,0,1-.9-1.743,2.459,2.459,0,0,1,.7-1.854l12.255-12.629a2.616,2.616,0,0,1,1.9-.79,2.783,2.783,0,0,1,1.727.6,48.212,48.212,0,0,0,14.73,8.137,33.509,33.509,0,0,0,10.409,1.9h.111c2.238-.013,4.044-.717,4.832-1.881a2.529,2.529,0,0,0,.195-2.438c-.8-2.029-3.708-2.831-8.987-4.286-1.178-.325-2.512-.692-3.955-1.111-9.781-2.837-20.868-6.053-25.787-15.665-2.9-5.673-2.864-12.178.123-19.335,2.543-6.1,8.346-10.784,16.339-13.2a41.923,41.923,0,0,1,12.087-1.64,64.587,64.587,0,0,1,30.877,8.29,2.486,2.486,0,0,1,1.2,1.6,2.439,2.439,0,0,1-.372,1.926l-9.9,14.34a2.63,2.63,0,0,1-2.176,1.109,2.835,2.835,0,0,1-1.362-.35,53.108,53.108,0,0,0-10.413-4.425,31.15,31.15,0,0,0-8.608-1.437c-3.23,0-5.386.823-6.07,2.317a1.682,1.682,0,0,0-.078,1.447,3.738,3.738,0,0,0,2.423,1.655c.527.162,1.431.385,2.574.668,1.69.418,3.793.939,6.022,1.586,5.7,1.653,13.5,3.917,19.605,8.176a23.8,23.8,0,0,1,7.547,8.159,21.82,21.82,0,0,1,2.326,12.309c-.686,8.313-7.618,15.9-18.09,19.8a43.323,43.323,0,0,1-15.176,2.69ZM389.372,194.9a1.625,1.625,0,0,0-1.182.485l-12.256,12.63a1.438,1.438,0,0,0-.416,1.1,1.418,1.418,0,0,0,.535,1.026,64.554,64.554,0,0,0,17.437,10.225,50.24,50.24,0,0,0,18.039,3.48h0a42.328,42.328,0,0,0,14.827-2.627c10.105-3.762,16.789-11.021,17.443-18.944a20.84,20.84,0,0,0-2.21-11.754,22.814,22.814,0,0,0-7.238-7.812c-5.974-4.165-13.682-6.4-19.31-8.036-2.211-.642-4.3-1.16-5.985-1.576-1.159-.287-2.074-.513-2.627-.683a4.747,4.747,0,0,1-3.042-2.2,2.659,2.659,0,0,1,.081-2.273c.857-1.871,3.335-2.9,6.98-2.9a32.147,32.147,0,0,1,8.893,1.478,54.109,54.109,0,0,1,10.61,4.507,1.831,1.831,0,0,0,.88.226,1.631,1.631,0,0,0,1.354-.677l9.9-14.34a1.418,1.418,0,0,0,.22-1.134,1.464,1.464,0,0,0-.719-.952,63.557,63.557,0,0,0-30.383-8.16,40.927,40.927,0,0,0-11.8,1.6c-7.7,2.324-13.279,6.807-15.7,12.623-2.868,6.873-2.92,13.1-.155,18.494,4.722,9.227,15.588,12.379,25.175,15.16,1.436.417,2.767.784,3.942,1.107,5.59,1.54,8.669,2.389,9.652,4.883a3.533,3.533,0,0,1-.3,3.365c-.988,1.46-3.049,2.305-5.655,2.321h-.117a34.526,34.526,0,0,1-10.726-1.949,49.208,49.208,0,0,1-15.036-8.3A1.779,1.779,0,0,0,389.372,194.9Zm-74.745,29.322a37.991,37.991,0,0,1-14.788-2.972,38.684,38.684,0,0,1-12.174-8.116,39.531,39.531,0,0,1-11.793-26.532h0l-.013-.347c0-.017,0-.034,0-.051s0-.023,0-.035l0-.126v0l0-.123c-.012-.347-.024-.705-.024-1.066,0-21.709,17.407-39.371,38.8-39.371a38.528,38.528,0,0,1,14.943,3,39.139,39.139,0,0,1,12.346,8.2,38.415,38.415,0,0,1,8.4,12.18,37.332,37.332,0,0,1,3.1,14.954,4.158,4.158,0,0,1-2.386,3.7,128.708,128.708,0,0,1-17.977,5.384,87.671,87.671,0,0,1-18.429,2.073c-5.1,0-12.1-1.152-17.095-2.008,3.442,7.046,10.161,11.065,18.58,11.065,5.176,0,9.836-1.3,13.123-3.668a5.55,5.55,0,0,1,3.512-1.415,10.59,10.59,0,0,1,2.485.376l11.142,2.279a2.72,2.72,0,0,1,2.1,1.73,4.12,4.12,0,0,1-.879,3.876C340.625,216.176,332.855,224.225,314.627,224.225ZM276.86,186.264a38.533,38.533,0,0,0,11.507,26.161,37.689,37.689,0,0,0,11.86,7.907,37,37,0,0,0,14.4,2.894,45.261,45.261,0,0,0,11.543-1.348,31.341,31.341,0,0,0,8.585-3.619c4.731-2.9,8.241-6.759,12.055-11.663a3.191,3.191,0,0,0,.73-2.916,1.732,1.732,0,0,0-1.367-1.1l-11.15-2.281-.019,0a9.715,9.715,0,0,0-2.257-.35,4.621,4.621,0,0,0-2.928,1.227c-3.456,2.487-8.323,3.857-13.707,3.857-9.169,0-16.419-4.563-19.891-12.519l-.371-.85.914.157c4.985.858,12.518,2.155,17.863,2.155a86.669,86.669,0,0,0,18.217-2.05,127.723,127.723,0,0,0,17.838-5.343,3.229,3.229,0,0,0,1.736-2.765,36.338,36.338,0,0,0-3.019-14.556,37.42,37.42,0,0,0-8.184-11.864,38.144,38.144,0,0,0-12.032-7.987,37.533,37.533,0,0,0-14.557-2.925c-20.845,0-37.8,17.213-37.8,38.371,0,.344.012.693.024,1.032l.013.378ZM97.2,222.627H80.84a8.795,8.795,0,0,1-8.217-5.658l-3.905-10.236a80.15,80.15,0,0,1-38,.014l-3.9,10.222a8.8,8.8,0,0,1-8.217,5.658H2.236A2.494,2.494,0,0,1-.078,219.2l37.023-92.016a2.486,2.486,0,0,1,2.315-1.563H60.179a2.48,2.48,0,0,1,2.314,1.564L99.517,219.2a2.495,2.495,0,0,1-2.315,3.426ZM69.338,205.55l4.22,11.062a7.8,7.8,0,0,0,7.282,5.015H97.2a1.495,1.495,0,0,0,1.388-2.053L61.565,127.558a1.485,1.485,0,0,0-1.386-.936H39.26a1.49,1.49,0,0,0-1.388.937L.85,219.574a1.494,1.494,0,0,0,1.386,2.052H18.6a7.795,7.795,0,0,0,7.282-5.015L30.1,205.564l.429.106a79.19,79.19,0,0,0,38.383-.014Zm193.038,17.076H245.248a2.5,2.5,0,0,1-2.495-2.494V180.5a13.332,13.332,0,0,0-3.976-9.984,13.816,13.816,0,0,0-9.592-3.585,16.1,16.1,0,0,0-5.3.849,12.241,12.241,0,0,0-4.3,2.529c-2.6,2.386-3.971,5.91-3.971,10.19v39.628a2.5,2.5,0,0,1-2.494,2.494H200.888a8.486,8.486,0,0,1-8.476-8.476V149.59a2.5,2.5,0,0,1,2.494-2.495H208c4.621,0,8.315,4.612,9.043,9.135a22.839,22.839,0,0,1,6.369-6.722,20.618,20.618,0,0,1,11.83-3.469c9.113,0,16.733,3.448,22.037,9.97a32.3,32.3,0,0,1,5.676,10.81,44.218,44.218,0,0,1,1.918,13.215v40.1A2.5,2.5,0,0,1,262.375,222.626Zm-33.189-56.69a14.81,14.81,0,0,1,10.279,3.859,14.306,14.306,0,0,1,4.288,10.71v39.628a1.5,1.5,0,0,0,1.495,1.494h17.127a1.5,1.5,0,0,0,1.494-1.494v-40.1A43.221,43.221,0,0,0,262,167.117a31.308,31.308,0,0,0-5.5-10.477c-5.107-6.281-12.459-9.6-21.261-9.6a19.637,19.637,0,0,0-11.267,3.3,22.546,22.546,0,0,0-6.866,7.731l-.936,1.661v-1.907a10.954,10.954,0,0,0-2.43-6.6A7.493,7.493,0,0,0,208,148.1H194.907a1.5,1.5,0,0,0-1.494,1.495v64.56a7.484,7.484,0,0,0,7.476,7.476h12.235a1.5,1.5,0,0,0,1.494-1.494V180.5c0-4.568,1.485-8.346,4.294-10.927a13.234,13.234,0,0,1,4.648-2.738A17.1,17.1,0,0,1,229.186,165.936Zm-52.453,56.69H159.607a2.5,2.5,0,0,1-2.495-2.494V180.5a13.331,13.331,0,0,0-3.976-9.984,13.818,13.818,0,0,0-9.592-3.585,16.1,16.1,0,0,0-5.3.849,12.241,12.241,0,0,0-4.3,2.529c-2.6,2.386-3.971,5.91-3.971,10.19v39.628a2.5,2.5,0,0,1-2.494,2.494H115.247a8.486,8.486,0,0,1-8.476-8.476V149.59a2.5,2.5,0,0,1,2.494-2.495h13.089c4.621,0,8.315,4.612,9.043,9.135a22.843,22.843,0,0,1,6.37-6.723,20.617,20.617,0,0,1,11.829-3.469c9.113,0,16.733,3.448,22.037,9.97a32.3,32.3,0,0,1,5.676,10.81,44.217,44.217,0,0,1,1.918,13.215v40.1A2.5,2.5,0,0,1,176.733,222.626Zm-33.189-56.69a14.812,14.812,0,0,1,10.279,3.859,14.305,14.305,0,0,1,4.289,10.71v39.628a1.5,1.5,0,0,0,1.495,1.494h17.126a1.5,1.5,0,0,0,1.494-1.494v-40.1a43.221,43.221,0,0,0-1.873-12.916,31.309,31.309,0,0,0-5.5-10.477c-5.107-6.281-12.459-9.6-21.261-9.6a19.635,19.635,0,0,0-11.267,3.3,22.552,22.552,0,0,0-6.866,7.731l-.936,1.661v-1.906a10.954,10.954,0,0,0-2.43-6.6,7.493,7.493,0,0,0-5.743-3.129H109.265a1.5,1.5,0,0,0-1.494,1.495v64.56a7.484,7.484,0,0,0,7.476,7.476h12.235a1.5,1.5,0,0,0,1.494-1.494V180.5c0-4.568,1.485-8.346,4.294-10.927a13.234,13.234,0,0,1,4.648-2.738A17.1,17.1,0,0,1,143.544,165.936ZM49.663,187.893a59.843,59.843,0,0,1-11.754-1.167l-.579-.116,12.389-32.465L62.1,186.593l-.579.117A60.248,60.248,0,0,1,49.663,187.893Zm-10.976-2.034a58.9,58.9,0,0,0,22.058-.015L49.719,156.949Zm276.229-6.631a79.723,79.723,0,0,1-17.519-1.955l-.614-.139.275-.567c3.555-7.342,10.4-11.9,17.858-11.9s14.3,4.561,17.86,11.9l.275.567-.614.139A79.723,79.723,0,0,1,314.916,179.228Zm-16.674-2.792a78.456,78.456,0,0,0,33.348,0c-3.457-6.66-9.794-10.771-16.675-10.771S301.7,169.775,298.242,176.435ZM368.81,163.8h-6.389a4.537,4.537,0,0,1-4.355-4.031l-3.652-23.854a5.1,5.1,0,0,1,1.137-4.1,4.207,4.207,0,0,1,3.22-1.522H372.46a4.206,4.206,0,0,1,3.219,1.521,5.1,5.1,0,0,1,1.137,4.1l-3.65,23.854A4.539,4.539,0,0,1,368.81,163.8Zm-10.039-32.511a3.222,3.222,0,0,0-2.461,1.173,4.1,4.1,0,0,0-.907,3.3l3.652,23.854a3.546,3.546,0,0,0,3.367,3.182h6.389a3.548,3.548,0,0,0,3.368-3.182l3.65-23.854a4.1,4.1,0,0,0-.907-3.3,3.221,3.221,0,0,0-2.461-1.173Zm96.323,27.944a7.349,7.349,0,1,1,7.349-7.349A7.358,7.358,0,0,1,455.094,159.236Zm0-13.168a5.819,5.819,0,1,0,5.78,5.819A5.807,5.807,0,0,0,455.094,146.068Zm3.753,9.819H456.4l-1.343-2.5h-.374v2.5h-2.172v-8h2.657a2.83,2.83,0,0,1,3.147,2.752,2.534,2.534,0,0,1-1.105,2.231Zm-1.846-1h.167l-1.344-2.481.522-.208a1.521,1.521,0,0,0,.972-1.559c0-.808-.562-1.752-2.147-1.752h-1.657v6h.172v-2.5h1.972Zm-1.755-2.633h-1.56v-3.233h1.56c1.154,0,1.9.635,1.9,1.617S456.4,152.254,455.245,152.254Zm-.56-1h.56c.41,0,.9-.107.9-.616,0-.409-.3-.617-.9-.617h-.56Zm-49.168-44.818a37.992,37.992,0,0,1-14.788-2.972,38.685,38.685,0,0,1-12.174-8.116,39.533,39.533,0,0,1-11.8-26.585h0l-.011-.294c0-.017,0-.034,0-.05s0-.023,0-.034l0-.106,0,0-.006-.17c-.012-.338-.024-.688-.024-1.04,0-21.709,17.408-39.371,38.8-39.371a38.525,38.525,0,0,1,14.943,3,39.138,39.138,0,0,1,12.346,8.2,38.415,38.415,0,0,1,8.4,12.18,37.331,37.331,0,0,1,3.1,14.954,4.154,4.154,0,0,1-2.387,3.7,128.632,128.632,0,0,1-17.977,5.384,87.678,87.678,0,0,1-18.429,2.072c-5.1,0-12.1-1.152-17.095-2.008,3.442,7.046,10.161,11.065,18.58,11.065,5.176,0,9.836-1.3,13.123-3.668a5.553,5.553,0,0,1,3.512-1.415,10.575,10.575,0,0,1,2.485.376l11.142,2.279a2.72,2.72,0,0,1,2.1,1.731,4.12,4.12,0,0,1-.88,3.876C431.515,98.388,423.745,106.437,405.517,106.437Zm-37.769-37.98a38.536,38.536,0,0,0,11.508,26.179,37.69,37.69,0,0,0,11.86,7.907,37,37,0,0,0,14.4,2.894,45.261,45.261,0,0,0,11.543-1.348,31.34,31.34,0,0,0,8.585-3.619c4.731-2.9,8.241-6.759,12.054-11.662a3.191,3.191,0,0,0,.731-2.916,1.731,1.731,0,0,0-1.367-1.1l-11.15-2.281-.019,0a9.7,9.7,0,0,0-2.257-.35,4.624,4.624,0,0,0-2.928,1.226c-3.455,2.487-8.323,3.856-13.707,3.856-9.169,0-16.419-4.563-19.891-12.519l-.371-.85.914.157c4.984.858,12.517,2.155,17.863,2.155a86.677,86.677,0,0,0,18.217-2.05,127.663,127.663,0,0,0,17.838-5.343,3.225,3.225,0,0,0,1.736-2.764,36.337,36.337,0,0,0-3.02-14.556,37.421,37.421,0,0,0-8.184-11.864,38.143,38.143,0,0,0-12.032-7.987,37.531,37.531,0,0,0-14.557-2.925c-20.845,0-37.8,17.213-37.8,38.371,0,.334.012.675.023,1q0,.139.01.278l0,.106ZM131.4,106c-9.113,0-16.733-3.448-22.037-9.97a32.3,32.3,0,0,1-5.676-10.81,44.217,44.217,0,0,1-1.918-13.215v-40.1a2.5,2.5,0,0,1,2.494-2.494h17.126a2.5,2.5,0,0,1,2.495,2.494V71.536a13.33,13.33,0,0,0,3.976,9.983,13.819,13.819,0,0,0,9.592,3.585,16.1,16.1,0,0,0,5.3-.849,12.24,12.24,0,0,0,4.3-2.529c2.6-2.386,3.971-5.91,3.971-10.19V31.909a2.5,2.5,0,0,1,2.494-2.494h12.235a8.486,8.486,0,0,1,8.476,8.476v64.56a2.5,2.5,0,0,1-2.494,2.495H158.647c-4.621,0-8.315-4.612-9.043-9.135a22.848,22.848,0,0,1-6.37,6.722A20.616,20.616,0,0,1,131.4,106ZM104.267,30.415a1.5,1.5,0,0,0-1.494,1.494v40.1a43.22,43.22,0,0,0,1.873,12.916,31.31,31.31,0,0,0,5.5,10.477c5.107,6.281,12.459,9.6,21.261,9.6a19.635,19.635,0,0,0,11.267-3.3,22.556,22.556,0,0,0,6.866-7.73l.936-1.661v1.906a10.954,10.954,0,0,0,2.43,6.6,7.493,7.493,0,0,0,5.743,3.129h13.089a1.5,1.5,0,0,0,1.494-1.495V37.891a7.484,7.484,0,0,0-7.476-7.476H153.519a1.5,1.5,0,0,0-1.494,1.494V71.536c0,4.567-1.485,8.345-4.294,10.926a13.235,13.235,0,0,1-4.648,2.737,17.1,17.1,0,0,1-5.627.9,14.812,14.812,0,0,1-10.279-3.858,14.3,14.3,0,0,1-4.289-10.71V31.909a1.5,1.5,0,0,0-1.495-1.494Zm250.25,74.424H337.391a2.5,2.5,0,0,1-2.495-2.494V38.008a2.5,2.5,0,0,1,2.495-2.495h11.726a7.9,7.9,0,0,1,7.9,7.894v58.938A2.5,2.5,0,0,1,354.517,104.839ZM337.391,36.513a1.5,1.5,0,0,0-1.495,1.495v64.337a1.5,1.5,0,0,0,1.495,1.494h17.126a1.5,1.5,0,0,0,1.495-1.494V43.407a6.9,6.9,0,0,0-6.9-6.894ZM316.3,104.839h-13.13a22.579,22.579,0,0,1-22.6-22.6V51.423H270.556a2.5,2.5,0,0,1-2.495-2.495V31.8a2.5,2.5,0,0,1,2.495-2.495H280.57V20.17a10.189,10.189,0,0,1,6.077-9.319l10.31-4.545a4.074,4.074,0,0,1,5.728,3.734V29.307h15.128a2.5,2.5,0,0,1,2.495,2.495V47.491a3.937,3.937,0,0,1-3.933,3.933h-13.69V77.94a6.356,6.356,0,0,0,6.335,6.335h9.922a2.571,2.571,0,0,1,2.54,2.966v.008l-2.645,15.422A2.558,2.558,0,0,1,316.3,104.839ZM270.556,30.307a1.5,1.5,0,0,0-1.495,1.495V48.928a1.5,1.5,0,0,0,1.495,1.495H281.57V82.243a21.579,21.579,0,0,0,21.6,21.6H316.3a1.563,1.563,0,0,0,1.552-1.33V102.5l2.644-15.42a1.571,1.571,0,0,0-1.552-1.807H309.02a7.356,7.356,0,0,1-7.335-7.335V50.423h14.69a2.936,2.936,0,0,0,2.933-2.933V31.8a1.5,1.5,0,0,0-1.495-1.495H301.685V10.04a3.074,3.074,0,0,0-4.324-2.819l-10.31,4.545a9.188,9.188,0,0,0-5.481,8.4V30.307Zm-12.375,74.532H241.055a2.5,2.5,0,0,1-2.495-2.494V62.717a13.33,13.33,0,0,0-3.976-9.983,13.819,13.819,0,0,0-9.592-3.585,16.1,16.1,0,0,0-5.3.849,12.239,12.239,0,0,0-4.3,2.529c-2.6,2.386-3.971,5.91-3.971,10.19v39.628a2.5,2.5,0,0,1-2.494,2.494H196.695a8.486,8.486,0,0,1-8.476-8.476V31.8a2.5,2.5,0,0,1,2.494-2.495H203.8c4.621,0,8.315,4.612,9.043,9.135a22.845,22.845,0,0,1,6.37-6.722,20.618,20.618,0,0,1,11.829-3.469c9.113,0,16.733,3.447,22.037,9.97a32.3,32.3,0,0,1,5.676,10.809,44.214,44.214,0,0,1,1.918,13.214v40.1A2.5,2.5,0,0,1,258.181,104.839Zm-33.189-56.69a14.812,14.812,0,0,1,10.279,3.858,14.3,14.3,0,0,1,4.289,10.71v39.628a1.5,1.5,0,0,0,1.495,1.494h17.126a1.5,1.5,0,0,0,1.494-1.494v-40.1A43.219,43.219,0,0,0,257.8,49.329a31.309,31.309,0,0,0-5.5-10.477c-5.107-6.281-12.459-9.6-21.261-9.6a19.636,19.636,0,0,0-11.267,3.3,22.552,22.552,0,0,0-6.866,7.73l-.936,1.661V40.032a10.954,10.954,0,0,0-2.43-6.6,7.493,7.493,0,0,0-5.743-3.129H190.713a1.5,1.5,0,0,0-1.494,1.495V96.363a7.484,7.484,0,0,0,7.476,7.476H208.93a1.5,1.5,0,0,0,1.494-1.494V62.717c0-4.567,1.485-8.345,4.294-10.926a13.232,13.232,0,0,1,4.647-2.737A17.1,17.1,0,0,1,224.992,48.149ZM96.963,104.839H80.6a8.794,8.794,0,0,1-8.217-5.659L68.479,88.944a80.162,80.162,0,0,1-38,.013l-3.9,10.222a8.8,8.8,0,0,1-8.216,5.659H2a2.5,2.5,0,0,1-2.314-3.427L36.706,9.4a2.484,2.484,0,0,1,2.314-1.563H59.939A2.482,2.482,0,0,1,62.254,9.4l37.024,92.015a2.5,2.5,0,0,1-2.314,3.427ZM69.1,87.762l4.221,11.061a7.795,7.795,0,0,0,7.282,5.016H96.963a1.5,1.5,0,0,0,1.387-2.053L61.326,9.77a1.487,1.487,0,0,0-1.387-.936H39.021a1.489,1.489,0,0,0-1.387.937L.61,101.786A1.5,1.5,0,0,0,2,103.839H18.36a7.8,7.8,0,0,0,7.282-5.016l4.216-11.048.429.106a79.2,79.2,0,0,0,38.382-.013ZM49.423,70.1A59.872,59.872,0,0,1,37.67,68.938l-.58-.116.211-.552L49.48,36.355l12.384,32.45-.579.116A60.29,60.29,0,0,1,49.423,70.1ZM38.447,68.071A58.889,58.889,0,0,0,49.423,69.1a59.289,59.289,0,0,0,11.083-1.049L49.48,39.16Zm367.358-6.631a79.739,79.739,0,0,1-17.518-1.954l-.614-.139.274-.567c3.554-7.342,10.4-11.9,17.858-11.9s14.3,4.561,17.86,11.9l.275.567-.615.139A79.749,79.749,0,0,1,405.806,61.439Zm-16.674-2.792a78.733,78.733,0,0,0,16.674,1.792,78.737,78.737,0,0,0,16.675-1.792c-3.458-6.661-9.794-10.771-16.675-10.771S392.588,51.987,389.132,58.648ZM346.411,26.459a13.48,13.48,0,0,1-9.531-23.011,13.48,13.48,0,0,1,19.063,19.064A13.391,13.391,0,0,1,346.411,26.459Zm0-25.959a12.48,12.48,0,0,0-8.824,21.3A12.48,12.48,0,0,0,355.235,4.155,12.4,12.4,0,0,0,346.411.5Z" transform="translate(18638.686 -7110.726)" fill="rgba(0,0,0,0)"/></g></svg>