<svg xmlns="http://www.w3.org/2000/svg" width="666.039" height="277.102" viewBox="0 0 666.039 277.102"><g transform="translate(-19213.75 7141.222)"><path d="M28.785,253.373C10.225,235.819,0,210.352,0,181.655,0,124.38,36.977,82.81,87.924,82.81c35.672,0,62.863,22.761,66.127,55.354a10.844,10.844,0,1,1-21.579,2.162c-2.647-26.446-25.652-35.831-44.548-35.831-31.9,0-66.238,24.147-66.238,77.161,0,22.673,7.812,42.547,22,55.961a61.066,61.066,0,0,0,45.846,16.7c31.072-1.737,44.487-21.993,44.62-22.2a10.842,10.842,0,1,1,18.221,11.758c-.781,1.212-19.656,29.744-61.63,32.092q-2.43.136-4.842.135A82.448,82.448,0,0,1,28.785,253.373Zm302.08,5.646-17.2-44.2-3.617-9.3a4.4,4.4,0,0,0-5.61-2.536,4.521,4.521,0,0,0-2.876,4.3v48.1a10.033,10.033,0,0,1-10.342,10.03A10.313,10.313,0,0,1,281.5,254.96v-140.9a10.034,10.034,0,0,1,10.034-10.034h24.342A34.376,34.376,0,0,1,350.252,138.4v19.68A34.412,34.412,0,0,1,332.794,188a8.871,8.871,0,0,0-3.767,10.934l20.4,52.456a10.288,10.288,0,0,1-4.607,12.906,10.029,10.029,0,0,1-13.959-5.279Zm-29.113-127.35v32.77a7.679,7.679,0,0,0,7.679,7.679h6.015A14.552,14.552,0,0,0,330,157.567V138.541a14.552,14.552,0,0,0-14.551-14.551h-6.015A7.679,7.679,0,0,0,301.753,131.669ZM237.1,265.412a10.316,10.316,0,0,1-9.726-10.452V217.266a8.428,8.428,0,0,0-8.429-8.429H207.189a8.428,8.428,0,0,0-8.429,8.429v38.116a10.037,10.037,0,0,1-10.345,10.03,10.316,10.316,0,0,1-9.726-10.452V139.241c0-18.617,14.448-34.491,33.05-35.2a34.413,34.413,0,0,1,35.7,34.351V255.382a10.035,10.035,0,0,1-10.036,10.035C237.3,265.417,237.2,265.415,237.1,265.412ZM212.088,124.123c-7.6.508-13.327,7.165-13.327,14.778v41.436a8.429,8.429,0,0,0,8.429,8.43h11.756a8.429,8.429,0,0,0,8.429-8.43V138.4a14.32,14.32,0,0,0-14.306-14.306C212.744,124.091,212.416,124.1,212.088,124.123ZM572.2,265.416a10.034,10.034,0,0,1-10.034-10.034v-140.9a10.315,10.315,0,0,1,9.726-10.452,10.036,10.036,0,0,1,10.344,10.03V235.714a9.633,9.633,0,0,0,9.632,9.633h30.265a10.315,10.315,0,0,1,10.452,9.726,10.034,10.034,0,0,1-10.03,10.342Zm-89.139,0a10.033,10.033,0,0,1-10.034-10.034V114.056a10.034,10.034,0,0,1,10.034-10.034h43.6a10.033,10.033,0,0,1,10.03,10.342,10.313,10.313,0,0,1-10.452,9.726H502.728a9.634,9.634,0,0,0-9.633,9.633v28.914a9.634,9.634,0,0,0,9.633,9.633h15.293a10.035,10.035,0,0,1,10.03,10.345,10.314,10.314,0,0,1-10.451,9.723H502.728a9.634,9.634,0,0,0-9.633,9.633v33.742a9.634,9.634,0,0,0,9.633,9.633h23.507a10.313,10.313,0,0,1,10.452,9.726,10.033,10.033,0,0,1-10.03,10.342Zm-84.13-7.788c-1.171-4.936-2.471-9.844-3.7-14.766-5.42-21.725-29.143-118.017-29.143-118.017a32.212,32.212,0,0,1-1.307-10.77,27.63,27.63,0,0,1,6.6-15.809c-3.977-4.025-5.585-9.5-5.5-15.171.13-8.466,3.7-17,10.485-22.228a6.057,6.057,0,0,0,.721-.83q-.125-.223-.244-.46c-4.463-8.752-1.892-15.177.931-19.392a20.954,20.954,0,0,1,3.41-4.448c.013-.018.031-.041.044-.057,3.853-3.887,8.623-6.82,13.383-9.454,2.575-1.424,4-2.045,6.154-4.079a4.283,4.283,0,0,0-2.472-7.112c-2.445-.361-3.757.318-6.094.375-3.005.076-4.088-2.615-2.615-5.012a19.37,19.37,0,0,1,6.81-6.629A27.9,27.9,0,0,1,408.89.116C425.28-1.1,434.751,7.421,439.321,18.157c2.745,6.446,1.653,14.878,1.128,17.246,7.932,7.136,13.87,17.306,11.237,30.167-.492,2.4-2.547,8-4.356,9.936,5.7,4.738,10.114,10.158,11.937,17.52a29.472,29.472,0,0,1-18.235,34.644,64.8,64.8,0,0,1-29.851,4.535c-15.081-.986-20.811,1.531-20.811,1.531l18.411,77.681,15.552-63.505a10.124,10.124,0,1,1,19.7,4.673l-25.4,105.041a10.122,10.122,0,0,1-19.7,0ZM395.851,91.747c-9.824,2.37-16.593,10.916-18.478,18.867a26.473,26.473,0,0,0-.293,10.454,33.953,33.953,0,0,0,1.866,5.995.721.721,0,0,0,1.075.331,39.862,39.862,0,0,1,15.258-6.011,79.158,79.158,0,0,1,13.279-.36c9.664.229,20.751.459,30.164-4.646,7.62-4.132,11.252-11.769,10.363-20.724-.292-2.931-2.047-6.151-3.392-8.743a18.043,18.043,0,0,0-3.441-4.269,1.034,1.034,0,0,0-1.406-.009,34.238,34.238,0,0,1-2.887,2.425,27.308,27.308,0,0,1-12.044,5.181c-4.917.958-9.7.784-14.451.612-1.862-.068-3.719-.136-5.581-.136A42.208,42.208,0,0,0,395.851,91.747Zm40.718-43.866c-1.6,2.041-6,6.674-14.462,8.911-7.045,1.862-14.477.965-21.509,1.96a29.752,29.752,0,0,0-3.264.646,28.4,28.4,0,0,0-16.483,12.353,21.27,21.27,0,0,0-3.331,9.982,27.467,27.467,0,0,0,.277,5.23,26.115,26.115,0,0,0,.723,2.859.692.692,0,0,0,1.186.265c2.588-2.95,11.771-11.293,31.909-9.788a48.208,48.208,0,0,0,14.091-1.317c5.507-1.35,9.881-5.468,12.853-10.3,5.173-8.415,1.085-17.56-.622-20.682a.816.816,0,0,0-1.367-.115Zm-29.9-37.964a.5.5,0,0,0-.031.925,12.856,12.856,0,0,1,5.814,7.466c1.223,5.354-.412,10.066-7.873,13.326-3.83,1.671-11.97,4.28-15.825,9.454a13.715,13.715,0,0,0-2.841,5.7c-.787,3.9-.268,6.3.147,7.442a.624.624,0,0,0,.979.275c1.974-1.579,8.9-6.226,23.041-7.237,3.055-.219,11.611.726,17.657-4.973,7.764-7.317,4.673-18.151,2.78-22.446C426.4,10.527,419.6,8.289,412.956,8.289A15.636,15.636,0,0,0,406.664,9.917ZM662.741,265.375l-.5-6.533-2.756,2.981-2.755-2.981-.512,6.533h-2.259l.874-11.292h.571l4.08,4.413,4.065-4.413h.588L665,265.375Zm-16.618,0v-9.033h-3.763v-2.259h9.787v2.259h-3.765v9.033Z" transform="translate(19214.25 -7140.722)" fill="#ec0127"/><path d="M85.9,276.6a82.948,82.948,0,0,1-57.457-22.865C9.778,236.085-.5,210.486-.5,181.655A118.087,118.087,0,0,1,6.1,141.88a100.227,100.227,0,0,1,7.852-16.922,91.241,91.241,0,0,1,10.528-14.536A85.056,85.056,0,0,1,37.418,98.581a82.184,82.184,0,0,1,15.069-8.837A85.617,85.617,0,0,1,87.924,82.31c35.937,0,63.334,22.947,66.624,55.8a11.345,11.345,0,0,1-10.157,12.418c-.38.038-.765.057-1.145.057a11.336,11.336,0,0,1-11.272-10.214,38.662,38.662,0,0,0-5.349-16.544,35.445,35.445,0,0,0-10.613-10.923,45.511,45.511,0,0,0-13.658-6.051,56.092,56.092,0,0,0-14.431-1.863A63.562,63.562,0,0,0,64.3,109.56,62.224,62.224,0,0,0,43.2,123.547a68.05,68.05,0,0,0-15.18,23.865,95.682,95.682,0,0,0-5.83,34.243c0,22.534,7.757,42.279,21.842,55.6A60.469,60.469,0,0,0,85.9,253.917c1.192,0,2.4-.034,3.6-.1a66.168,66.168,0,0,0,19.912-4.14,58.626,58.626,0,0,0,13.733-7.437,45.942,45.942,0,0,0,10.585-10.393,11.342,11.342,0,0,1,19.059,12.3c-.787,1.222-19.772,29.956-62.023,32.32C89.157,276.556,87.519,276.6,85.9,276.6ZM87.924,83.31A84.624,84.624,0,0,0,52.9,90.656a81.187,81.187,0,0,0-14.885,8.729,84.055,84.055,0,0,0-12.782,11.7,90.236,90.236,0,0,0-10.413,14.376,99.228,99.228,0,0,0-7.773,16.753A117.091,117.091,0,0,0,.5,181.655c0,28.553,10.167,53.894,28.629,71.355A81.948,81.948,0,0,0,85.9,275.6c1.6,0,3.221-.045,4.814-.134a87.052,87.052,0,0,0,27.073-5.8A80.357,80.357,0,0,0,136.7,259.1,75.277,75.277,0,0,0,147.94,248.74a47.172,47.172,0,0,0,4.012-5.136,10.342,10.342,0,1,0-17.38-11.216,30.8,30.8,0,0,1-2.707,3.374,53.812,53.812,0,0,1-8.125,7.282,59.625,59.625,0,0,1-13.967,7.564,67.165,67.165,0,0,1-20.212,4.2c-1.215.069-2.445.1-3.656.1A61.468,61.468,0,0,1,43.341,237.98c-14.287-13.509-22.155-33.513-22.155-56.325a96.673,96.673,0,0,1,5.9-34.6,69.043,69.043,0,0,1,15.4-24.213,63.217,63.217,0,0,1,21.443-14.211,64.561,64.561,0,0,1,24-4.637,57.092,57.092,0,0,1,14.688,1.9,46.51,46.51,0,0,1,13.957,6.186,36.439,36.439,0,0,1,10.909,11.231,39.651,39.651,0,0,1,5.492,16.967,10.336,10.336,0,0,0,10.277,9.314c.347,0,.7-.018,1.045-.052a10.345,10.345,0,0,0,9.261-11.324C150.317,105.887,123.329,83.31,87.924,83.31Zm252.3,182.61a10.537,10.537,0,0,1-9.82-6.72l-20.813-53.5a3.892,3.892,0,0,0-3.626-2.482,3.881,3.881,0,0,0-3.895,4.069v48.1a10.546,10.546,0,0,1-10.532,10.535c-.108,0-.217,0-.326,0a10.234,10.234,0,0,1-7.276-3.389A11.169,11.169,0,0,1,281,254.96v-140.9a10.534,10.534,0,0,1,10.534-10.534h24.342A34.846,34.846,0,0,1,350.752,138.4v19.68a34.793,34.793,0,0,1-4.893,17.8,35.174,35.174,0,0,1-12.818,12.556,8.149,8.149,0,0,0-3.677,4.475,8.552,8.552,0,0,0,.129,5.843l20.4,52.456a11.188,11.188,0,0,1,.146,7.727,10.25,10.25,0,0,1-4.991,5.8A10.5,10.5,0,0,1,340.22,265.92Zm-34.259-63.7a4.892,4.892,0,0,1,4.558,3.12l20.813,53.5a9.529,9.529,0,0,0,13.265,5.015,9.254,9.254,0,0,0,4.5-5.244,10.186,10.186,0,0,0-.134-7.036l-20.4-52.456a9.554,9.554,0,0,1-.144-6.527,9.149,9.149,0,0,1,4.129-5.022A34.172,34.172,0,0,0,345,175.369a33.793,33.793,0,0,0,4.752-17.292V138.4a33.848,33.848,0,0,0-33.877-33.874H291.533A9.545,9.545,0,0,0,282,114.056v140.9a10.171,10.171,0,0,0,2.672,6.887,9.242,9.242,0,0,0,6.569,3.065c.1,0,.2,0,.3,0a9.545,9.545,0,0,0,9.532-9.535v-48.1a4.88,4.88,0,0,1,4.895-5.069Zm-68.554,63.7v0c-.106,0-.214,0-.323,0a10.239,10.239,0,0,1-7.276-3.39,11.167,11.167,0,0,1-2.935-7.561V217.266a7.938,7.938,0,0,0-7.929-7.929H207.189a7.938,7.938,0,0,0-7.929,7.929v38.116a10.548,10.548,0,0,1-10.537,10.535c-.107,0-.215,0-.322,0a10.238,10.238,0,0,1-7.276-3.39,11.167,11.167,0,0,1-2.935-7.561V139.241a36.217,36.217,0,0,1,9.683-24.655,34.186,34.186,0,0,1,23.848-11.04c.447-.017.9-.025,1.345-.025A34.916,34.916,0,0,1,247.942,138.4V255.382A10.547,10.547,0,0,1,237.407,265.917Zm0-1h0a9.546,9.546,0,0,0,9.535-9.535V138.4a33.915,33.915,0,0,0-33.876-33.876c-.433,0-.873.008-1.307.025a33.192,33.192,0,0,0-23.154,10.721,35.217,35.217,0,0,0-9.415,23.974V254.96a10.169,10.169,0,0,0,2.672,6.886,9.246,9.246,0,0,0,6.569,3.066c.1,0,.2,0,.292,0a9.547,9.547,0,0,0,9.537-9.535V217.266a8.939,8.939,0,0,1,8.929-8.929h11.756a8.939,8.939,0,0,1,8.929,8.929V254.96a10.169,10.169,0,0,0,2.672,6.886,9.246,9.246,0,0,0,6.569,3.066C237.213,264.915,237.311,264.917,237.407,264.917Zm385.146,1H572.2a10.533,10.533,0,0,1-10.534-10.534v-140.9a11.167,11.167,0,0,1,2.935-7.562,10.238,10.238,0,0,1,7.276-3.39,10.536,10.536,0,0,1,10.859,10.53V235.714a9.143,9.143,0,0,0,9.132,9.133h30.265a11.167,11.167,0,0,1,7.561,2.934,10.238,10.238,0,0,1,3.39,7.276,10.534,10.534,0,0,1-10.53,10.857ZM572.2,104.521c-.1,0-.2,0-.292,0a9.247,9.247,0,0,0-6.569,3.066,10.169,10.169,0,0,0-2.672,6.886v140.9a9.545,9.545,0,0,0,9.534,9.534h50.353a9.534,9.534,0,0,0,9.531-9.827,9.246,9.246,0,0,0-3.066-6.569,10.17,10.17,0,0,0-6.886-2.672H591.867a10.144,10.144,0,0,1-10.132-10.133V114.056A9.547,9.547,0,0,0,572.2,104.521ZM526.657,265.916h-43.6a10.533,10.533,0,0,1-10.534-10.534V114.056a10.533,10.533,0,0,1,10.534-10.534h43.6a10.533,10.533,0,0,1,10.53,10.857,10.233,10.233,0,0,1-3.389,7.276,11.169,11.169,0,0,1-7.563,2.935H502.728a9.144,9.144,0,0,0-9.134,9.133v28.914a9.144,9.144,0,0,0,9.134,9.133h15.293a10.535,10.535,0,0,1,10.53,10.86,10.235,10.235,0,0,1-3.39,7.275,11.168,11.168,0,0,1-7.561,2.934H502.728a9.144,9.144,0,0,0-9.134,9.133v33.742a9.144,9.144,0,0,0,9.134,9.133h23.507a11.169,11.169,0,0,1,7.563,2.934,10.234,10.234,0,0,1,3.389,7.276,10.533,10.533,0,0,1-10.53,10.857Zm-43.6-161.393a9.545,9.545,0,0,0-9.534,9.534V255.382a9.545,9.545,0,0,0,9.534,9.534h43.6a9.533,9.533,0,0,0,9.531-9.827,9.242,9.242,0,0,0-3.065-6.569,10.171,10.171,0,0,0-6.887-2.672H502.728a10.145,10.145,0,0,1-10.134-10.133V201.973a10.145,10.145,0,0,1,10.134-10.133H517.6a10.17,10.17,0,0,0,6.885-2.671,9.243,9.243,0,0,0,3.066-6.567,9.535,9.535,0,0,0-9.531-9.83H502.728a10.145,10.145,0,0,1-10.134-10.133V133.724a10.145,10.145,0,0,1,10.134-10.133h23.507a10.171,10.171,0,0,0,6.887-2.672,9.242,9.242,0,0,0,3.065-6.569,9.533,9.533,0,0,0-9.531-9.827Zm-74.28,161.393a10.627,10.627,0,0,1-10.336-8.172c-.746-3.146-1.559-6.335-2.345-9.419-.446-1.75-.907-3.559-1.351-5.341C389.408,221.576,366,126.556,365.608,124.977a32.6,32.6,0,0,1-1.324-10.925A28.337,28.337,0,0,1,370.7,98.274c-3.571-3.808-5.406-9.047-5.313-15.187a31.524,31.524,0,0,1,2.793-12.528,28.058,28.058,0,0,1,3.315-5.51,25.435,25.435,0,0,1,4.571-4.579,2.3,2.3,0,0,0,.38-.428l.047-.062q-.046-.088-.092-.179a19.712,19.712,0,0,1-2.316-11.689,19.232,19.232,0,0,1,3.266-8.189,21.478,21.478,0,0,1,3.457-4.513l.024-.031.025-.031.02-.02c4.007-4.043,9.071-7.091,13.5-9.54.386-.213.741-.406,1.085-.593a20.106,20.106,0,0,0,4.968-3.412,3.583,3.583,0,0,0,.779-3.682,3.592,3.592,0,0,0-2.982-2.572,8.99,8.99,0,0,0-1.327-.1,13.947,13.947,0,0,0-2.218.222,18.077,18.077,0,0,1-2.464.259,3.566,3.566,0,0,1-3.359-1.688,4.03,4.03,0,0,1,.306-4.086,19.728,19.728,0,0,1,6.977-6.795A28.337,28.337,0,0,1,408.853-.383c1.047-.078,2.09-.117,3.1-.117a29.508,29.508,0,0,1,17.821,5.406,30.674,30.674,0,0,1,10.009,13.055,26.584,26.584,0,0,1,1.83,10.347A37.285,37.285,0,0,1,441,35.225a37.49,37.49,0,0,1,9.492,12.919,29.059,29.059,0,0,1,1.686,17.526c-.469,2.287-2.336,7.474-4.139,9.775a41.4,41.4,0,0,1,7.124,7.546,28.686,28.686,0,0,1,4.591,9.914,29.7,29.7,0,0,1-2.579,21.143,30.361,30.361,0,0,1-15.963,14.088,65.121,65.121,0,0,1-24.323,4.769c-1.78,0-3.657-.066-5.74-.2-2.314-.151-4.548-.228-6.642-.228-8.161,0-12.328,1.164-13.548,1.576l17.831,75.231,15.059-61.49a10.5,10.5,0,0,1,3.8-5.917,10.621,10.621,0,0,1,8.99-1.966,10.624,10.624,0,0,1,7.885,12.79l-25.4,105.043a10.624,10.624,0,0,1-10.335,8.172Zm-27.171-229.9-.012.015-.022.03-.029.03a20.492,20.492,0,0,0-3.33,4.34l-.021.035a18.267,18.267,0,0,0-3.117,7.784,18.74,18.74,0,0,0,2.217,11.1c.079.157.157.305.234.442l.175.312-.239.266c-.074.083-.146.177-.222.278a3.124,3.124,0,0,1-.566.614c-6.309,4.864-10.155,13.028-10.29,21.839-.064,4.22.813,10.215,5.355,14.812l.34.344-.332.351a24.25,24.25,0,0,0-4.329,6.919,25.507,25.507,0,0,0-2.139,8.57,31.6,31.6,0,0,0,1.286,10.6l.007.025c.237.963,23.785,96.54,29.143,118.016.443,1.78.9,3.588,1.35,5.336.787,3.088,1.6,6.281,2.349,9.435a9.622,9.622,0,0,0,18.726,0l25.4-105.043a9.624,9.624,0,0,0-7.142-11.584,9.621,9.621,0,0,0-8.145,1.781,9.511,9.511,0,0,0-3.44,5.362l-16.047,65.525-18.986-80.106.381-.168c.167-.074,4.218-1.8,14.338-1.8,2.115,0,4.371.077,6.707.23,2.06.135,3.917.2,5.674.2a64.165,64.165,0,0,0,23.965-4.7,29.36,29.36,0,0,0,15.438-13.623,28.694,28.694,0,0,0,2.492-20.435,27.7,27.7,0,0,0-4.435-9.574,41,41,0,0,0-7.336-7.682l-.408-.339.362-.387c1.755-1.876,3.765-7.42,4.231-9.694,2.818-13.768-4.471-23.748-11.082-29.695l-.217-.2.063-.285c.582-2.627,1.519-10.791-1.1-16.942a29.69,29.69,0,0,0-9.679-12.639A28.53,28.53,0,0,0,411.952.5c-.984,0-2,.039-3.025.114A27.353,27.353,0,0,0,396.66,4.2a18.778,18.778,0,0,0-6.644,6.463,3.053,3.053,0,0,0-.285,3.074,2.53,2.53,0,0,0,2.351,1.177h.111a17.256,17.256,0,0,0,2.335-.247,14.728,14.728,0,0,1,2.371-.233,9.982,9.982,0,0,1,1.473.111,4.617,4.617,0,0,1,3.789,3.261,4.585,4.585,0,0,1-1.047,4.71,21.16,21.16,0,0,1-5.177,3.563c-.342.186-.7.378-1.078.589C390.5,29.074,385.525,32.069,381.609,36.013Zm283.93,229.862h-3.262l-.444-5.852-2.344,2.535-2.345-2.538-.459,5.854h-3.262l.952-12.292h1.252l3.861,4.176,3.847-4.176h1.27Zm-2.335-1h1.256l-.774-10.2-4.2,4.555-4.2-4.54-.788,10.182h1.257l.565-7.213,3.164,3.424,3.168-3.426Zm-14.322,1h-3.259v-9.033h-3.763v-3.259h10.787v3.259h-3.765Zm-2.259-1h1.259v-9.033h3.765v-1.259h-8.787v1.259h3.763ZM218.945,189.268H207.189a8.939,8.939,0,0,1-8.929-8.929V138.9a15.611,15.611,0,0,1,3.942-10.386,14.435,14.435,0,0,1,9.852-4.892c.337-.023.678-.034,1.013-.034h0A14.82,14.82,0,0,1,227.874,138.4v41.941A8.939,8.939,0,0,1,218.945,189.268Zm-5.877-64.677c-.313,0-.632.011-.947.032a13.44,13.44,0,0,0-9.172,4.558,14.611,14.611,0,0,0-3.689,9.721v41.436a7.938,7.938,0,0,0,7.929,7.929h11.756a7.938,7.938,0,0,0,7.929-7.929V138.4a13.82,13.82,0,0,0-13.806-13.806Zm102.379,48.028h-6.015a8.188,8.188,0,0,1-8.179-8.179v-32.77a8.188,8.188,0,0,1,8.179-8.179h6.015A15.052,15.052,0,0,1,330.5,138.541v19.026a15.052,15.052,0,0,1-15.051,15.051Zm-6.015-48.128a7.187,7.187,0,0,0-7.179,7.179v32.77a7.187,7.187,0,0,0,7.179,7.179h6.015A14.052,14.052,0,0,0,329.5,157.567V138.541a14.052,14.052,0,0,0-14.051-14.051Zm70.182,3.528a1.22,1.22,0,0,1-1.133-.768,34.409,34.409,0,0,1-1.9-6.1,25.843,25.843,0,0,1,6.681-22.4,24.958,24.958,0,0,1,12.467-7.488,42.01,42.01,0,0,1,10.149-1.046c1.869,0,3.763.069,5.594.136l-.011.5.018-.5c1.825.066,3.712.134,5.576.134a45.161,45.161,0,0,0,8.759-.738,26.819,26.819,0,0,0,11.843-5.093,33.782,33.782,0,0,0,2.843-2.389,1.54,1.54,0,0,1,1.041-.4,1.52,1.52,0,0,1,1.049.417,18.619,18.619,0,0,1,3.542,4.4l.242.466c1.3,2.5,2.919,5.6,3.2,8.457.925,9.319-2.947,17.051-10.622,21.213a37.691,37.691,0,0,1-11.944,3.942,73.992,73.992,0,0,1-12.292.86c-2.164,0-4.3-.05-6.178-.1l-.2,0c-1.954-.046-3.8-.09-5.585-.09a48.289,48.289,0,0,0-7.4.448,39.174,39.174,0,0,0-15.058,5.933A1.224,1.224,0,0,1,379.614,128.018Zm26.268-36.8a41.059,41.059,0,0,0-9.914,1.018A23.962,23.962,0,0,0,384,99.426a25.861,25.861,0,0,0-6.143,11.3,26.133,26.133,0,0,0-.287,10.255,33.445,33.445,0,0,0,1.837,5.892.22.22,0,0,0,.206.141.225.225,0,0,0,.127-.04,40.212,40.212,0,0,1,15.459-6.09,48.54,48.54,0,0,1,7.558-.461c1.8,0,3.648.044,5.609.09l.2,0c1.876.044,4,.095,6.154.095,7.481,0,16.154-.556,23.759-4.68a20.089,20.089,0,0,0,4.839-3.631,18.431,18.431,0,0,0,3.323-4.7,19.905,19.905,0,0,0,1.773-5.6,24.224,24.224,0,0,0,.168-6.3c-.265-2.661-1.834-5.674-3.095-8.094l-.243-.468A17.63,17.63,0,0,0,441.907,83a.524.524,0,0,0-.361-.143.539.539,0,0,0-.364.141,34.657,34.657,0,0,1-2.926,2.458,27.735,27.735,0,0,1-12.246,5.27,46.117,46.117,0,0,1-8.95.756c-1.882,0-3.778-.069-5.612-.135h-.007C409.618,91.283,407.733,91.215,405.882,91.215Zm-26.694-.391h0a1.189,1.189,0,0,1-1.148-.861,26.356,26.356,0,0,1-.738-2.932,27.851,27.851,0,0,1-.281-5.326,21.806,21.806,0,0,1,3.405-10.219,28.923,28.923,0,0,1,16.782-12.573,30.4,30.4,0,0,1,3.319-.657,81.267,81.267,0,0,1,8.8-.594,56.389,56.389,0,0,0,12.655-1.355c8.381-2.215,12.719-6.847,14.2-8.735a1.316,1.316,0,0,1,2.2.184,27.2,27.2,0,0,1,2.946,8.516,18.126,18.126,0,0,1-2.337,12.665A26.865,26.865,0,0,1,433.4,75.52a18.757,18.757,0,0,1-7.579,3.947A51.072,51.072,0,0,1,414.2,80.89c-.911,0-1.793-.031-2.621-.093-1.585-.118-3.157-.178-4.672-.178a42.5,42.5,0,0,0-18.819,3.917,25.675,25.675,0,0,0-8,5.881A1.188,1.188,0,0,1,379.188,90.824Zm58.025-42.761a.313.313,0,0,0-.251.125,23.227,23.227,0,0,1-4.759,4.481,30.246,30.246,0,0,1-9.969,4.606,57.145,57.145,0,0,1-12.88,1.388,80.5,80.5,0,0,0-8.687.584,29.406,29.406,0,0,0-3.208.635,27.9,27.9,0,0,0-16.184,12.133,20.807,20.807,0,0,0-3.256,9.745,26.872,26.872,0,0,0,.273,5.134A24.422,24.422,0,0,0,379,89.68a.194.194,0,0,0,.189.144.182.182,0,0,0,.141-.067,26.691,26.691,0,0,1,8.316-6.12A43.484,43.484,0,0,1,406.9,79.618c1.54,0,3.137.061,4.747.181.8.06,1.66.09,2.547.09A50.025,50.025,0,0,0,425.586,78.5a17.767,17.767,0,0,0,7.175-3.743,25.868,25.868,0,0,0,5.371-6.338,17.153,17.153,0,0,0,2.2-11.986,26.177,26.177,0,0,0-2.836-8.194A.319.319,0,0,0,437.214,48.063Zm-50.571,7.081a1.129,1.129,0,0,1-1.058-.743c-.414-1.137-.986-3.653-.167-7.711a14.172,14.172,0,0,1,2.93-5.9c3.332-4.473,9.719-7.049,13.945-8.754.764-.308,1.485-.6,2.081-.859a18.55,18.55,0,0,0,4.43-2.631,10.088,10.088,0,0,0,2.521-3.022,9.963,9.963,0,0,0,.635-7.1,12.409,12.409,0,0,0-5.527-7.119,1,1,0,0,1,.06-1.853c.166-.061.384-.155.637-.264a14.212,14.212,0,0,1,5.827-1.394,19.745,19.745,0,0,1,9.975,2.349,16.847,16.847,0,0,1,4.415,3.645,23.23,23.23,0,0,1,3.623,5.866,27.363,27.363,0,0,1,2.274,10.287,18.487,18.487,0,0,1-1.066,6.543,15.984,15.984,0,0,1-4.1,6.182,17.974,17.974,0,0,1-8.645,4.38,36.091,36.091,0,0,1-7.571.682c-.693.007-1.292.013-1.749.046a53.775,53.775,0,0,0-15.933,3.371,26.84,26.84,0,0,0-6.831,3.757A1.118,1.118,0,0,1,386.642,55.145Zm20.194-44.758a13.335,13.335,0,0,1,6.1,7.811c1.444,6.32-1.225,10.866-8.16,13.9-.609.266-1.337.559-2.107.87-4.122,1.663-10.352,4.176-13.517,8.424a13.116,13.116,0,0,0-2.751,5.5c-.771,3.818-.251,6.133.127,7.172a.125.125,0,0,0,.2.055,27.852,27.852,0,0,1,7.087-3.906,54.766,54.766,0,0,1,16.23-3.439c.487-.035,1.1-.041,1.81-.048a35.246,35.246,0,0,0,7.367-.659,16.992,16.992,0,0,0,8.173-4.131,15.584,15.584,0,0,0,4.854-11.988,26.322,26.322,0,0,0-2.189-9.893,22.234,22.234,0,0,0-3.464-5.614,15.848,15.848,0,0,0-4.152-3.43,18.779,18.779,0,0,0-9.482-2.219,13.321,13.321,0,0,0-5.431,1.312C407.259,10.217,407.03,10.316,406.837,10.386Z" transform="translate(19214.25 -7140.722)" fill="rgba(0,0,0,0)"/></g></svg>