<svg xmlns="http://www.w3.org/2000/svg" width="865" height="287.286" viewBox="0 0 865 287.286"><g transform="translate(-20081 7188.155)"><path d="M225.86,103.017v0Z" transform="translate(20192.803 -7137.163)" fill="#fff"/><path d="M152.951,104.207v0Z" transform="translate(20156.713 -7136.574)" fill="#fff"/><path d="M470.148,104.17v0Z" transform="translate(20313.73 -7136.592)" fill="#fff"/><path d="M865,143.453c0-2.365-.109-4.7-.266-7.024-3.685-54.7-50.088-97.871-107.013-98.418-.359-.006-.719,0-1.087,0H531.229c-34.593,0-74.512-13.5-98.729-38.011-24.222,24.508-64.139,38.011-98.732,38.011H108.36c-.36,0-.719-.006-1.084,0C50.351,38.558,3.95,81.731.26,136.429c-.154,2.323-.26,4.658-.26,7.024v.38c0,2.356.106,4.694.26,7.018,3.69,54.7,50.091,97.873,107.016,98.417.365.006.724,0,1.084,0H333.767c34.593,0,74.51,13.51,98.732,38.018,24.218-24.508,64.136-38.018,98.729-38.018H756.634c.368,0,.728.006,1.087,0,56.926-.544,103.328-43.717,107.013-98.417.157-2.323.266-4.661.266-7.018v-.38Z" transform="translate(20081 -7188.155)" fill="#00003a"/><path d="M539.387,132.059a5.655,5.655,0,1,1,5.6-5.69,5.527,5.527,0,0,1-5.6,5.69m.043-12.48a6.841,6.841,0,0,0-6.817,6.825v.037A6.791,6.791,0,1,0,546.2,126.4v-.034a6.771,6.771,0,0,0-6.765-6.79m-2.47,3.552h2.9a2.5,2.5,0,0,1,1.851.644,1.99,1.99,0,0,1,.544,1.452v.019a1.97,1.97,0,0,1-1.357,1.969l1.549,2.268h-1.631l-1.362-2.029h-1.1v2.029h-1.392Zm2.809,3.087c.686,0,1.07-.36,1.07-.9V125.3c0-.6-.413-.91-1.1-.91h-1.39v1.825Z" transform="translate(20344.652 -7128.961)" fill="#fff"/><path d="M476.889,160.38h0v0Zm80.674-13.672V85.989q0-9.208-.006-18.419l.006-.463a3.638,3.638,0,0,0-.7-2.8,2.92,2.92,0,0,0-2.219-.762h-.006c-.821.006-1.658,0-2.491,0H541.3l1.746,1.437c.072.054,7.252,6,7.252,24.355v46.993s-59.4-57.85-63.839-62.188l-8.735-8.529a6.651,6.651,0,0,0-3.776-2.068H462.671l1.589,1.387c.051.051,5.065,4.493,5.065,13.09l-.006,60.72q0,9.215.013,18.425l-.007.457a3.669,3.669,0,0,0,.7,2.8,2.888,2.888,0,0,0,2.174.745h.054c.815-.007,1.64-.007,2.455-.007l10.873-.013-1.743-1.392c-.067-.063-7.251-6.011-7.251-24.363v-47s59.4,57.856,63.84,62.194l8.731,8.523a6.657,6.657,0,0,0,3.776,2.054h9.613l-1.138-1.3c-.037-.049-3.851-4.5-3.851-13.162" transform="translate(20310.029 -7156.697)" fill="#fff"/><path d="M477,113.209c0,23.78-14.768,43.125-32.926,43.125s-32.92-19.346-32.92-43.125,14.765-43.136,32.92-43.136S477,89.424,477,113.209M439.809,65.856C414.3,67.883,395.142,88.539,395.257,113.9c.157,12.062,3.367,21.726,9.8,29.537,9.111,11.053,23.1,17.393,38.383,17.393,13.492,0,26.335-5.185,35.243-14.228a50.279,50.279,0,0,0,14.2-35.528c-.1-12.515-4.76-23.916-13.108-32.108-10.335-10.147-23.378-14.445-39.963-13.113" transform="translate(20276.658 -7155.671)" fill="#fff"/><path d="M410.017,118.3l-.042-.045c-5.334-5.533-13.022-9.079-22.413-10.208,15.324-5.875,16.329-18.585,14.706-24.7-4.068-15.333-21.491-16.4-34.076-16.4H340.475l.912.842a17.987,17.987,0,0,1,4.116,11.3v17.4q0,26.116.006,52.233c0,5.549.582,6.381,5.648,8.145a68.121,68.121,0,0,0,36.713,2.479c10.6-2.177,18.036-6.266,23.4-12.851,7.067-8.677,6.563-20.509-1.163-28.058Zm-9.824,19.217c-1.305,9.991-9.443,17.163-19.776,17.453q-1.276.036-2.416.037a48.548,48.548,0,0,1-12.992-1.749,4.806,4.806,0,0,1-3.851-4.792V71.4h7.179c11.573,0,18.619,4.056,19.649,17.511.559,7.347-2.776,17.415-14.671,19.108-.531.054-1.058.1-1.606.157-5.125.58-6.018,3.141-6.052,3.246l-.266.815.855-.049c.013,0,1.467-.082,3.419-.082.369,0,1.772.015,2.133.015,4.43.006,14.8.019,23.276,8.335a21.422,21.422,0,0,1,5.117,17.064" transform="translate(20249.539 -7155.016)" fill="#fff"/><path d="M361.8,142.784c-11.875-23.81-31.516-67.92-34.743-74.416-.54-1.1-1.362-2.752-3.407-2.752-1.809,0-2.561,1.447-3.045,2.4l-41.316,84.172c-1.58,3.461-4.189,6.406-5.911,6.82h6.237c5.86,0,7.949-2.645,9.332-5.509l13.207-27.309,29.633.028c2.346,0,3.388.577,4.481,2.682,0,0,6.327,12.522,10.664,20.525,3.54,6.5,11.069,12.706,26.909,9.211-6.059-1.489-8.377-8.493-12.039-15.855m-57-22.569L319.707,89.6l12.769,30.5Z" transform="translate(20216.324 -7155.674)" fill="#fff"/><path d="M296.58,144.813l0-56.862q0-8.622-.009-17.254l.006-.431a3.424,3.424,0,0,0-.658-2.618,2.758,2.758,0,0,0-2.083-.715c-.776.006-1.556,0-2.331,0H281.352l1.634,1.343c.064.054,6.789,5.626,6.789,22.812V135.1s-55.627-54.178-59.789-58.238l-8.178-7.986a6.215,6.215,0,0,0-3.537-1.941H207.71l1.488,1.3c.051.048,4.745,4.205,4.745,12.265v56.857q0,8.622,0,17.258l0,.431a3.43,3.43,0,0,0,.658,2.615,2.714,2.714,0,0,0,2.033.7h.054c.763-.009,1.534-.009,2.3-.012l10.181,0-1.634-1.305c-.069-.061-6.79-5.626-6.79-22.818V90.211s55.628,54.182,59.79,58.241l8.172,7.988a6.2,6.2,0,0,0,3.54,1.92h9l-1.063-1.215c-.033-.042-3.606-4.214-3.606-12.331" transform="translate(20183.82 -7155.021)" fill="#fff"/><path d="M154,157.626h0v0Zm75.388-12.812V87.952q0-8.622-.006-17.254l.006-.431a3.462,3.462,0,0,0-.659-2.618,2.77,2.77,0,0,0-2.086-.715h0c-.776.006-1.552,0-2.329,0H214.153l1.639,1.343c.064.054,6.786,5.626,6.786,22.812V135.1s-55.631-54.178-59.79-58.238l-8.175-7.986a6.215,6.215,0,0,0-3.537-1.941H140.516l1.486,1.3c.051.048,4.742,4.205,4.742,12.265v56.857q0,8.622.006,17.258l-.006.431a3.427,3.427,0,0,0,.662,2.615,2.7,2.7,0,0,0,2.032.7h.049c.768-.009,1.535-.009,2.307-.012l10.184,0-1.637-1.305c-.067-.061-6.787-5.626-6.787-22.818V90.211s55.627,54.182,59.787,58.241l8.173,7.988a6.192,6.192,0,0,0,3.539,1.92h9l-1.063-1.215c-.039-.042-3.606-4.214-3.606-12.331" transform="translate(20150.559 -7155.021)" fill="#fff"/><path d="M123.644,77.171V158.35l9.173.01c1.893,0,3.761-.009,5.618-.016l.731-.006v-91.4H118.009c2.751,1.311,5.635,3.615,5.635,10.235" transform="translate(20139.416 -7155.021)" fill="#fff"/><path d="M147.135,151.679a2.741,2.741,0,0,0-1.825,1.015l-.248.245c-12.051,11.139-26.855,16.33-43.906,15.408C82.725,167.324,70.019,158.3,63.4,141.508c-6.722-17.027-6.722-34.575.007-52.161,7.04-18.405,22.419-29.4,41.12-29.4a50.56,50.56,0,0,1,13.642,1.924c7.282,2.053,12.721,6.725,14.938,12.818,2.118,5.849,1.055,12.546-2.935,18.366a14.1,14.1,0,0,1-11.678,6.059,13.768,13.768,0,0,1-10.815-5.079,3.14,3.14,0,0,0-2.127-1.247,1.679,1.679,0,0,0-1.108.417l-.4.348.112.519c1.863,8.49,10.038,14.654,19.438,14.654a20.7,20.7,0,0,0,3.875-.368,21.99,21.99,0,0,0,14.853-9.946,23.987,23.987,0,0,0,2.283-19.323c-2.618-9.289-9.312-15.811-19.9-19.384-14.641-4.931-30.18-4.627-45.416.893-18.079,6.553-29.8,19.357-34.846,38.056-3.622,13.413-1.332,28.973-.395,31.922.1.407.181.8.256,1.224a36.155,36.155,0,0,0,1.087,3.9c5.352,15.85,16.158,26.839,32.1,32.671a70.443,70.443,0,0,0,24.324,4.3h0a82.906,82.906,0,0,0,20.491-2.693A52.646,52.646,0,0,0,148.9,154.147l.42-.466-.3-.556c-.535-.973-1.154-1.446-1.882-1.446" transform="translate(20102.023 -7160.324)" fill="#fff"/><path d="M427.88,262.356l-2.017-1.541c-25.979-19.851-62.136-31.7-96.716-31.7H102.813c-49.107-.463-90.052-37.966-93.252-85.376-.155-2.349-.229-4.288-.229-6.1v-.378c0-1.81.073-3.745.226-6.086C12.761,83.746,53.8,46.232,103,45.758l226.147,0c34.583,0,70.74-11.847,96.716-31.691l2.017-1.541,2.015,1.541c25.976,19.845,62.128,31.691,96.714,31.691H752.941c49.11.471,90.057,37.985,93.252,85.406.161,2.371.233,4.306.233,6.088v.378c0,1.778-.072,3.711-.233,6.08-3.195,47.422-44.236,84.936-93.431,85.4l-226.153,0c-34.581,0-70.737,11.851-96.714,31.7ZM329.147,222.47c35.1,0,71.8,11.76,98.732,31.552,26.928-19.793,63.626-31.552,98.729-31.552l226.12,0c45.716-.435,83.87-35.229,86.837-79.209.149-2.217.22-4.007.22-5.632v-.378c0-1.63-.07-3.421-.22-5.639-2.966-43.98-41.028-78.772-86.656-79.209h-226.3c-35.108,0-71.806-11.76-98.729-31.546-26.927,19.787-63.628,31.546-98.732,31.546l-226.114,0c-45.718.44-83.876,35.232-86.843,79.208-.145,2.187-.214,3.983-.214,5.644v.378c0,1.665.069,3.464.215,5.66,2.965,43.965,41.026,78.746,86.654,79.178Z" transform="translate(20085.619 -7181.954)" fill="#70c9cb"/></g></svg>