<?xml version="1.0" encoding="utf-8"?>
<!-- Generator: Adobe Illustrator 24.2.1, SVG Export Plug-In . SVG Version: 6.00 Build 0)  -->
<svg version="1.1" id="Layer_1" xmlns="http://www.w3.org/2000/svg" xmlns:xlink="http://www.w3.org/1999/xlink" x="0px" y="0px"
	 viewBox="0 0 576.15 211.27" style="enable-background:new 0 0 576.15 211.27;" xml:space="preserve">
<style type="text/css">
	.st0{fill-rule:evenodd;clip-rule:evenodd;fill:#117159;}
	.st1{fill-rule:evenodd;clip-rule:evenodd;fill:#78BA4F;}
	.st2{fill-rule:evenodd;clip-rule:evenodd;fill:#FAC53C;}
	.st3{fill-rule:evenodd;clip-rule:evenodd;fill:#B2CF65;}
	.st4{fill-rule:evenodd;clip-rule:evenodd;fill:#F0804C;}
</style>
<path class="st0" d="M272.93,113.7l1.98-13.65l0.51-2.68c0.96-5.05,1.95-10.28,3.01-15.39c1.02-4.91,3.53-15.89,4.17-19.87
	c0.24-1.53,0.5-3.11,1.17-4.6c1.89-4.18,5.95-3.02,8.97-2.37c7.4,1.6,6.55,7.61,6.06,11.72c-0.41,3.34-2.37,11.15-2.92,13.38
	c-0.32,1.3-0.67,2.72-1.06,4.62c-0.26,1.27-0.52,2.53-0.78,3.79c0.27-0.57,0.55-1.15,0.81-1.71c1.89-3.99,3.67-7.76,6.02-11.44
	c2.41-3.78,4.66-6.72,7.07-9.26c3.15-3.3,8.86-7.29,14.61-7.67c2.56-0.17,3.72-0.06,6.49,0.6c2.75,0.66,5.01,2.1,6.71,4.27
	c1.01,1.29,1.85,2.74,2.49,4.33c3.1,7.64,4.06,16.3,2.84,25.72c-0.03,0.21-0.06,0.42-0.09,0.63c0.76-2,1.47-3.82,2-4.85l1-1.95
	c3.8-7.48,7.39-14.55,16.94-24.74c4.91-5.24,9.6-8.22,14.35-9.09c5.7-1.05,16.42,4.5,18.5,9.58c1.03,2.52,1.52,5.3,1.48,8.5
	c-0.04,3.72-0.49,7.7-1.4,12.53c-0.64,3.39-1.44,6.85-2.21,10.2c-0.72,3.13-1.47,6.36-2.08,9.5c-0.41,2.13-1.3,6.18-2.25,10.46
	c-1.69,7.68-3.8,17.23-3.88,19.1c-0.18,4.29,0.18,6.55,2.68,6.99c0.04,0.01,0.07,0.01,0.12,0.01c2.98,0,17.21-16.99,20.53-22.31
	c0.67-1.07,3.95-5.7,5.18-7.51c0.45-2.91,0.97-6.32,1.25-8.19c1.15-9.03,5.47-27.67,9.83-42.41c3.45-11.66,6.4-22.5,8.78-31.21
	c4.36-16,6.35-23.14,7.87-24.74c1.54-1.63,5.36-1.95,8.68-0.72c4.24,1.57,6.55,5.1,6.33,9.69c-0.02,0.45-0.46,2.69-3.57,15.93
	l-0.11,0.49c-1.87,7.97-11.8,43.91-16.27,60.09c3.58-6.64,9.5-16.61,17.03-23.52c2.79-2.57,6.12-4.46,9.88-5.63
	c4.84-1.51,9.47-1.45,13.75,0.19c5.78,2.22,9.63,6.33,11.44,12.22c0.77,2.49,1.24,5.13,1.45,8.06c0.31,4.41-0.18,8.7-0.65,11.94
	c-0.91,6.36-2.44,12.71-4.55,18.88c-8.38,24.55-25.53,46.35-49.27,46.35c-10.9,0-14.33-5.02-15-7.02c-0.16-0.49-0.27-1.01-0.32-1.54
	c-0.11-1.21,0.49-2.45,1.56-3.23c1.08-0.78,2.39-0.94,3.43-0.41c3.62,1.85,8.91,0.3,13.42-2.35c13.57-7.98,22.63-25.5,26.19-35.09
	c2.19-5.88,4.89-15.07,6.16-20.93c0.14-0.63,0.33-1.48,0.56-2.46c0.98-4.23,2.63-11.32,2.41-14.04c-0.11-1.36-1.49-2.06-2.66-2.03
	c-0.53,0.02-1.54,0.24-2.07,0.47c-1.96,0.87-11.81,6.88-23.4,23.52c-4.98,7.15-9.88,14.69-12.03,21.44
	c-0.98,3.08-3.92,13.13-4.67,17.21c-0.69,3.74-2.52,5.52-5.85,7.68c-2.19,1.41-4.69,1.65-6.52,0.61
	c-3.83-2.18-3.82-10.35-3.79-13.91c-5,7.25-17.66,24.47-27.13,26.58c-2.23,0.5-7.14,0.36-11.45-3.29c-3.51-2.97-7.67-9.25-7.59-22.3
	c0.05-7.22,1.44-13.92,3.06-21.68l0.59-2.84c0.7-3.38,1.76-7.6,2.79-11.67c0.98-3.89,2-7.92,2.67-11.14
	c0.29-1.38,0.48-2.84,0.68-4.26l0.08-0.62c0.14-1.03,0.15-5.26-1.37-6.47c-0.52-0.41-1.19-0.42-2.08-0.03
	c-0.67,0.32-6.04,5.07-11.57,13.59c-4.19,6.46-7.52,12.17-11.19,20.67c-3.48,8.07-5.1,12.52-7.14,18.15
	c-0.71,1.96-1.47,4.06-2.38,6.49c-0.84,2.24-1.64,4.96-2.42,7.59c-0.59,2.01-1.16,3.9-1.73,5.59c-0.17,0.51-0.33,1.02-0.5,1.54
	c-0.17,0.54-0.35,1.08-0.53,1.63c-0.17,0.49-0.38,0.99-0.62,1.5c-1.61,3.32-6.25,5.58-9.63,5.78c-2.45,0.14-6.85,0.09-8.72-1.91
	c-0.78-0.83-1.29-1.82-1.54-2.94c-0.15-0.68-0.31-1.48-0.39-2.32c-0.05-0.54,0-1.16,0.15-1.77c0.47-1.93,1.09-4.54,1.73-7.27
	c0.86-3.64,1.77-7.5,2.46-10.25c1.29-5.17,2.48-10.47,3.62-15.6c0.67-2.98,1.33-5.96,2.03-8.94c5.12-22.06,2.94-30.08,2.12-30.88
	c-0.96-0.95-1.57-0.74-3.01-0.12c-7.32,3.15-13.63,17.36-17.39,25.85l-0.92,2.07c-3.36,7.48-8.58,20.47-12.67,32.63
	c-0.44,1.32-1.02,2.94-1.61,4.6c-0.72,2.02-1.46,4.1-2,5.73c-0.92,2.81-2.89,6.2-5.92,6.74c-1.56,0.28-3.32,0.37-4.67,0.01
	l-0.2-0.05c-3.2-0.84-5.37-2.32-6.43-4.4c-1.23-2.41-0.76-5.03-0.35-7.34c0.1-0.53,0.19-1.06,0.27-1.58c0.09-0.67,0.19-1.33,0.28-2
	c-2.02,3.1-4.17,6.29-6.03,8.88c-1.33,1.86-8.32,11.14-14.75,11.14c-1.99-0.01-3.99-0.37-5.98-1.07c-3.9-1.39-7.1-4.11-9.53-8.11
	c-1.71-2.82-2.92-6.12-3.69-10.1c-0.7-3.63-0.48-10.88-0.08-15.99c0.05-0.59,0.34-2.52,0.66-4.57c0.05-0.32,0.1-0.67,0.16-1.03
	c-4.63,7.77-14.12,23.64-23.63,29.08c-2.63,1.51-5.19,2.36-7.81,2.6c-2.87,0.26-5.38-0.25-7.65-1.58c-1.76-1.03-4.04-4.08-5.14-5.54
	c-1.57-2.1-2.78-4.59-3.68-7.63c-0.71-2.4-1.11-4.96-1.22-7.82c-0.17-4.59,0.26-9.31,1.33-14.41c1.25-5.99,3.08-11.94,5.43-17.69
	c3.08-7.53,6.58-13.94,10.71-19.61c2.21-3.04,4.35-5.78,6.99-7.7c4.13-3.01,8.76-5.29,13.6-6.04c1.57-0.24,9.86-1.32,17.93,2.08
	c4.13,1.74,7.18,5.54,9.14,9.75c0.64,1.37,1.15,2.99,0.62,4.53c-0.59,1.71-2.36,2.84-4.03,2.97c-1.67,0.13-3.24-0.55-4.61-1.42
	c-1.37-0.88-2.61-1.96-4.02-2.76c-5.11-2.88-11.6-1.51-16,3.2c-3.64,3.9-6.77,8.4-9.31,13.37c-5.12,10.04-8.81,20.39-10.94,30.76
	c-0.68,3.33-1.01,6.24-1.06,9.43l0.03,0.48c0.03,0.55,0.08,1.28,0.19,2c0.14,0.86,0.35,1.66,0.62,2.39
	c0.45,1.17,1.12,1.51,2.28,1.14c0.52-0.17,1.04-0.49,1.61-1c2.3-2.02,4.29-4.04,6.1-6.17c3.01-3.54,5.76-7.47,8.11-10.87
	c2.78-4.02,5.39-8.17,7.98-12.31c2.93-4.68,5.91-10.54,9.7-15.19c1.75-2.15,3.68-4.04,5.86-5.45c3.65-2.35,8.7-2.69,11.28,0.41
	c2.44,2.93,1.89,7.59,1.21,11.69c-2.08,12.51-4.69,25.16-4.3,37.65l0.01,0.59c0.1,6.38,1.09,7.99,1.89,8.21
	c2.49,0.7,4.89-1.67,6.11-3.14c6.81-8.23,10.77-13.4,16.23-22.29C272.9,113.74,272.91,113.72,272.93,113.7z M173.87,52.64
	c4.02,2.7,3.87,7.18,3.38,11.55c-0.84,7.43-14.23,79.41-31.61,118.4c-4.17,9.35-15.97,28.67-39.6,28.67
	c-12.75,0-23.07-7.68-25.32-11.54c-2.61-4.47-2.65-7.81-0.17-9.06c2.57-1.29,5.46,1.1,8.01,2.37c3.56,1.78,7.77,2.68,12.39,3.13
	c14.74,1.43,26.72-13.9,38.5-57.49c2.32-8.56,5.34-21,7.24-28.88c2.6-10.79,5.88-23.58,9.39-36.61c0.32-1.2,0.63-2.7,0.95-4.29
	c1.29-6.31,2.89-14.15,7.83-16.92C167.56,50.47,171.01,50.73,173.87,52.64z M188.32,17.97c0.36,3.12-0.12,5.84-1.42,8.08
	c-0.94,1.62-2.11,2.89-3.48,3.77c-2.57,1.66-5.43,2.47-9.01,2.57c-0.13,0-0.25,0.01-0.38,0.01c-1.75,0-3.63-0.38-5.72-1.15
	c-1.33-0.49-3.03-1.77-3.51-5.06c-0.72-4.91,0.1-8.93,2.42-11.95c1.44-1.87,3.26-3.19,5.55-4.04c1.85-0.68,3.74-0.99,5.6-0.9
	c2.19,0.1,4.44,0.9,6.67,2.37C186.87,12.89,187.98,15.01,188.32,17.97z M540.01,92.69l5.94-12.57c1.41-2.82,5.28-7.58,11.4-7.07
	c6.16,0.52,6.22,5.29,6.23,7.01c0.05,7.21-8.36,23.5-10.45,34.22c-0.83,4.29-5.91,21.03,3.06,25.21c2.84,1.32,5.76,1.13,8.6-0.63
	c1.31-0.81,2.46-1.87,3.75-2.71c1.29-0.84,2.96-1.54,4.43-1.41c2.12,0.19,3.6,1.57,3.06,4.21c-0.54,2.64-3.33,5.53-5.43,7.31
	c-6.24,5.31-14.93,7.7-22.36,5.6c-5.22-1.48-9.56-5.45-11.64-10.21c-2.26-5.19-2.06-10.44-0.89-16.71
	c-5.96,12.4-12.3,20.75-18.1,23.72c-5.41,2.77-11.29,3.3-16.13,1.46c-6.65-2.53-10.91-9.24-11.41-17.94c-0.3-5.2,0.03-10.57,1-16.45
	c1.15-6.99,2.4-11.67,4.71-18.49c5.16-14.55,12.87-27.94,27.67-34.56c8.27-3.7,17.55-4.69,26-2.78c1.51,0.34,3.05,0.8,4.16,1.84
	c1.11,1.04,1.67,2.81,0.93,4.26c-0.67,1.32-2.15,2-3.5,2.56c-4.16,1.75-16.45,3.02-27.82,16.39c-2.61,3.06-4.56,6.61-6.38,10.17
	c-4.14,8.12-15.76,33.55-9.08,46.79c0.44,0.86,1.18,1.27,2.09,1.33c3.69,0.23,10.73-12.25,13.56-17.59l0.96-1.81
	C527.24,118.53,536.24,101.12,540.01,92.69L540.01,92.69z"/>
<path class="st1" d="M78,159.38c0.13-0.65,0.38-1.3,1.15-1.3c0.9,0,1.28,0.78,1.28,1.43c0.51,4.17,4.48,8.99,10.11,11.08
	c2.82,1.04,6.91,0.52,8.45,0.13c1.66-0.52,2.82,0.26,3.2,1.17c0.26,0.65,0.38,1.82-1.15,3.26c-0.9,0.78-5.5,4.17-12.67,1.56
	C80.69,173.71,76.85,164.98,78,159.38"/>
<path class="st2" d="M70.19,96.3c3.2-1.95,13.06-8.34,23.94-8.34c11.52,0,19.33,4.04,19.2,9.9c-0.13,6.12-12.03,9.64-21.89,9.77
	c-25.6,0.26-46.72-7.95-55.3-40.27c-0.77-2.87-1.28-3.78-2.82-3.78c-1.92,0-2.43,2.35-2.43,4.82c-0.51,26.06,22.78,54.6,57.86,54.21
	c31.62-0.39,36.1-15.9,36.22-22.68c0.13-6.78-6.14-18.77-29.95-18.77c-13.05,0-25.73,7.43-28.67,11.99
	C64.43,96.04,67.25,98.13,70.19,96.3"/>
<path class="st3" d="M83.25,136.96c-0.39,0.52-0.64,0.78-0.64,1.43c0,0.91,0.89,1.56,1.79,1.43c0.26,0,0.51-0.13,0.77-0.26
	c3.97-3,7.04-3.52,12.29-3c4.61,0.52,7.55,3.39,6.91,5.99c-0.77,2.87-5.63,5.21-11.52,4.95c-9.86-0.39-24.96-3-29.83-24.5
	c-0.38-1.69-0.89-2.48-1.79-2.48c-1.15,0.13-1.28,1.17-1.41,3.91c-0.25,13.81,9.99,30.37,29.57,32.58
	c13.31,1.57,20.61-5.73,21.63-12.12c0.64-4.43-2.17-11.6-12.29-12.9C89.52,130.97,84.4,135.79,83.25,136.96"/>
<path class="st4" d="M5.94,1.69C5.43,0.78,4.4,0,3.25,0c-1.66,0-3.58,1.43-3.2,3.13c4.74,23.2,26.37,67.76,84.99,68.81
	c43.65,0.78,56.96-22.02,57.34-35.71c0.38-11.08-5.5-33.36-45.95-34.01C65.97,1.69,44.85,20.07,39.22,26.32
	c-0.64,0.65-1.02,1.82-1.02,2.74c0,2.22,1.92,3.78,3.84,3.52c1.15-0.13,2.05-0.78,2.94-1.43C62.51,17.07,81.2,13.94,94.13,14.2
	c15.36,0.26,31.1,7.56,30.72,18.9c-0.38,11.34-15.23,19.03-36.22,18.64C46.51,50.95,25.14,36.49,5.94,1.69"/>
<path class="st0" d="M118.96,174.89l-0.38-4.69l-1.92,4.69h-0.64l-1.92-4.56l-0.38,4.69h-0.9l0.64-6.26h0.9l2.18,4.95l2.05-4.95h0.9
	l0.51,6.26h-1.02L118.96,174.89z M112.18,168.63v0.78H110v5.47h-0.9v-5.47h-2.17v-0.78H112.18z"/>
</svg>
