<svg xmlns="http://www.w3.org/2000/svg" width="765.547" height="271.485" viewBox="0 0 765.547 271.485"><g transform="translate(-20990 7316.999)"><path d="M2.527,248.384c-3.3-5.624-3.359-9.842-.217-11.4,3.263-1.62,6.923,1.38,10.153,2.982,4.52,2.243,9.851,3.381,15.708,3.943C46.859,245.7,62.05,226.4,77,171.5c2.935-10.782,6.764-26.452,9.174-36.374,3.3-13.593,7.452-29.7,11.9-46.111.409-1.509.8-3.4,1.208-5.4,1.63-7.941,3.663-17.827,9.933-21.313a10.993,10.993,0,0,1,11.43.827c5.094,3.4,4.911,9.05,4.289,14.549-1.062,9.36-18.051,100.014-40.083,149.122-5.282,11.776-20.251,36.11-50.216,36.11C18.474,262.915,5.38,253.239,2.527,248.384Zm428.722-61.477a8.406,8.406,0,0,1-.4-1.935,4.61,4.61,0,0,1,1.98-4.067,4.2,4.2,0,0,1,4.345-.512c4.6,2.324,11.3.374,17.02-2.965,17.2-10.051,28.7-32.12,33.217-44.2a227.431,227.431,0,0,0,7.813-26.363c.171-.8.423-1.86.712-3.1,1.248-5.33,3.34-14.255,3.058-17.679-.143-1.718-1.886-2.6-3.369-2.553a8.915,8.915,0,0,0-2.622.6c-2.487,1.1-14.975,8.662-29.674,29.621-6.314,9-12.531,18.5-15.253,27-1.241,3.874-4.967,16.539-5.924,21.673-.878,4.71-3.189,6.953-7.42,9.675-2.78,1.781-5.946,2.079-8.269.761-4.861-2.748-4.846-13.031-4.8-17.52-6.341,9.131-22.392,30.815-34.409,33.48a17.886,17.886,0,0,1-14.526-4.145c-4.451-3.739-9.731-11.648-9.625-28.093.06-9.085,1.831-17.53,3.878-27.309l.746-3.573c.885-4.264,2.233-9.571,3.535-14.7,1.247-4.905,2.534-9.978,3.387-14.034.364-1.737.614-3.58.857-5.362l.106-.787c.174-1.294.192-6.628-1.737-8.149a2.458,2.458,0,0,0-2.641-.032c-.854.4-7.661,6.38-14.674,17.116a161.558,161.558,0,0,0-14.194,26.038c-4.416,10.167-6.463,15.765-9.055,22.854-.9,2.47-1.868,5.111-3.021,8.18-1.06,2.822-2.082,6.25-3.069,9.562-.754,2.526-1.466,4.91-2.191,7.041-.218.644-.423,1.29-.629,1.933-.218.683-.437,1.364-.669,2.05a17.711,17.711,0,0,1-.792,1.888c-2.041,4.175-7.928,7.029-12.212,7.28-3.107.179-8.691.113-11.055-2.406a7.766,7.766,0,0,1-1.952-3.706,24.06,24.06,0,0,1-.5-2.925,6.893,6.893,0,0,1,.2-2.234c.6-2.431,1.377-5.715,2.2-9.154,1.087-4.585,2.243-9.443,3.116-12.917,1.639-6.513,3.141-13.188,4.593-19.642.845-3.751,1.69-7.508,2.569-11.267,6.488-27.779,3.723-37.882,2.692-38.893-1.212-1.2-1.995-.932-3.813-.154-9.289,3.966-17.283,21.858-22.058,32.549l-1.168,2.6c-4.259,9.42-10.881,25.78-16.072,41.1-.564,1.664-1.3,3.706-2.046,5.791-.915,2.549-1.855,5.161-2.531,7.214-1.163,3.536-3.658,7.811-7.506,8.485a14.82,14.82,0,0,1-5.924.014l-.249-.067c-4.063-1.058-6.8-2.923-8.155-5.544-1.564-3.036-.968-6.334-.439-9.242.122-.672.243-1.334.336-1.988q.177-1.256.35-2.516c-2.564,3.905-5.287,7.925-7.643,11.185-1.691,2.346-10.544,14.025-18.71,14.025a22.748,22.748,0,0,1-19.677-11.568A37.9,37.9,0,0,1,192.6,162.6c-.89-4.565-.613-13.7-.1-20.136.057-.737.433-3.176.832-5.761.065-.407.131-.846.2-1.29-5.866,9.79-17.9,29.774-29.96,36.625a24.226,24.226,0,0,1-9.906,3.275,15.851,15.851,0,0,1-9.7-1.985c-2.229-1.3-5.126-5.132-6.518-6.976a29.749,29.749,0,0,1-4.662-9.611,39.262,39.262,0,0,1-1.546-9.846,73.5,73.5,0,0,1,1.681-18.146,128.339,128.339,0,0,1,6.883-22.276,115.268,115.268,0,0,1,13.579-24.7c2.809-3.828,5.519-7.279,8.86-9.7a40.341,40.341,0,0,1,17.241-7.6c1.99-.307,12.509-1.659,22.741,2.625,5.236,2.193,9.1,6.974,11.585,12.275.808,1.729,1.453,3.762.785,5.7a5.979,5.979,0,0,1-5.114,3.738,9.62,9.62,0,0,1-5.845-1.792c-1.735-1.1-3.305-2.469-5.1-3.473-6.485-3.629-14.7-1.906-20.287,4.031a73.681,73.681,0,0,0-11.8,16.833,153.025,153.025,0,0,0-13.873,38.737,61.206,61.206,0,0,0-1.346,11.883l.042.605c.043.685.1,1.613.244,2.522a15.134,15.134,0,0,0,.787,3.008c.567,1.476,1.424,1.907,2.89,1.432a5.962,5.962,0,0,0,2.044-1.258,75.227,75.227,0,0,0,7.735-7.764c3.815-4.462,7.31-9.405,10.286-13.686,3.522-5.064,6.83-10.29,10.121-15.508,3.722-5.894,7.491-13.273,12.3-19.129a32.221,32.221,0,0,1,7.427-6.86c4.634-2.956,11.029-3.392,14.307.519,3.1,3.692,2.394,9.56,1.529,14.717-2.638,15.752-5.951,31.7-5.455,47.426l.016.74c.133,8.031,1.38,10.059,2.4,10.346,3.159.883,6.2-2.1,7.746-3.953,8.633-10.36,13.654-16.872,20.581-28.074l.052-.084,2.509-17.2.644-3.378c1.212-6.366,2.467-12.951,3.817-19.39,1.289-6.179,4.477-20.006,5.282-25.026a22.251,22.251,0,0,1,1.477-5.793c2.392-5.268,7.545-3.8,11.37-2.98,9.389,2.017,8.312,9.584,7.681,14.756-.515,4.213-3,14.049-3.695,16.853-.4,1.633-.846,3.422-1.339,5.822q-.489,2.391-.992,4.778.521-1.085,1.032-2.16a127.347,127.347,0,0,1,7.629-14.4,74.985,74.985,0,0,1,8.971-11.661c4-4.156,11.239-9.179,18.524-9.657a22.478,22.478,0,0,1,8.232.758,15,15,0,0,1,8.513,5.377,22.589,22.589,0,0,1,3.159,5.457c3.933,9.627,5.144,20.524,3.6,32.391-.037.265-.075.528-.114.792.965-2.517,1.865-4.81,2.532-6.1l1.263-2.459c4.821-9.421,9.377-18.319,21.487-31.165,6.227-6.6,12.178-10.35,18.193-11.451,7.224-1.321,20.821,5.67,23.462,12.064a26.79,26.79,0,0,1,1.876,10.711,89.822,89.822,0,0,1-1.773,15.777c-.812,4.269-1.827,8.633-2.806,12.854-.915,3.938-1.86,8.012-2.634,11.969-.52,2.681-1.653,7.783-2.851,13.18-2.147,9.668-4.818,21.7-4.921,24.059-.233,5.4.23,8.244,3.4,8.8a1.035,1.035,0,0,0,.146.01c3.774,0,21.827-21.4,26.034-28.1.846-1.344,5.009-7.175,6.577-9.461.572-3.668,1.235-7.956,1.582-10.322,1.462-11.376,6.941-34.846,12.471-53.412,4.376-14.683,8.123-28.335,11.134-39.306,5.531-20.154,8.056-29.152,9.979-31.167,1.958-2.052,6.8-2.448,11-.9a11.706,11.706,0,0,1,8.025,12.2c-.028.566-.588,3.394-4.524,20.059l-.144.616C469.709,43.855,457.12,89.13,451.444,109.5c4.537-8.364,12.045-20.914,21.6-29.625a32.785,32.785,0,0,1,12.525-7.1A26.212,26.212,0,0,1,503,73.015,23.113,23.113,0,0,1,517.514,88.4a44.629,44.629,0,0,1,1.837,10.157,70.964,70.964,0,0,1-.825,15.035,130.438,130.438,0,0,1-5.768,23.773c-10.633,30.916-32.374,58.379-62.485,58.379C436.443,195.749,432.1,189.43,431.249,186.908Zm164.166,1.211a23.34,23.34,0,0,1-14.762-12.862c-2.87-6.538-2.612-13.146-1.123-21.049-7.553,15.617-15.6,26.132-22.952,29.874-6.858,3.49-14.313,4.158-20.458,1.835-8.428-3.188-13.834-11.634-14.464-22.59a93.1,93.1,0,0,1,1.266-20.718,130.711,130.711,0,0,1,5.975-23.286c6.544-18.332,16.318-35.2,35.095-43.524a53.384,53.384,0,0,1,32.977-3.5,11.118,11.118,0,0,1,5.271,2.318,4.633,4.633,0,0,1,1.178,5.359c-.851,1.657-2.722,2.514-4.437,3.231-5.278,2.207-20.868,3.805-35.277,20.635a65.108,65.108,0,0,0-8.085,12.806c-5.254,10.226-19.99,42.26-11.52,58.931a2.994,2.994,0,0,0,2.652,1.67c4.679.295,13.61-15.431,17.193-22.154l1.22-2.28c3.612-6.688,15.019-28.623,19.807-39.233l7.539-15.824c1.792-3.546,6.7-9.55,14.453-8.9,7.806.651,7.892,6.664,7.908,8.833.06,9.082-10.608,29.6-13.249,43.1-1.058,5.409-7.491,26.491,3.878,31.747a11.019,11.019,0,0,0,10.9-.792c1.662-1.019,3.118-2.355,4.757-3.415a9.571,9.571,0,0,1,5.615-1.772c2.69.24,4.563,1.979,3.882,5.309s-4.219,6.962-6.883,9.21a33.6,33.6,0,0,1-21.234,8.007A26.352,26.352,0,0,1,595.415,188.118Zm63.263-6.086-.783-8.305-3.511,8.18H653.13l-3.542-8.15-.784,8.275h-1.6l1.065-11.065h1.662l3.825,8.653,3.762-8.653h1.723l1,11.065Zm-17.806,0v-9.653h-4.013v-1.412h9.656v1.412H642.5v9.653ZM113.584,36.182c-1.692-.621-3.839-2.232-4.446-6.371-.913-6.186.122-11.252,3.075-15.05a15.287,15.287,0,0,1,7.032-5.083,18.2,18.2,0,0,1,7.1-1.138,16.787,16.787,0,0,1,8.453,2.987c2.34,1.539,3.744,4.21,4.179,7.941a16.063,16.063,0,0,1-1.8,10.175,13.828,13.828,0,0,1-4.419,4.747,21.315,21.315,0,0,1-11.425,3.234c-.162,0-.325.006-.488.006A21.1,21.1,0,0,1,113.584,36.182Z" transform="translate(21094.754 -7308.93)" fill="#fff"/><path d="M34.637,263.415a45.558,45.558,0,0,1-21.282-5.5,42.15,42.15,0,0,1-7.2-4.826A19.163,19.163,0,0,1,2.1,248.638c-2.231-3.8-3.047-7.023-2.36-9.331a4.4,4.4,0,0,1,2.352-2.774,4.994,4.994,0,0,1,2.241-.518c2.134,0,4.263,1.214,6.321,2.388.708.4,1.377.785,2.035,1.112,4.039,2,9.119,3.278,15.533,3.893.769.074,1.538.111,2.287.111a21.568,21.568,0,0,0,6.325-.937,23.613,23.613,0,0,0,6.087-2.915,33.744,33.744,0,0,0,5.905-5.067,55.479,55.479,0,0,0,5.752-7.391c7.715-11.683,14.892-29.948,21.941-55.838,2.8-10.29,6.372-24.837,9.17-36.36,3.4-13.994,7.517-29.943,11.907-46.124.417-1.538.815-3.485,1.2-5.368,1.651-8.043,3.706-18.051,10.18-21.65a10.522,10.522,0,0,1,5.1-1.3,12.354,12.354,0,0,1,6.847,2.145,10.225,10.225,0,0,1,4.5,6.8,27.01,27.01,0,0,1,.008,8.219c-.261,2.3-1.5,9.659-3.619,20.384-1.744,8.846-4.646,22.85-8.569,39.331-4.054,17.033-8.261,32.777-12.5,46.794a366.385,366.385,0,0,1-15.43,42.761,75.49,75.49,0,0,1-5.9,10.682,66.252,66.252,0,0,1-10.068,11.951,52.266,52.266,0,0,1-14.761,9.745A49.921,49.921,0,0,1,34.637,263.415Zm-30.309-26.4a3.948,3.948,0,0,0-1.8.414,3.435,3.435,0,0,0-1.838,2.164C.1,241.6.9,244.63,2.958,248.131c1.314,2.236,5.184,5.854,10.869,8.9a44.555,44.555,0,0,0,20.81,5.386,48.929,48.929,0,0,0,19.547-3.945,51.27,51.27,0,0,0,14.478-9.56A70.721,70.721,0,0,0,84.4,226.6c6.414-14.3,16.457-41.41,27.875-89.377,7.154-30.056,11.661-55.136,12.167-59.6a26.15,26.15,0,0,0,.006-7.908,9.27,9.27,0,0,0-4.076-6.17,11.358,11.358,0,0,0-6.293-1.977,9.52,9.52,0,0,0-4.617,1.171c-6.072,3.375-8.076,13.135-9.686,20.976-.388,1.9-.789,3.86-1.215,5.429-4.388,16.172-8.5,32.112-11.9,46.1-2.8,11.529-6.373,26.085-9.177,36.387-7.078,25.994-14.3,44.353-22.072,56.126a56.481,56.481,0,0,1-5.858,7.525,34.743,34.743,0,0,1-6.082,5.217,24.612,24.612,0,0,1-6.345,3.037,22.567,22.567,0,0,1-6.618.981c-.781,0-1.583-.039-2.383-.116A60.264,60.264,0,0,1,19.7,243.05a35.166,35.166,0,0,1-7.457-2.64c-.684-.339-1.4-.746-2.086-1.139C8.209,238.162,6.2,237.015,4.328,237.015Zm445.944-40.766c-6.085,0-11.014-1.2-14.649-3.555a11.519,11.519,0,0,1-4.847-5.625,8.918,8.918,0,0,1-.425-2.05A5.286,5.286,0,0,1,435.5,179.5a4.148,4.148,0,0,1,1.9.447,9.769,9.769,0,0,0,4.443.961c3.481,0,7.777-1.389,12.1-3.912a55.756,55.756,0,0,0,11.707-9.365,86.021,86.021,0,0,0,9.5-11.822,113.684,113.684,0,0,0,11.8-22.752,226.852,226.852,0,0,0,7.793-26.295c.143-.662.34-1.507.568-2.486l.15-.645c1.24-5.3,3.316-14.16,3.041-17.5a2.592,2.592,0,0,0-2.764-2.1h-.091a8.5,8.5,0,0,0-2.434.553c-1.4.619-5.1,2.848-10.13,7.282a105.82,105.82,0,0,0-8.886,8.9,145.589,145.589,0,0,0-10.452,13.269c-6.291,8.97-12.485,18.434-15.186,26.866-1.345,4.2-4.978,16.617-5.909,21.612a12.394,12.394,0,0,1-2.557,5.808,20.563,20.563,0,0,1-5.084,4.2,9.89,9.89,0,0,1-5.3,1.656,7.063,7.063,0,0,1-3.485-.881c-2.228-1.259-3.737-4.1-4.487-8.457a49.105,49.105,0,0,1-.576-7.9,186.869,186.869,0,0,1-14.2,17.9c-7.706,8.425-14.3,13.292-19.593,14.466a13.243,13.243,0,0,1-2.8.274,18.959,18.959,0,0,1-12.159-4.525c-4.532-3.807-9.911-11.838-9.8-28.479.06-9.123,1.831-17.578,3.88-27.368l.754-3.613c.884-4.262,2.229-9.558,3.529-14.679l.011-.044c1.178-4.634,2.514-9.886,3.383-14.014.354-1.685.6-3.484.837-5.223l.12-.89a17.846,17.846,0,0,0-.08-3.859c-.244-1.915-.766-3.275-1.471-3.83a1.351,1.351,0,0,0-.863-.285,3.261,3.261,0,0,0-1.261.316,32.962,32.962,0,0,0-4.868,4.567,93.088,93.088,0,0,0-9.594,12.368,161.146,161.146,0,0,0-14.154,25.964c-4.409,10.151-6.454,15.742-9.042,22.82l0,.006c-.944,2.585-1.885,5.157-3.023,8.185-1.051,2.8-2.068,6.208-3.051,9.5l-.012.04c-.753,2.524-1.465,4.908-2.192,7.043-.185.545-.364,1.1-.536,1.644l-.09.281c-.221.689-.438,1.365-.671,2.057l0,.006a18.218,18.218,0,0,1-.814,1.942,13.1,13.1,0,0,1-5.47,5.329,17.407,17.407,0,0,1-7.162,2.232c-.706.041-1.406.061-2.083.061a23.5,23.5,0,0,1-5.06-.485,7.535,7.535,0,0,1-6.381-6.081,24.436,24.436,0,0,1-.509-2.985,7.4,7.4,0,0,1,.209-2.4c.547-2.226,1.248-5.172,1.99-8.291l.2-.859c1.042-4.395,2.228-9.381,3.118-12.924,1.635-6.5,3.136-13.166,4.586-19.611l.042-.186c.819-3.637,1.666-7.4,2.532-11.1,3.446-14.756,4.16-24.116,4.152-29.37-.009-6.448-1.046-8.78-1.324-9.052a1.744,1.744,0,0,0-1.282-.675,5.819,5.819,0,0,0-1.984.623,19.308,19.308,0,0,0-6.516,5.128,56.083,56.083,0,0,0-5.972,8.421,183.582,183.582,0,0,0-9.309,18.744l-1.168,2.6c-4.259,9.42-10.874,25.765-16.054,41.052-.558,1.646-1.268,3.624-2.02,5.719l-.112.312c-.88,2.451-1.79,4.985-2.444,6.97a18.323,18.323,0,0,1-2.828,5.468,8.335,8.335,0,0,1-5.067,3.353,19.867,19.867,0,0,1-3.4.315,10.9,10.9,0,0,1-2.741-.31l-.251-.067c-4.2-1.094-7.053-3.045-8.47-5.8-1.645-3.194-1.03-6.576-.486-9.56l.022-.119c.116-.64.226-1.244.311-1.849l.046-.327c-2.392,3.605-4.6,6.813-6.438,9.358-1.713,2.376-10.687,14.232-19.116,14.232a23.247,23.247,0,0,1-20.1-11.807,38.391,38.391,0,0,1-4.744-12.89c-.9-4.618-.623-13.806-.112-20.271.049-.642.323-2.468.647-4.57-2.787,4.62-6.808,11.118-11.372,17.271a98.651,98.651,0,0,1-8.4,10.026,42.343,42.343,0,0,1-9.055,7.322,24.719,24.719,0,0,1-10.107,3.338c-.627.057-1.249.086-1.849.086a15.8,15.8,0,0,1-8.147-2.136c-2.315-1.346-5.252-5.234-6.663-7.1l0-.005a30.227,30.227,0,0,1-4.742-9.77,39.742,39.742,0,0,1-1.567-9.969,74,74,0,0,1,1.691-18.269,128.858,128.858,0,0,1,6.91-22.363,115.76,115.76,0,0,1,13.638-24.8c2.624-3.576,5.478-7.279,8.969-9.807,5.836-4.226,11.71-6.814,17.459-7.692a44.077,44.077,0,0,1,6.483-.45,43.578,43.578,0,0,1,16.527,3.109,19.841,19.841,0,0,1,7,5.1,29.881,29.881,0,0,1,4.842,7.426c.716,1.532,1.579,3.829.8,6.077a5.834,5.834,0,0,1-2.227,2.863,6.836,6.836,0,0,1-3.321,1.211c-.19.015-.384.023-.576.023a10.413,10.413,0,0,1-5.577-1.891c-.745-.474-1.466-1-2.163-1.507a29.642,29.642,0,0,0-2.913-1.952,14.29,14.29,0,0,0-7.062-1.829,16.112,16.112,0,0,0-6.668,1.475,18.765,18.765,0,0,0-5.948,4.291,73.173,73.173,0,0,0-11.724,16.719,152.532,152.532,0,0,0-13.829,38.61,60.71,60.71,0,0,0-1.336,11.768l.043.62c.042.663.1,1.571.237,2.442a14.628,14.628,0,0,0,.76,2.908c.439,1.141.958,1.3,1.408,1.3a2.867,2.867,0,0,0,.861-.16,5.475,5.475,0,0,0,1.869-1.158,74.73,74.73,0,0,0,7.685-7.713c3.8-4.44,7.285-9.372,10.256-13.646,3.637-5.23,7.075-10.68,10.109-15.489,1.111-1.76,2.212-3.628,3.378-5.605a106.727,106.727,0,0,1,8.956-13.574,32.443,32.443,0,0,1,7.544-6.964,14.9,14.9,0,0,1,7.884-2.395,10.313,10.313,0,0,1,3.893.716,8.043,8.043,0,0,1,3.183,2.3c3.21,3.828,2.529,9.813,1.639,15.121-.383,2.29-.788,4.623-1.179,6.879-2.307,13.3-4.692,27.055-4.269,40.449l.016.745c.144,8.673,1.592,9.751,2.033,9.875a3.844,3.844,0,0,0,1.034.141c2.543,0,4.971-2.464,6.193-3.932,8.619-10.344,13.63-16.843,20.537-28.013l2.5-17.12.644-3.378c1.211-6.357,2.463-12.93,3.818-19.4.423-2.026,1.057-4.909,1.728-7.96,1.411-6.413,3.01-13.681,3.55-17.042a22.583,22.583,0,0,1,1.515-5.92,6.5,6.5,0,0,1,6.451-4.1,23.085,23.085,0,0,1,4.845.7l.634.138a11.947,11.947,0,0,1,5.417,2.491,8.415,8.415,0,0,1,2.514,3.915c.883,2.838.488,6.065.171,8.658l-.029.241c-.491,4.01-2.731,13-3.574,16.385l-.132.529c-.394,1.59-.84,3.394-1.335,5.8l-.148.724a115.4,115.4,0,0,1,6.907-12.879A75.482,75.482,0,0,1,290.29,79.9c4.058-4.221,11.429-9.322,18.853-9.81.947-.062,1.694-.09,2.35-.09a23.666,23.666,0,0,1,6.031.861,15.483,15.483,0,0,1,8.79,5.554,23.1,23.1,0,0,1,3.23,5.578,62.483,62.483,0,0,1,3.976,29.591c.414-1.01.8-1.9,1.139-2.552l1.263-2.458c4.836-9.451,9.4-18.378,21.568-31.28,6.3-6.685,12.345-10.479,18.466-11.6a11.266,11.266,0,0,1,2.015-.17c3.64,0,8.467,1.487,12.912,3.978,4.592,2.574,7.9,5.693,9.087,8.557a27.277,27.277,0,0,1,1.914,10.907,90.3,90.3,0,0,1-1.782,15.865c-.8,4.226-1.805,8.543-2.774,12.718l-.036.156c-.864,3.718-1.844,7.932-2.631,11.952-.517,2.664-1.637,7.711-2.823,13.054l-.044.2c-2.136,9.622-4.8,21.6-4.9,23.91a17.959,17.959,0,0,0,.4,6.037,3.031,3.031,0,0,0,2.578,2.248.578.578,0,0,0,.068,0c.341,0,1.484-.323,4.729-3.315,2.119-1.954,4.8-4.739,7.752-8.053a162.756,162.756,0,0,0,13.129-16.5c.523-.83,2.249-3.285,3.919-5.66,1.022-1.454,1.99-2.83,2.6-3.725.518-3.321,1.2-7.741,1.563-10.2,1.467-11.41,6.952-34.9,12.488-53.489,4.375-14.68,8.121-28.329,11.131-39.3,5.7-20.764,8.091-29.274,10.1-31.38,1.212-1.27,3.437-2,6.106-2A15.914,15.914,0,0,1,468.9.475a12.6,12.6,0,0,1,6.382,4.872,12.789,12.789,0,0,1,1.97,7.826c-.031.622-.6,3.493-4.536,20.15l-.144.615c-1.624,6.871-8.185,30.958-19.508,71.625,2.3-4.033,4.57-7.667,6.891-11.03A87.979,87.979,0,0,1,472.707,79.5a33.281,33.281,0,0,1,12.715-7.2,29.752,29.752,0,0,1,8.787-1.393,25.135,25.135,0,0,1,8.972,1.641,23.59,23.59,0,0,1,14.811,15.708,45.106,45.106,0,0,1,1.858,10.27,71.418,71.418,0,0,1-.829,15.142,130.928,130.928,0,0,1-5.79,23.864,127.046,127.046,0,0,1-10.055,22.252,93.537,93.537,0,0,1-14,18.718,62.7,62.7,0,0,1-17.718,12.923A49.041,49.041,0,0,1,450.272,196.249ZM435.5,180.5a4.289,4.289,0,0,0-4.152,4.427,7.916,7.916,0,0,0,.377,1.82,10.5,10.5,0,0,0,4.444,5.107,19.337,19.337,0,0,0,5.548,2.384,33.366,33.366,0,0,0,8.557,1.01,48.049,48.049,0,0,0,20.757-4.726,61.7,61.7,0,0,0,17.433-12.72,92.539,92.539,0,0,0,13.848-18.519,126.038,126.038,0,0,0,9.975-22.077,129.921,129.921,0,0,0,5.746-23.682,70.482,70.482,0,0,0,.821-14.928,44.12,44.12,0,0,0-1.815-10.045,22.634,22.634,0,0,0-14.212-15.07,24.138,24.138,0,0,0-8.616-1.576,28.755,28.755,0,0,0-8.491,1.348,32.289,32.289,0,0,0-12.336,6.987A86.985,86.985,0,0,0,460.773,95.1a159.287,159.287,0,0,0-8.89,14.637l-2.108,3.887,1.187-4.259c12.016-43.118,18.958-68.572,20.632-75.655l.144-.615c3.081-13.047,4.473-19.206,4.511-19.97A11.812,11.812,0,0,0,474.443,5.9a11.621,11.621,0,0,0-5.892-4.483A14.9,14.9,0,0,0,463.463.5c-2.361,0-4.373.631-5.382,1.689-1.833,1.921-4.493,11.4-9.858,30.954-3.011,10.972-6.759,24.626-11.137,39.316-5.523,18.542-10.994,41.969-12.454,53.333v.009c-.365,2.488-1.062,6.989-1.583,10.326l-.017.112-.064.094c-.614.9-1.615,2.32-2.676,3.828-1.662,2.364-3.381,4.809-3.89,5.617a163.786,163.786,0,0,1-13.229,16.628c-2.974,3.338-5.678,6.147-7.821,8.123-3.48,3.209-4.753,3.58-5.407,3.58a1.512,1.512,0,0,1-.218-.015l-.014,0a4.03,4.03,0,0,1-3.362-2.92c-.455-1.373-.585-3.226-.448-6.4.1-2.4,2.773-14.424,4.918-24.084l.045-.2c1.184-5.336,2.3-10.376,2.817-13.028.79-4.038,1.772-8.261,2.638-11.987l.036-.156c.967-4.165,1.966-8.472,2.766-12.679a89.322,89.322,0,0,0,1.764-15.69,26.3,26.3,0,0,0-1.838-10.514c-1.083-2.621-4.317-5.637-8.652-8.066-4.3-2.411-8.946-3.851-12.423-3.851a10.264,10.264,0,0,0-1.835.154c-5.9,1.081-11.766,4.778-17.919,11.3-12.066,12.8-16.6,21.664-21.406,31.05l-1.263,2.46c-.681,1.321-1.613,3.715-2.51,6.055l-1.644,4.288.682-4.541c.042-.28.079-.537.113-.786,1.528-11.778.326-22.591-3.572-32.134a22.1,22.1,0,0,0-3.089-5.336,14.506,14.506,0,0,0-8.236-5.2,22.819,22.819,0,0,0-5.8-.834c-.634,0-1.36.028-2.285.088-7.137.469-14.263,5.414-18.2,9.505A74.519,74.519,0,0,0,282.1,92.178a126.775,126.775,0,0,0-7.6,14.347c-.317.665-.676,1.419-1.032,2.161l-1.789,3.724.849-4.044c.367-1.745.691-3.307.991-4.775.5-2.428.947-4.242,1.344-5.842l.132-.53c.839-3.368,3.069-12.315,3.552-16.264l.03-.241c.306-2.5.686-5.607-.133-8.24-.939-3.015-3.289-4.888-7.186-5.725l-.639-.139a22.338,22.338,0,0,0-4.63-.68,5.519,5.519,0,0,0-5.54,3.517,21.818,21.818,0,0,0-1.439,5.665c-.544,3.39-2.147,10.673-3.561,17.1-.671,3.049-1.3,5.929-1.726,7.95-1.354,6.461-2.605,13.029-3.815,19.381l-.643,3.369L246.745,140.2l-.106.172c-6.94,11.224-11.971,17.749-20.622,28.131-1.628,1.958-4.158,4.293-6.961,4.293a4.846,4.846,0,0,1-1.3-.178c-1.747-.492-2.65-4.031-2.763-10.819l-.016-.737c-.425-13.491,1.969-27.3,4.284-40.646.391-2.255.8-4.587,1.178-6.874.854-5.089,1.518-10.811-1.419-14.314a8.009,8.009,0,0,0-6.309-2.657,14.087,14.087,0,0,0-7.346,2.237,31.471,31.471,0,0,0-7.309,6.755,105.994,105.994,0,0,0-8.867,13.448c-1.169,1.984-2.274,3.858-3.393,5.631-3.039,4.818-6.483,10.278-10.133,15.526-2.985,4.294-6.49,9.25-10.317,13.725a75.708,75.708,0,0,1-7.786,7.816,6.424,6.424,0,0,1-2.217,1.356,3.8,3.8,0,0,1-1.171.209c-1.075,0-1.841-.634-2.342-1.937a15.63,15.63,0,0,1-.814-3.108c-.146-.918-.2-1.854-.247-2.537l0-.033-.044-.623v-.021a61.663,61.663,0,0,1,1.357-11.976,153.527,153.527,0,0,1,13.918-38.864,74.177,74.177,0,0,1,11.885-16.947,19.762,19.762,0,0,1,6.265-4.517,17.105,17.105,0,0,1,7.08-1.564,15.278,15.278,0,0,1,7.551,1.956,30.4,30.4,0,0,1,3.014,2.016c.685.5,1.392,1.015,2.111,1.471a9.462,9.462,0,0,0,5.04,1.735c.166,0,.333-.007.5-.02a5.822,5.822,0,0,0,2.827-1.033,4.843,4.843,0,0,0,1.854-2.369c.656-1.9-.122-3.953-.765-5.327a28.887,28.887,0,0,0-4.677-7.179,18.852,18.852,0,0,0-6.648-4.847,41.841,41.841,0,0,0-16.14-3.031,43.036,43.036,0,0,0-6.332.439c-5.591.854-11.318,3.382-17.024,7.513-3.375,2.444-6.173,6.077-8.75,9.589a114.78,114.78,0,0,0-13.52,24.592,127.855,127.855,0,0,0-6.856,22.189,73.013,73.013,0,0,0-1.67,18.024,38.752,38.752,0,0,0,1.526,9.722,29.251,29.251,0,0,0,4.581,9.453l0,.005c1.372,1.816,4.227,5.6,6.367,6.84a14.827,14.827,0,0,0,7.645,2c.57,0,1.161-.028,1.758-.082a23.743,23.743,0,0,0,9.7-3.211c5.141-2.921,10.911-8.665,17.149-17.074,5.312-7.16,9.893-14.806,12.63-19.374l1.311-2.188-.435,2.828c-.052.339-.1.671-.153.985-.379,2.454-.771,4.994-.827,5.721-.507,6.4-.785,15.483.1,20a37.416,37.416,0,0,0,4.615,12.559,22.248,22.248,0,0,0,19.252,11.329,12.176,12.176,0,0,0,5.883-1.8,29.916,29.916,0,0,0,5.557-4.2,57.123,57.123,0,0,0,6.863-7.819c2.14-2.961,4.779-6.822,7.631-11.167l1.215-1.851-.3,2.193c-.122.891-.237,1.714-.351,2.518-.088.625-.2,1.267-.317,1.888l-.022.12c-.515,2.828-1.1,6.032.392,8.924,1.282,2.489,3.918,4.268,7.836,5.289l.252.067a9.9,9.9,0,0,0,2.485.277,19.137,19.137,0,0,0,3.223-.3,7.376,7.376,0,0,0,4.452-2.985,17.352,17.352,0,0,0,2.665-5.164c.658-2,1.57-4.539,2.453-7l.112-.312c.75-2.09,1.459-4.064,2.014-5.7,5.191-15.318,11.822-31.7,16.09-41.142l1.167-2.6c4.8-10.756,12.845-28.76,22.318-32.8a6.386,6.386,0,0,1,2.377-.7,2.754,2.754,0,0,1,1.983.962c.8.785,1.614,4.109,1.622,9.763a92.193,92.193,0,0,1-.867,11.9c-.7,5.316-1.81,11.272-3.311,17.7-.865,3.7-1.711,7.461-2.53,11.1l-.042.185c-1.452,6.452-2.954,13.123-4.592,19.636-.889,3.536-2.074,8.519-3.115,12.911l-.2.859c-.743,3.121-1.445,6.069-1.992,8.3a6.394,6.394,0,0,0-.184,2.07,23.58,23.58,0,0,0,.489,2.862,7.27,7.27,0,0,0,1.828,3.471c1.792,1.909,5.685,2.309,8.637,2.309.658,0,1.339-.02,2.025-.06a16.378,16.378,0,0,0,6.732-2.106,12.106,12.106,0,0,0,5.06-4.9,17.223,17.223,0,0,0,.769-1.834c.23-.683.446-1.353.664-2.037l.09-.28c.174-.544.354-1.107.542-1.661.721-2.118,1.43-4.493,2.181-7.008l.012-.04c.988-3.313,2.01-6.739,3.073-9.571,1.136-3.024,2.077-5.593,3.02-8.176l0-.007c2.594-7.094,4.643-12.7,9.064-22.875A162.038,162.038,0,0,1,356.14,99.482a94.1,94.1,0,0,1,9.7-12.5,30.509,30.509,0,0,1,5.182-4.794l.011,0a4.181,4.181,0,0,1,1.668-.4,2.347,2.347,0,0,1,1.48.5c.939.741,1.56,2.251,1.845,4.49a18.637,18.637,0,0,1,.079,4.12l-.121.892c-.24,1.757-.488,3.573-.849,5.293-.873,4.149-2.211,9.412-3.392,14.055l-.011.043c-1.3,5.111-2.639,10.4-3.519,14.637l-.754,3.614c-2.039,9.737-3.8,18.147-3.859,27.169-.105,16.252,5.079,24.037,9.447,27.706a17.956,17.956,0,0,0,11.515,4.291,12.059,12.059,0,0,0,2.581-.251c2.721-.6,5.869-2.279,9.356-4.979a79.887,79.887,0,0,0,9.716-9.186,189.708,189.708,0,0,0,15.034-19.113l.927-1.335-.016,1.625a53.977,53.977,0,0,0,.554,9.323c.7,4.042,2.04,6.652,3.994,7.757a5.981,5.981,0,0,0,2.992.751,8.894,8.894,0,0,0,4.761-1.5,19.68,19.68,0,0,0,4.85-3.987,11.438,11.438,0,0,0,2.349-5.359c.939-5.036,4.589-17.517,5.94-21.734,2.742-8.559,8.983-18.1,15.32-27.135a146.59,146.59,0,0,1,10.525-13.361,106.822,106.822,0,0,1,8.971-8.984c5.119-4.515,8.937-6.8,10.386-7.446a9.3,9.3,0,0,1,2.811-.638l.119,0a3.576,3.576,0,0,1,3.761,3.013c.288,3.5-1.81,12.458-3.064,17.811l-.15.644c-.227.974-.424,1.815-.565,2.47a228.05,228.05,0,0,1-7.833,26.433,114.738,114.738,0,0,1-11.9,22.961,87.012,87.012,0,0,1-9.609,11.96,56.749,56.749,0,0,1-11.92,9.531c-4.471,2.611-8.947,4.049-12.6,4.049a10.756,10.756,0,0,1-4.9-1.07A3.159,3.159,0,0,0,435.5,180.5Zm167.04,9.072v-1a33.039,33.039,0,0,0,20.91-7.889c1.777-1.5,5.989-5.374,6.716-8.929a4,4,0,0,0-.494-3.295,3.955,3.955,0,0,0-2.942-1.416c-.136-.012-.277-.018-.42-.018a9.582,9.582,0,0,0-4.879,1.712c-.749.484-1.479,1.043-2.184,1.583a30.836,30.836,0,0,1-2.583,1.839,12.267,12.267,0,0,1-6.447,1.95,11.7,11.7,0,0,1-4.927-1.131c-4.538-2.1-6.871-6.838-6.935-14.09-.052-5.89,1.4-12.161,2.265-15.909.212-.918.4-1.711.511-2.3,1.213-6.2,4.088-13.816,6.868-21.183,3.293-8.726,6.4-16.968,6.372-21.814-.015-2.112-.055-7.722-7.449-8.338-.37-.031-.743-.047-1.108-.047a12.979,12.979,0,0,0-8.355,3.1,17.9,17.9,0,0,0-4.5,5.569l-7.535,15.817c-4.872,10.8-16.3,32.739-19.82,39.259l-1.219,2.278a152.592,152.592,0,0,1-8.124,13.624c-4.164,6.064-7.283,8.937-9.541,8.793a3.5,3.5,0,0,1-3.067-1.943c-2-3.94-2.865-9-2.566-15.054a76.806,76.806,0,0,1,3.145-17.193,161.136,161.136,0,0,1,10.942-27.139,66.048,66.048,0,0,1,8.15-12.9,62.667,62.667,0,0,1,8.9-8.57,56.812,56.812,0,0,1,8.619-5.578A71.06,71.06,0,0,1,594.854,84a41.19,41.19,0,0,0,3.933-1.264c1.775-.742,3.43-1.529,4.185-3a4.154,4.154,0,0,0-1.074-4.764,10.686,10.686,0,0,0-5.04-2.2A49.705,49.705,0,0,0,586.013,71.6a54.238,54.238,0,0,0-21.819,4.654,52.967,52.967,0,0,0-12.368,7.664,58.8,58.8,0,0,0-9.568,10.188c-4.96,6.675-9.176,14.977-12.89,25.382a130.181,130.181,0,0,0-5.953,23.2,92.619,92.619,0,0,0-1.26,20.608c.619,10.755,5.906,19.036,14.142,22.151a21.28,21.28,0,0,0,7.553,1.331,27.808,27.808,0,0,0,12.5-3.144c3.585-1.825,7.363-5.305,11.23-10.343a112.358,112.358,0,0,0,11.5-19.3l1.638-3.386-.7,3.7a50.526,50.526,0,0,0-1.064,10.928,26.019,26.019,0,0,0,2.154,9.827,22.675,22.675,0,0,0,5.758,7.808,22.4,22.4,0,0,0,8.681,4.774,25.861,25.861,0,0,0,6.987.936v1a26.863,26.863,0,0,1-7.258-.973,23.407,23.407,0,0,1-9.072-4.986,23.681,23.681,0,0,1-6.012-8.156,27,27,0,0,1-2.238-10.2,44.533,44.533,0,0,1,.521-7.81A106.957,106.957,0,0,1,568.374,173.9c-3.958,5.157-7.851,8.731-11.569,10.625a28.811,28.811,0,0,1-12.954,3.253,22.276,22.276,0,0,1-7.907-1.4c-8.617-3.259-14.144-11.868-14.787-23.029a93.6,93.6,0,0,1,1.272-20.829,131.066,131.066,0,0,1,5.995-23.366l0-.007c3.748-10.5,8.01-18.888,13.029-25.644a59.8,59.8,0,0,1,9.732-10.361,53.966,53.966,0,0,1,12.6-7.809,55.246,55.246,0,0,1,22.225-4.74,50.706,50.706,0,0,1,11.064,1.2,11.543,11.543,0,0,1,5.5,2.44,5.635,5.635,0,0,1,1.611,2.73,4.554,4.554,0,0,1-.33,3.222c-.908,1.768-2.814,2.681-4.689,3.464a41.018,41.018,0,0,1-4.04,1.3,70.188,70.188,0,0,0-13.827,5.285,55.8,55.8,0,0,0-8.466,5.479,61.667,61.667,0,0,0-8.756,8.433,65.172,65.172,0,0,0-8.021,12.71,160.09,160.09,0,0,0-10.871,26.959,75.816,75.816,0,0,0-3.107,16.965c-.291,5.873.537,10.769,2.459,14.552a2.482,2.482,0,0,0,2.238,1.4c.032,0,.066,0,.1,0,.658,0,1.852-.412,3.8-2.377a44.567,44.567,0,0,0,4.755-5.987,151.606,151.606,0,0,0,8.066-13.529l1.22-2.28c3.518-6.514,14.931-28.432,19.792-39.2l0-.009,7.544-15.834a18.933,18.933,0,0,1,4.762-5.9,13.955,13.955,0,0,1,8.987-3.325c.393,0,.794.017,1.191.05,3.517.293,5.964,1.675,7.274,4.108a11.065,11.065,0,0,1,1.092,5.219c.033,5.032-3.109,13.359-6.436,22.174-2.766,7.328-5.625,14.9-6.822,21.022-.118.6-.3,1.4-.518,2.332-.857,3.7-2.29,9.9-2.239,15.675a20.8,20.8,0,0,0,1.4,7.937,9.8,9.8,0,0,0,4.95,5.254,10.7,10.7,0,0,0,4.507,1.038,11.285,11.285,0,0,0,5.924-1.8,30.039,30.039,0,0,0,2.5-1.78c.721-.552,1.466-1.122,2.248-1.628a10.752,10.752,0,0,1,5.422-1.873c.172,0,.344.007.509.022a4.916,4.916,0,0,1,3.655,1.815,5.011,5.011,0,0,1,.672,4.092,12.761,12.761,0,0,1-2.8,5.226,33.2,33.2,0,0,1-4.25,4.266A34.053,34.053,0,0,1,602.538,189.573Zm58.255-7.04h-2.57l-.642-6.806-2.867,6.681H652.8l-2.9-6.671-.644,6.8h-2.6l1.161-12.065h2.442l3.5,7.907,3.438-7.907H659.7Zm-1.66-1h.565l-.913-10.065h-.939l-4.086,9.4-4.154-9.4h-.882l-.969,10.065h.594l.924-9.754,4.184,9.629h.6l4.154-9.679Zm-16.129,1h-2.632v-9.653h-4.013v-2.412h10.656v2.412H643Zm-1.632-1H642v-9.653h4.011v-.412h-8.656v.412h4.013ZM120.843,38.131a21.573,21.573,0,0,1-7.43-1.479c-1.821-.668-4.126-2.384-4.769-6.768-.934-6.328.134-11.519,3.175-15.43a15.773,15.773,0,0,1,7.255-5.245,18.892,18.892,0,0,1,6.5-1.186c.265,0,.534.006.8.018a17.27,17.27,0,0,1,8.7,3.068c2.467,1.622,3.948,4.415,4.4,8.3a16.548,16.548,0,0,1-1.87,10.486,14.317,14.317,0,0,1-4.58,4.915,21.793,21.793,0,0,1-11.682,3.313C121.179,38.127,121.013,38.131,120.843,38.131Zm4.729-29.108a17.9,17.9,0,0,0-6.154,1.125,14.8,14.8,0,0,0-6.809,4.92c-2.867,3.687-3.868,8.623-2.975,14.671.572,3.9,2.558,5.4,4.123,5.974a20.6,20.6,0,0,0,7.086,1.418c.16,0,.321,0,.478-.006a20.834,20.834,0,0,0,11.165-3.155,13.329,13.329,0,0,0,4.258-4.579,15.576,15.576,0,0,0,1.74-9.865c-.418-3.578-1.749-6.129-3.958-7.581a16.291,16.291,0,0,0-8.2-2.9C126.075,9.029,125.822,9.023,125.571,9.023Z" transform="translate(21094.754 -7308.93)" fill="rgba(0,0,0,0)"/><path d="M61.073,122.983c.163-.752.484-1.6,1.557-1.6a1.813,1.813,0,0,1,1.72,1.785c.6,5.321,5.816,11.515,13.158,14.118,3.675,1.3,8.994.722,11.019.151,2.093-.591,3.627.338,4.119,1.416.389.852.557,2.338-1.477,4.1-1.161,1-7.161,5.309-16.471,1.95-10.149-3.662-15.16-14.809-13.626-21.923" transform="translate(21030.355 -7236.432)" fill="#73bf4c"/><path d="M75.184,90.509c4.2-2.579,17.037-10.66,31.167-10.66,14.929,0,25.1,5.2,24.971,12.7-.136,7.771-15.573,12.357-28.518,12.5-33.235.361-60.675-10.192-71.825-51.386-.925-3.6-1.679-4.836-3.582-4.838-2.416,0-3.083,2.941-3.154,6.159C23.512,88.2,53.9,124.664,99.5,124.17c41.146-.446,47-20.253,47.153-28.982S138.7,71.24,107.663,71.24c-17.05,0-33.4,9.512-37.342,15.266-2.557,3.733.977,6.387,4.863,4" transform="translate(21006.082 -7284.596)" fill="#f9c43b"/><path d="M77.2,113.547a2.42,2.42,0,0,0-.905,1.765,1.854,1.854,0,0,0,2.274,1.774,2.261,2.261,0,0,0,.962-.394c5.2-3.848,9.111-4.505,15.95-3.772,6.061.649,9.8,4.391,8.948,7.653-.968,3.693-7.244,6.58-14.925,6.282-12.8-.494-32.376-3.863-38.778-31.247-.517-2.238-1.163-3.189-2.271-3.095-1.476.126-1.714,1.436-1.777,5.066-.306,17.576,12.931,38.757,38.492,41.6,17.323,1.927,26.814-7.289,28.087-15.509.868-5.613-2.873-14.84-16-16.416-11.939-1.432-18.557,4.657-20.058,6.292" transform="translate(21020.982 -7255.6)" fill="#b0d360"/><path d="M7.748,2.186A4.1,4.1,0,0,0,4.254,0C2.013-.039-.4,1.8.055,3.986c6.111,29.631,34.218,86.559,110.53,87.89,56.783.992,73.988-28.064,74.6-45.581.494-14.122-7.121-42.532-59.666-43.448C85.847,2.154,58.54,25.7,51.125,33.629A5.675,5.675,0,0,0,49.8,37.172a4.519,4.519,0,0,0,5.033,4.464,7.634,7.634,0,0,0,3.81-1.9,100.345,100.345,0,0,1,63.927-21.7c19.933.348,40.355,9.683,39.85,24.184-.5,14.43-19.75,24.3-47.094,23.826C60.452,65.088,32.659,46.547,7.748,2.186" transform="translate(20990 -7317)" fill="#f47f4a"/></g></svg>