<svg xmlns="http://www.w3.org/2000/svg" xmlns:xlink="http://www.w3.org/1999/xlink" width="865" height="306.614" viewBox="0 0 865 306.614"><defs><clipPath id="a"><rect width="865" height="306.614" fill="none"/></clipPath></defs><path d="M857.535,239.546l.021,27.668H830.325ZM7.641,239.319l27.446,27.895H7.641Zm0-212.869H34.413L7.641,53.7Zm0,202.752V63.815L44.932,26.451H819.766l37.627,37.688.133,165.3-37.72,37.776H45.6ZM830.286,26.451h27.079l.02,27.561ZM0,19.3l.2,255.1,864.8-.027V19.3Z" transform="translate(0 6.462)" fill="#ea5329"/><rect width="865" height="7.154" transform="translate(0 0)" fill="#ea5329"/><path d="M.152,224.316v7.18l864.8-.027v-7.154Z" transform="translate(0.051 75.118)" fill="#ea5329"/><path d="M283.674,135.235H258.641V69.429H267.8V54.885H235.518V69.429h7.5v65.659h.016v14.545h55.719V124.84H283.674Z" transform="translate(78.869 18.38)" fill="#38635a"/><path d="M287.883,69.429h8.187v65.66h-8.187v14.545h32V135.089H311.7V69.429h8.185V54.884h-32Z" transform="translate(96.405 18.379)" fill="#38635a"/><g clip-path="url(#a)"><path d="M351.543,93.678c-9.128-3.352-16.734-6.7-16.734-14.242,0-6.7,5.254-11.309,14.244-11.309,5.671,0,9.543,1.257,12.033,2.793a8.292,8.292,0,0,0-.969,4.328c0,4.608,3.6,9.356,9.958,9.356,5.257,0,9.267-3.771,9.267-10.332,0-11.03-13.139-19.827-30.15-19.827-18.395,0-30.151,11.449-30.151,26.109,0,17.034,11.894,22.481,28.768,28.624,9.128,3.209,16.734,6.839,16.734,14.379,0,7.959-6.362,12.429-16.32,12.429-5.946,0-11.063-1.539-14.383-3.911a11.861,11.861,0,0,0,1.245-5.584c0-4.469-3.874-9.076-9.958-9.076-5.671,0-9.543,4.328-9.543,10.889,0,11.172,14.522,21.362,32.5,21.362,18.671,0,32.086-9.911,32.086-27.364,0-17.034-12.309-22.758-28.629-28.624" transform="translate(105.682 18.232)" fill="#38635a"/><path d="M367.525,77.978h14.8V69H399.2v66.092h-8.462v14.545h32.554V135.089h-8.463V69H431.7v8.981h14.8V54.884H367.525Z" transform="translate(123.075 18.379)" fill="#38635a"/><path d="M480.96,135.235H453.853V108.452H478.5V94.626H453.853V69.285h26.97v6.678H495.76V54.885H430.73V69.429h7.494v65.659H430.73v14.545H495.9V128.556H480.96Z" transform="translate(144.241 18.38)" fill="#38635a"/><path d="M535.088,109.315a27.419,27.419,0,0,0,17.151-25.774c0-19.294-14.937-28.657-35.82-28.657H484.029V69.429h7.5v65.66h-7.5v14.545h31.585V135.089H507.15V113.777c1.937.147,4.565.147,7.469.147,1.8,0,3.6-.147,5.533-.29l18.256,36h18.144V135.089h-7.5ZM516,100.1c-4.978,0-7.191-.143-8.852-.287V69.429h8.436c12.587,0,20.469,4.754,20.469,14.689S527.758,100.1,516,100.1" transform="translate(162.09 18.379)" fill="#38635a"/><path d="M591.63,163.38a27.063,27.063,0,0,0,13.588-3.148,17.649,17.649,0,0,0,9.4-12.677c1.307-6.142-.837-11.1-5.325-15.214-4.5-4.127-9.887-6.776-15.456-9.1-6.261-2.61-12.66-4.887-18.843-7.68a44.448,44.448,0,0,1-10.065-6.062,23.749,23.749,0,0,1-8.173-13.194,34.518,34.518,0,0,1,.016-17.821A28.592,28.592,0,0,1,567.6,62.849a40.123,40.123,0,0,1,18.818-7.409,53.211,53.211,0,0,1,26.2,3.114A32.832,32.832,0,0,1,624.3,65.973a20.752,20.752,0,0,1,6.042,11.121,15.6,15.6,0,0,1-1.175,9.329,9.289,9.289,0,0,1-9.037,5.705A11.141,11.141,0,0,1,609.5,77.048a14.6,14.6,0,0,1,.694-1.643c.274-.53.081-.758-.383-1.044a30.161,30.161,0,0,0-11.779-3.9,31.455,31.455,0,0,0-15.706,1.718c-10.332,3.886-12.381,16.487-6.645,23.411a26.808,26.808,0,0,0,7.94,6.269c4.577,2.52,9.518,4.206,14.327,6.2,5.33,2.2,10.83,4.013,15.886,6.852a40.931,40.931,0,0,1,10.557,8.144,27.449,27.449,0,0,1,6.885,15.49,38.274,38.274,0,0,1-1.472,17c-3.164,9.392-9.523,15.748-18.6,19.5a49.7,49.7,0,0,1-16.236,3.444,53.8,53.8,0,0,1-21.247-2.869c-5.546-1.949-10.757-4.525-15.032-8.681-3.795-3.69-6.722-7.9-7.366-13.318a15.742,15.742,0,0,1,1.84-9.923c2.616-4.56,8.494-6.2,13.606-4.045,5.6,2.356,7.777,8.208,6.25,13.677a16.217,16.217,0,0,1-1.22,3.16c-.283.543-.148.829.308,1.176a27.643,27.643,0,0,0,11.731,4.959,33.632,33.632,0,0,0,7.8.757" transform="translate(184.578 18.417)" fill="#38635a"/><path d="M246.671,69.3h7.08V54.8H208.06V69.3h7.078l-14.092,41.153-41.216.035c-.493-.039-.986-.061-1.487-.061-11.672,0-21.249-8.31-21.249-21.482,0-15.052,9.277-21.482,16.759-21.482,6.434,0,10.472,2.981,11.669,4.7a9.717,9.717,0,0,0-2.092,5.8c0,5.644,4.488,10.348,9.874,10.348,5.836,0,10.475-4.389,10.475-11.6,0-10.819-11.822-23.052-29.777-23.052-19.453,0-33.218,17.093-33.218,34.97,0,22.031,15.451,36.111,35.991,36.214l-.005.024h39.337l-3.651,10.663h-5v14.64h26.356v-14.64H208.5l3.535-10.663h37.188l3.535,10.663H248v14.64h26.354v-14.64h-5ZM217.9,106.4,230.63,68.862,243.352,106.4l1.261,4.013-27.979.024Z" transform="translate(40.448 17.969)" fill="#38635a"/><path d="M89.4,123.439,59.47,54.51H35.885l-.031,14.359h6.889l.091,95.225-6.92-.124v14.458H67.638V163.97H59.925l-.077-67.119,29.291,63.161,29.8-63.568.206,67.526H111.43v14.458h31.491V163.97h-7.036l-.044-95.1h6.889l.029-14.359H119.323Z" transform="translate(12.007 18.254)" fill="#38635a"/><path d="M559.766,55.247c0-5.478-3.806-8.284-7.6-8.455-4.042-.182-8.175,1.271-8.4,6.783a6.008,6.008,0,0,0,4.676,6.433c-.178,2.472-.748,5.482-6.313,9.9l3.5,4.178c11.045-6.362,14.142-13.713,14.142-18.838" transform="translate(181.546 15.664)" fill="#38635a"/><rect width="17.655" height="17.655" transform="translate(581.182 210.927) rotate(-45)" fill="#ea5329"/><rect width="17.655" height="17.655" transform="translate(257.508 210.414) rotate(-45)" fill="#ea5329"/><path d="M237.993,142.1a.643.643,0,0,1,.107-.029c7.37.036,14.745-.065,22.11.159a22.266,22.266,0,0,1,12.651,4.261,17.855,17.855,0,0,1,6.589,9.159,23.507,23.507,0,0,1,.821,10.515,20.155,20.155,0,0,1-3.695,9.4A18.822,18.822,0,0,1,269,181.612a28.05,28.05,0,0,1-11.567,2.3c-6.359.044-12.719.013-19.077.013-.107,0-.214-.009-.367-.017ZM250.521,174c2.914-.075,5.8-.016,8.663-.258a8.652,8.652,0,0,0,7.222-4.633,13.338,13.338,0,0,0,.868-10.9,8.53,8.53,0,0,0-7.6-6.036c-2.975-.339-6.016-.167-9.028-.22-.033,0-.068.037-.121.067Z" transform="translate(79.698 47.577)" fill="#ea5329"/><path d="M295.725,142.083h34.852v9.875H308.206v5.984h21.078v9.636H308.2v6.334h23.256v9.98H295.725Z" transform="translate(99.031 47.58)" fill="#ea5329"/><path d="M348.508,183.876V142.1h12.639v31.774h21.406v10Z" transform="translate(116.707 47.586)" fill="#ea5329"/><rect width="12.501" height="41.812" transform="translate(534 189.657)" fill="#ea5329"/><path d="M631.068,143.82a8.26,8.26,0,1,1-8.232-8.036,8.075,8.075,0,0,1,8.232,8.036m-14.455,0a6.227,6.227,0,0,0,6.273,6.419,6.154,6.154,0,0,0,6.124-6.37,6.2,6.2,0,1,0-12.4-.049m4.95,4.214H619.7V140a16.284,16.284,0,0,1,3.086-.244,5.012,5.012,0,0,1,2.794.587,2.23,2.23,0,0,1,.784,1.765,2.059,2.059,0,0,1-1.666,1.861v.1a2.375,2.375,0,0,1,1.47,1.961,6.077,6.077,0,0,0,.589,2.009h-2.01a6.882,6.882,0,0,1-.637-1.961c-.147-.881-.637-1.273-1.664-1.273h-.882Zm.048-4.557h.882c1.029,0,1.861-.343,1.861-1.176,0-.736-.538-1.224-1.714-1.224a4.448,4.448,0,0,0-1.029.1Z" transform="translate(205.8 45.471)" fill="#38635a"/></g></svg>