<svg xmlns="http://www.w3.org/2000/svg" xmlns:xlink="http://www.w3.org/1999/xlink" width="700" height="451.118" viewBox="0 0 700 451.118"><defs><clipPath id="a"><rect width="699.999" height="451.118" fill="none"/></clipPath></defs><path d="M348.326,0,0,219.333,348.326,451.118,700,219.333Z" transform="translate(0 0)" fill="#fff"/><path d="M203.937,151.685l-2.151.257-2.245.618-6.861.248-2.324-.852-2.2-.272-3.97-2.207-3.667-3.35-1.22-1.784-1.5-1.694-2.251-6.961-.6-6.234.115-3.74.831-4.64.7-2.191,1.387-1.7,1.1-2.18,1.514-1.965,1.769-1.616,3.452-2.506,2.126-1.113,2.4-.606,5.5-.508,5.72.376,6.278,2.857,3.638,2.83,2.692,4.164.948,2.23.744,2.587.823,2.222.474,5.344-.714,6.259-1.069,5.11-1.3,1.859-1.08,1.886-1.406,2.216-3.638,2.955-2.166,1.013Zm36.054-30.9-1-4.791-.946-2.594-.608-2.93-2.208-4.285-.848-2.293-1.7-2.356-1.4-1.458-1.577-2.293-5.371-5.117-6.194-4.075-16.033-5.286-5.914-.154-8.577.518-2.481.524-2.494.792-2.1.986-4.611,1.274-6.418,4.2-1.65,1.493-3.882,2.8-3.421,3.97-4.156,6.42-1.128,2.243-2.322,7.082-.982,5.553-.476,14.886,1.335,8.02,1.831,4.388.729,2.675,1.3,2.466,5.768,8.226,3.364,3.4,1.577,1.911,8.458,4.741,2.37,1.042,10.313,3.183,7.51.4,10.8-1.146,4.793-1.581,10.8-5.092,8.721-8.723,1.61-2.345,4.768-8.869.875-2.527.357-2.492.735-2.074.493-2.859.606-8.993Z" transform="translate(139.191 76.399)" fill="#414042"/><path d="M273.561,190.072l-2.42-.892-2.8-.38-9.17-4.2-2.164-1.4-3.694-3.694-3.183-3.949-2.038-5.094-.508-2.293-.255-2.8.892-2.675,2.546-1.147,2.546.127,2.546-.253,9.68.253,2.548,1.021L270,165.239l1.911,1.783,2.291,1.4,1.911.89,2.928.764,3.82.253,3.565-.125,4.712-1.4,2.038-1.146,2.038-1.783.764-3.312-.635-3.31-1.783-1.527-4.586-1.911-2.548-.129-2.291-.38-10.444-.766-4.582-1.019-7.261-2.42-4.457-2.675-3.565-3.312-3.183-4.2-1.656-4.457-.892-3.565-.127-8.535,1.783-7.385,1.274-2.038.892-2.293,1.654-1.656,1.4-2.164,2.293-1.527,1.783-1.656,2.546-1.527,2.04-.766,2.036-1.274,2.293-.89,10.06-2.038,7.13-.129,2.8.637,2.293.255,2.675.508,7,2.421,8.149,5.6,1.656,1.909L311,112.391l1.656,2.038,2.038,4.584,1.019,4.966-1.145,2.42-2.421,1.529-2.42-.255-2.293.255-8.4-.255-3.947-1.274-4.2-4.457-1.911-1.527-2.8-1.019-8.149.253-2.291.51-1.783.764-2.166,1.656-1.4,1.783L270,127.672l.127,3.44,2.038,2.036,1.911,1.019,5.348,1.909,12.863,1.656,10.442,2.548,6.748,3.055,2.166,1.783,3.057,3.949,2.548,4.712.635,2.42.382,2.548-.127,7.894-.382,2.293-.766,2.546-1.017,2.293-2.548,4.075-3.567,4.076-4.074,2.8-6.624,3.565-12.48,2.418-4.075.129-3.692-.38Z" transform="translate(227.237 90.974)" fill="#414042"/><path d="M204.346,198.177l1.264,4.223,4.749,2.057,10.816.169,3.678-.338,3.137.169,6.971-.512,3.3.695,3.816.157,3.371-.342,3.452.343,22.323-.342,3.279-1.4,1.712-3.268V183.893l-1.7-3.1-3.258-1.4-3.834.332-3.294-.518-8.585-.163-3.79.683-3.471-.347-3.711.175-3.214-.507-3.82.345-3.893-1.854-1.491-3.475.046-15.78,1.6-3.732,3.335-2.04,5.244-.175,5.5.51,6.37-.342,5.227.171,3.321-.338,3.864.165,3.047-1.22,1.076-3.074.5-14.116-1.593-4.455-3.594-2.034h-9.87l-1.75.343-7.2-.514-9.916.345-3.951-1.692-1.431-6.8.056-5.5,1.625-3.437,4.06-1.476,3.27.171,3.214-.677,22.565.34,3.053-.161,3.314-1.892,1.545-2.778-.163-3.237.171-2.331-.336-10.012-1.383-2.92-3.091-1.236-3.58-.012-2.991-.666L251.4,83.63l-3.694.336-3.5-.34-2.8.173-3.486-.343-13.854.345-3.392-.5-3.241.683-1.788-.347-3.316.332-3.364-.163-3.254,1.241-1.7,3.241.332,6.3-.5,6.973.5,3.68-.336,16.726.514,3.544-.347,3.3-.167,13.871.5,2.959-.161,30.522-.334,3.212.5,3.325-.5,11.825Z" transform="translate(187.285 76.532)" fill="#414042"/><g clip-path="url(#a)"><path d="M82.56,232.7l-1.642-3.057a1.486,1.486,0,0,1-.177-.7l.182-67.147-.365-3.371.547-17.921-.365-3.548.182-28.39-.365-3.193.547-6.921-.547-10.824,2-3.726,4.006-1.773,5.1,1.418,4.189,3.016,4.734,4.793,2.911,2.481,4.736,5.5,2.548,2.13,16.569,17.921,4,3.55,3.275,4.081,2.55,2.483,2.184,3.016,3.824,1.42,3.275-2.13,11.106-11,2.368-3.014,16.02-15.97,2.55-3.193,2.186-1.953,2.366-2.84,7.648-7.806,3.822-2.306,5.278-1.6,3.824,1.951,2.184,3.726-.363,3.369.18,7.276-.18,3.016.363,7.631-.182,3.369.182,17.566-.363,3.9.363,53.23-.363,3.55.545,9.225-2.184,5.144-3.824.979-22.027.267-3.824-1.067-1.456-4.081v-2.661l-.365-7.986.365-3.193-.365-6.566.365-6.919-.547-7.1.365-9.757-1.456-2.661-2.366,1.063-7.466,7.452-2.548,1.775-5.1,5.856-2.184,2.128-2.55,2.661-3.642,2.663-4-.18L137.36,175.1l-4.916-4.611-2.368-2.84-7.462-7.276-2.187-2.661-2.913-2.306L115.7,154.7l-1.641,1.594v6.921l.367,3.9-.367,6.388.184,3.726-.015,51.962a1.473,1.473,0,0,1-.255.873l-1.669,2.439a1.45,1.45,0,0,1-.647.528l-4.381,1.829a1.488,1.488,0,0,1-.656.113l-5.344-.326a1.978,1.978,0,0,0-.282.01l-3.73.5a1.572,1.572,0,0,1-.267.012l-6.823-.343a1.571,1.571,0,0,0-.286.013l-2.961.436a1.484,1.484,0,0,1-1-.213l-2.855-1.811a1.476,1.476,0,0,1-.508-.545" transform="translate(74.015 75.458)" fill="#414042"/><path d="M272.157,65.139l-5.131,1.646a1.023,1.023,0,0,0-.639.566.917.917,0,0,0,.048.817,35.951,35.951,0,0,1,3.816,9.573c-3.369.921-7.871,3.849-8,8.316-.056,1.955,3.473,14.412.5,19.042-.439,1.161-9.012,10.227-12.769,11.254a.993.993,0,0,0-.764.931,1.02,1.02,0,0,0,.752.957c3.9,1.2,11.177,2.308,19.972-1.727,11.906-5.461,17.925-19.454,16.958-28.486-.543-5.052-4.622-9.235-9.843-10.4-.342-4.6-2.594-9.9-3.532-11.939a1.123,1.123,0,0,0-1.368-.549" transform="translate(228.974 59.794)" fill="#de4826"/><path d="M237.83,152.258l-14.542-14.606a1.975,1.975,0,0,0-1.4-.579h-.008a1.989,1.989,0,0,0-1.395.579l-11.9,11.854-11.81-11.91a1.982,1.982,0,0,0-1.4-.583h-.01a1.978,1.978,0,0,0-1.395.574L182.036,149.42l-11.777-11.827a1.981,1.981,0,0,0-1.4-.579h-.01a1.984,1.984,0,0,0-1.395.579l-14.665,14.6a1.99,1.99,0,0,0-.437,2.161,1.968,1.968,0,0,0,1.825,1.222l82.238.061h.006a1.986,1.986,0,0,0,1.408-3.381" transform="translate(139.841 125.883)" fill="#de4826"/><path d="M93.683,93.3c-1.719,1.126-1.756,1.073-3.475,2.2s-1.742,1.092-3.465,2.218-1.671,1.2-3.394,2.333-1.767,1.051-3.49,2.18-1.66,1.222-3.385,2.352-1.775,1.046-3.5,2.174-1.729,1.119-3.454,2.251-1.66,1.22-3.383,2.35-1.794,1.019-3.517,2.147-1.694,1.174-3.419,2.3-1.752,1.086-3.475,2.216-1.708,1.147-3.433,2.276-1.658,1.226-3.383,2.356-1.806,1.005-3.531,2.136-1.717,1.14-3.44,2.27-1.654,1.243-3.385,2.375-1.76,1.078-3.484,2.21a4.728,4.728,0,0,0,.042,8.061c1.727,1.094,1.775,1.017,3.5,2.109s1.7,1.128,3.425,2.218,1.752,1.057,3.483,2.149,1.66,1.193,3.385,2.283,1.746,1.067,3.471,2.159,1.777,1.019,3.506,2.111,1.685,1.159,3.413,2.251,1.731,1.08,3.456,2.172,1.7,1.138,3.427,2.232,1.769,1.027,3.5,2.12,1.75,1.057,3.481,2.151,1.715,1.115,3.448,2.21,1.723,1.113,3.452,2.2a4.75,4.75,0,0,0,5.561-.342c1.522-1.243,1.545-1.218,3.066-2.46s1.5-1.27,3.024-2.512,1.531-1.232,3.059-2.477,1.57-1.192,3.091-2.435A4.848,4.848,0,0,0,99.6,153.8a4.755,4.755,0,0,0-2.27-3.709c-1.7-1.071-1.665-1.128-3.362-2.2s-1.7-1.075-3.4-2.149-1.7-1.063-3.4-2.139-1.681-1.105-3.383-2.18-1.719-1.048-3.419-2.124a4.742,4.742,0,0,1-.059-8.019c1.857-1.217,1.854-1.224,3.711-2.441s1.871-1.2,3.728-2.421,1.825-1.268,3.684-2.487,1.852-1.238,3.711-2.458,1.878-1.19,3.742-2.408a4.762,4.762,0,0,0,2.164-3.987c0-2.226-.021-2.226-.021-4.453s-.036-2.23-.036-4.457.083-2.233.083-4.465-.029-2.23-.029-4.463A4.736,4.736,0,0,0,93.683,93.3" transform="translate(30.171 84.979)" fill="#39c1cd"/><path d="M374.369,131.684c-1.731-1.134-1.763-1.084-3.5-2.22s-1.7-1.178-3.431-2.312-1.773-1.075-3.5-2.208-1.7-1.192-3.427-2.326-1.721-1.151-3.452-2.287-1.725-1.149-3.456-2.285-1.807-1.023-3.538-2.159-1.7-1.18-3.433-2.314-1.742-1.122-3.475-2.256-1.71-1.172-3.44-2.308-1.779-1.069-3.511-2.2S310,91.277,308.265,90.139s-1.689-1.209-3.425-2.349a4.828,4.828,0,0,0-5.231.061c-1.715,1.1-1.76,1.034-3.477,2.138s-1.664,1.184-3.383,2.287-1.773,1.021-3.492,2.126-1.7,1.14-3.417,2.245a4.852,4.852,0,0,0-.063,8.086c1.88,1.232,1.955,1.117,3.834,2.349s1.806,1.347,3.684,2.577,26.381,15.571,28.262,16.8,1.884,1.232,3.767,2.468,1.921,1.176,3.8,2.41a4.814,4.814,0,0,1-.058,8.068c-1.886,1.19-1.867,1.218-3.755,2.412s-1.938,1.109-3.824,2.3-1.865,1.226-3.751,2.42-1.88,1.209-3.77,2.4-1.859,1.24-3.751,2.435a4.669,4.669,0,0,0-2.207,3.985c0,2.2-.086,2.2-.086,4.407s.042,2.2.042,4.411.061,2.208.061,4.415-.038,2.21-.038,4.417a4.655,4.655,0,0,0,2.464,4.145,4.749,4.749,0,0,0,4.878-.046c1.706-1.08,1.639-1.186,3.344-2.264s1.767-.98,3.473-2.059,1.7-1.084,3.41-2.164,1.646-1.172,3.354-2.251,1.711-1.069,3.419-2.149,1.765-.986,3.473-2.065,1.639-1.188,3.348-2.268,1.725-1.051,3.433-2.13,1.7-1.09,3.41-2.17,1.725-1.048,3.435-2.126,1.717-1.063,3.427-2.143,1.683-1.119,3.388-2.2,1.742-1.03,3.45-2.109,1.7-1.1,3.415-2.178,3.423-2.412,3.922-2.575c2.034-.668,1.83-1.078,3.636-2.222s1.788-1.174,3.6-2.316a4.67,4.67,0,0,0,2.2-3.972,4.737,4.737,0,0,0-2.1-4.07" transform="translate(260.599 79.979)" fill="#39c1cd"/><path d="M383.4,96.235a4.82,4.82,0,0,0-2.278-3.358c-1.727-1.086-1.754-1.042-3.479-2.128s-1.754-1.046-3.481-2.132-1.712-1.1-3.435-2.185-1.752-1.04-3.475-2.124-1.639-1.218-3.362-2.3-1.681-1.144-3.4-2.228-1.735-1.063-3.458-2.151-1.842-.894-3.563-1.978-1.591-1.3-3.31-2.377-1.817-.936-3.536-2.019-1.777-1-3.5-2.082-1.6-1.274-3.321-2.358-1.715-1.09-3.438-2.174-1.807-.94-3.529-2.022-1.752-1.032-3.473-2.116-1.614-1.251-3.335-2.333S324.314,57.08,322.6,56s-1.7-1.113-3.419-2.2c-1.268-.8-1.658-.933-2.46-1.378l-54.056-35.47a4.67,4.67,0,0,0-5.115,0L99.054,121.133a4.667,4.667,0,0,0-.875,7.065l10,10.858a4.665,4.665,0,0,0,5.99.741L257.546,45.524a4.663,4.663,0,0,1,5.115,0l22.4,14.8,0,.079c.113.073.42.24.819.461L289,62.925a3.734,3.734,0,0,1,.589.566,29.339,29.339,0,0,1,3.5,2.26c1.754,1.1,1.742,1.368,3.5,2.469s1.948,1.159,3.7,2.262c1.587,1,2.111,1.337,3.484,2.2l1.09.721a27.72,27.72,0,0,0,2.418,1.809c1.754,1.1,1.124.748,2.878,1.85s1.1.806,2.855,1.909c1.479.931,1.8,1.063,2.9,1.733l1.763,1.165a19.676,19.676,0,0,0,2.251,1.671c1.75,1.1,1.809,1.009,3.561,2.111s1.769,1.075,3.523,2.178,1.765,1.082,3.517,2.182,1.811,1,3.561,2.1,1.712,1.167,3.463,2.268,1.7,1.192,3.452,2.295,1.717,1.157,3.471,2.258,1.84.959,3.6,2.065a4.974,4.974,0,0,0,2.554.89c2,0,2-.1,3.995-.1s2,.129,3.995.129,1.994-.255,3.987-.255,1.994.155,3.989.155,1.992-.217,3.983-.217,1.992.075,3.983.075,1.992-.058,3.985-.058a4.411,4.411,0,0,0,3.536-1.61,4.972,4.972,0,0,0,1.324-3.78" transform="translate(89.07 14.875)" fill="#39c1cd"/><path d="M330,183.563a4.974,4.974,0,0,0-1.324-3.78,4.411,4.411,0,0,0-3.536-1.61c-1.994,0-1.994-.058-3.985-.058s-1.992.075-3.983.075-1.992-.217-3.983-.217-2,.155-3.987.155-2-.255-3.987-.255-2,.129-4,.129-2-.1-3.995-.1a4.973,4.973,0,0,0-2.554.89c-1.754,1.105-1.842.963-3.6,2.065s-1.719,1.157-3.471,2.258-1.7,1.193-3.452,2.295-1.71,1.169-3.463,2.27-1.809,1-3.561,2.1-1.765,1.08-3.515,2.182-1.771,1.076-3.525,2.18-1.811,1.005-3.561,2.109a19.672,19.672,0,0,0-2.251,1.671l-1.763,1.165c-1.1.67-1.42.8-2.9,1.733-1.754,1.1-1.1.806-2.853,1.909s-1.126.748-2.88,1.852a27.369,27.369,0,0,0-2.418,1.807l-1.09.721c-1.374.865-1.9,1.2-3.484,2.2-1.756,1.1-1.948,1.159-3.7,2.262s-1.742,1.368-3.5,2.469a29.056,29.056,0,0,1-3.5,2.262,3.821,3.821,0,0,1-.589.564l-3.114,2.059c-.4.221-.706.388-.819.462l0,.077-.061-.194a1.911,1.911,0,0,1-2.771,0l-.065.194.006-.077c-.115-.075-.422-.242-.819-.462l-3.114-2.059a3.954,3.954,0,0,1-.593-.564,29.16,29.16,0,0,1-3.5-2.262c-1.754-1.1-1.744-1.368-3.5-2.469s-1.946-1.159-3.7-2.262c-1.587-1-2.111-1.335-3.486-2.2l-1.092-.721a26.726,26.726,0,0,0-2.416-1.807c-1.752-1.1-1.126-.75-2.88-1.852s-1.1-.806-2.851-1.909c-1.481-.931-1.8-1.063-2.9-1.733l-1.763-1.165a19.974,19.974,0,0,0-2.249-1.671c-1.752-1.1-1.809-1.009-3.563-2.109s-1.769-1.076-3.525-2.18-1.761-1.082-3.513-2.182-1.813-1-3.565-2.1-1.712-1.169-3.461-2.27-1.7-1.192-3.45-2.295-1.719-1.157-3.471-2.258-1.844-.959-3.6-2.065a4.974,4.974,0,0,0-2.558-.89c-2,0-2,.1-3.995.1s-2-.129-3.993-.129-1.994.255-3.989.255-1.992-.155-3.985-.155-1.992.217-3.985.217-1.992-.075-3.981-.075-1.994.058-3.987.058a4.411,4.411,0,0,0-3.536,1.61,4.989,4.989,0,0,0-1.324,3.78,4.823,4.823,0,0,0,2.279,3.358c1.725,1.086,1.754,1.044,3.477,2.128s1.754,1.046,3.481,2.132,1.712,1.1,3.435,2.187,1.754,1.038,3.475,2.124,1.639,1.216,3.362,2.3,1.683,1.144,3.4,2.23,1.735,1.061,3.458,2.149,1.842.894,3.563,1.978,1.591,1.3,3.312,2.377,1.813.936,3.536,2.019,1.775,1,3.5,2.082,1.6,1.274,3.319,2.358,1.717,1.092,3.438,2.174,1.809.94,3.529,2.022,1.752,1.032,3.473,2.116,1.616,1.251,3.333,2.333,1.715,1.086,3.435,2.168,1.7,1.113,3.417,2.2c1.27.8,1.658.933,2.462,1.378l31.713,20.473a1.911,1.911,0,0,0,2.771,0l31.713-20.473c.8-.445,1.192-.579,2.46-1.378,1.721-1.084,1.7-1.113,3.419-2.2s1.713-1.086,3.431-2.168,1.616-1.251,3.337-2.333,1.752-1.03,3.471-2.116,1.811-.94,3.529-2.022,1.717-1.092,3.438-2.174,1.6-1.274,3.321-2.358,1.775-1,3.5-2.082,1.813-.934,3.536-2.019,1.589-1.3,3.31-2.377,1.842-.9,3.563-1.978,1.737-1.065,3.458-2.149,1.681-1.147,3.4-2.23,1.637-1.218,3.36-2.3,1.752-1.038,3.475-2.124,1.712-1.1,3.435-2.187,1.754-1.044,3.481-2.132,1.754-1.042,3.479-2.128A4.82,4.82,0,0,0,330,183.563" transform="translate(119.814 163.425)" fill="#39c1cd"/><path d="M386.63,183.589l.689-.123.608-.081,1.944.123.689-.083.566.083,2.026-.042.649-.04,2.268-.04.973-.2.284-.769.081-2.633-.365-.649-.689-.2-1.986-.123-.647.123-.648-.123-1.946.042-.727-.365-.284-.528-.04-4.983.081-1.052V171.4l-.081-.647.081-.691v-1.3l-.081-.606-.04-4.012.121-.647v-2.189l-.081-1.011.04-1.255-.081-.691.04-.687-.082-.568.042-.606-.042-.568-.445-.528-.689-.244-1.9-.04-.647.081-.649-.121-.568.284-.282.649.081.689.121.608-.081.687.04,1.176.081.566-.081.608.04,5.549.081.568-.081,2.673.081.568-.04,1.053-.121.568.121.768v.649l-.081,1.053v3.444l.081.647-.121,1.378.04,1.094.081.892v.687l-.04.528.365.568.649.443Zm-17.094,0,.691-.123.606-.081,1.944.123.689-.083.568.083,2.026-.042.647-.04,2.27-.04.971-.2.284-.769.081-2.633-.365-.649-.689-.2-1.984-.123-.649.123-.649-.123-1.944.042-.729-.365-.284-.528-.04-4.983.081-1.052V171.4l-.081-.647.081-.691v-1.3l-.081-.606-.04-4.012.121-.647v-2.189l-.081-1.011.04-1.255-.081-.691.04-.687-.081-.568.04-.606-.04-.568-.447-.528-.687-.244-1.905-.04-.649.081-.647-.121-.568.284-.284.649.081.689.123.608-.083.687.042,1.176.081.566-.081.608.04,5.549.081.568-.081,2.673.081.568-.04,1.053-.123.568.123.768v.649l-.081,1.053v3.444l.081.647-.123,1.378.042,1.094.081.892v.687l-.04.528.365.568.649.443Zm-10.611-.04.647-.123h.568l.606-.2.163-.649.081-.689-.121-.485-.042-1.053.123-.89-.123-1.337.042-3.12.081-.568-.123-1.255-.04-.769.082-.526.04-1.257-.123-2.026.082-.647-.082-1.255.123-.649-.04-1.216-.082-.649.163-3.887-.163-1.378v-1.863l-.081-.566v-.528l-.4-.568-.731-.365-1.3.161-.608-.081-1.823.244-.244.608.042.606.081.608v.691l.081.606-.081,1.215v3.849l.081.526-.081,11.708.081.526.04,1.094-.121.81.04.81-.081.568v.608l.121.606v.771l.123,1.134.4.566.973.161,1.013.04Zm-19.038-14.583-.691-.324-.244-.649v-4.01l-.081-.649.081-1.376-.04-1.217.365-.689.731-.365h.971l1.621.244.606.2.608.324.4.566.284.447.282.729.083.81.121.931-.081.934-.2,1.255-.242.689-.324.566-.365.447-.568.4-.566.282-.608.244Zm-1.946,14.583.649-.445.445-.608-.083-1.3.083-1.581L338.912,178l.083-.65-.083-1.255.04-1.9.284-.65.731-.365.81.324.568.608.848,2.349.2.731.729,1.7.161.649.284.608.365,1.174.244.566.163.649.647.689,1.458.284h.731l1.255-.163.727.04.608-.242.123-.649-.244-.568-.324-.566-.647-1.823-.284-.447-.2-.808-.284-.568-.647-1.825-.284-.484-.892-2.473.04-.768.4-.691.528-.242.526-.649.365-.528.528-.4.284-.447.606-1.215.244-.568.121-.687.2-.608.244-1.418-.163-1.823V162.2l-.081-.649L349.12,159l-2.065-2.268-1.094-.606-2.552-.892-3.2-.2-2.024.121h-.691l-.606.04-.769-.121-1.3-.04-.647.365-.4.771.121.526v.729l-.081.566v.608l.081,1.013-.081,2.308.04.608-.04,1.217.121,2.876-.121,1.132v1.257l.121,1.052-.121,2.876.04.608-.04,1.581.081,2.226-.081.731.081,2.147-.081.931.081.649-.081.729.324.568.687.242.931.04.934.123.606-.083Zm-18.877.365,2.026-.081.606-.2.568-.04,1.863-.769.485-.528.487-.284.284-.566.485-.526.284-.528.282-.729.284-.485.932-3.93.121-2.592-.081-1.783.04-.973.081-.485-.081-.729.081-.606-.284-.608-.647-.447-.649-.04-.729.04-.528.121-1.335-.04-.568.04-.729-.121-1.174.081-.689-.04-.284.04-.566.366-.244.526-.081,1.944.324.812.606.244.244.04.689-.04.526-.123.608.04.729.324.284,1.053-.123,2.389-.284,2.026-.2.528-.324.606-.407.447-.445.524-.526.284-1.905.083-.649-.284-.931-.85-.284-.487-.485-1.335-.04-.566-.2-.691-.121-1.418.081-1.255-.121-.649v-.729l-.081-.568.081-4.252.121-.608v-.649l.082-.689.161-.769.081-.649.365-1.3.689-1.013.365-.4.566-.244.487-.4h1.823l1.337.4.647.284.729.04.608-.445.284-.4.365-.445.568-.608.322-1.013-.2-.649-.568-.485-.445-.324-.608-.244-.526-.324-.608-.159-1.216-.244-1.66-.123-.89.042-.649.161-.689.081-1.174.282-.649.284-.487.407-.606.324-.445.363-.487.447-.363.649-.407.443-.284.65-.324.4-.85,2.713-.161,1.3-.244,1.215v.689l-.163.649.123,7.169.081.731v.727l.447,2.715.161.485.163.649.768,1.865.407.526.244.526,1.416,1.378.407.244.606.4,1.134.242.568.284.608.081Zm-26.9-.365.606-.04.528-.042.647.042.608-.324.2-.568.04-.649-.163-1.215.083-2.512-.083-.85v-.973l.083-.727-.083-.65v-.689l.083-.526-.083-1.458.042-1.66-.083-.973.123-.568-.083-.608-.04-.971.083-.89-.083-1.418.04-.771-.04-.568.04-.606v-1.944l-.04-.649.365-.729.689-.284.608.04.769.04.608-.081.727.04.649-.121.65-.322.4-.608-.081-.731.081-.606-.081-1.337-.322-.526-.568-.447-5.348.04-.689-.081h-.568l-.769-.038-1.255.159h-2.592l-1.378-.159-.608.119-.689-.081-.606.4-.4.568v.769l.081.608-.123.727.042.61.365.649.687.322H286.5l.769.121h.689l.608-.081.689.324.322.649v.649l.081.649-.04.687-.081.568.081.608-.081,1.3.081,1.011v1.053l-.081.608-.04,3.887.081.649-.04,7.819.081.687-.04.65.123.526.04.649.324.485.769.242h.649Zm-20.375.4.89-.121h.973l.729-.083,1.215-.365.608-.2.647-.161.568-.365.487-.366.445-.485.485-.445.407-.445.365-.568.242-.606.324-.528.365-1.257.121-.727.2-1.662-.161-1.5-.2-.812-.081-.606-.769-1.742-.447-.568-.365-.485-.324-.566-.526-.447-.445-.284-1.539-1.255-1.742-1.215-.973-.769-.892-.973-.363-.647-.284-.407-.284-.608.04-1.011.123-.89.282-.568.526-.447.852-.363,1.662-.163,1.662.566.768.163.608-.407,1.053-1.658.161-.812-.284-.85-.526-.324-1.134-.487-.485-.284-1.863-.363h-.649l-.973-.121-1.051.04-.568.244-.691.119-.566.284-.649.163-1.053.689-.485.4-.324.367-.81,1.092-.284.568-.566,1.905.081,2.592.121.608.2.687.892,1.823.81,1.094.892.933.485.242.568.528.566.324,1.38,1.053,1.376.852,1.337,1.577.443,1.257.123.649v.892l-.123,1.092-.2.689-.731,1.013-.568.363-.526.244-1.984.083-1.742-.608-.566-.324-.447-.365h-.649l-.647.365-.324.566-.366.528-.242.649-.282.445-.082.852.324.687.526.324.568.2,1.134.729.608.161,1.215.4.649.083Zm-21.509-.4,2.024-.123.608-.081h.608l1.3.2h.687l.649-.163h1.216l.89.163,1.094-.04.526-.083.649-.4.366-.487-.082-1.619v-1.094l-.284-.649-.566-.445-.729.161-.568-.083-.647.163-.649-.04-1.013-.163-.932.083-.687-.121-.65.121-.606-.365-.284-.689-.081-3.767.04-.528-.04-.608.04-.687.324-.649.689-.282.933-.042.971.042,1.013-.123,2.391.081.606-.2.324-.649-.081-.729.081-1.216-.081-.606-.244-.568-.729-.324-.526-.081-1.7.081-2.268-.081-.649.081-.729-.365-.324-.649-.04-1.215.081-.729-.04-.649.04-.608-.081-1.376.04-.649.324-.568.689-.365.649-.121,1.5.2,1.619-.081.608-.161.729.121h.647l.691-.445.2-.526.082-2.633-.407-.691-.649-.284-.647-.04-.608-.119-.689.119-.608-.081-1.011.121h-.892l-.647-.04h-.65l-.727-.04h-1.337l-.892.081H249.11l-.892.324-.244.568.042,1.217.081.649.04.647-.121.445.081.689-.081.649.081.89v1.742l-.081.608.081.566.04.731-.081.566v.608l.081.689-.04,4.7-.081.649.081.649.04,9.763.244.729.689.2h.606Zm-29.367.04.687-.2.608.123h.649l1.3-.083.566-.242.445-.729.284-1.134.445-2.633.161-.812.083-1.011.242-1.257.163-.608.121-1.335.244-.528.689-5.793v-.526l.121-.81.081-.568v-.649l.163-.649.244-2.552.2-.04.2,2.673.121.608.04.649.121.568v.689l.163.606v.608l.81,6.439.2.608.2,1.541.282.931.121,1.257.163.647.04.608.161.729.083.649.161.566.04.487.447.81,1.051.365.85-.081.608-.083,1.3.083.687-.042.691-.322.445-.689.485-2.389.161-.65.163-1.335.2-.568.121-.729.163-.649.081-.526.161-.649.04-.649.729-3.035.324-1.946.163-.731.081-.566.284-1.255.081-.649.2-.608.365-2.228.244-.812.244-1.335.121-.566.123-.689.282-.608.568-3.241-.163-.608-.647-.284h-2.675l-.606-.121-.731.487-.485.608-.689,3.6-.04.771-.931,4.212-.083.687-.161.65-.689,3.726.04.566-.123.691-.04.687-.119.568-.082.606-.121,1.946-.121.689v.647l-.163.528h-.121l-.163-1.418v-.526l-.081-.649.04-.769-.121-.649-.163-1.984-.163-.608-.081-1.337-.161-.647-.282-2.433L232.7,165l-.04-.689-.365-2.471-.04-.729-.163-.526-.04-.731-.163-.566v-.649l-.119-.568v-.727l-.163-.649-.121-.566-.365-.65-.608-.4-.689.081-.528.04-.687-.2h-.528l-.649.079H226.1l-.647.324-.365.689-.163.608-.081.769v.606l-.081.608-.163.691-.161,1.861L224.2,162.4l-.123,1.3-.161.768-.4,3.039-.244,1.255L223.1,170.1l-.121.566-.161,2.067v.689l-.244,2.026v.647l-.04.689h-.121l-.2-.729v-.647l-.121-.528-.04-1.3-.163-.649-.163-1.984-.121-.485-.121-1.7-.365-1.539-.161-1.257-.163-.526-.2-1.3-.042-.647-.161-.528-.123-.687-.2-.649-.2-1.257-.163-.568-.242-1.9-.2-.568-.04-.691-.163-.647-.445-.649-.81-.324h-2.23l-1.618.4-.163.608.2.649.284,1.823.2.729.081.606.284,1.174.647,3.851.4,1.335.123,1.215.568,2.471.2.649.042.649.2.689.083.568.485,2.469.2.731.081.524.324,1.257.163,1.257.322,1.174.121.687.083.771.2,1.215.487.608.769.282Zm-26.168-.04.647-.123.731.083.526-.365.324-.608v-1.944l.081-.608-.123-2.552.123-1.174-.04-1.458.04-.526-.081-.568.081-.608v-.689l.244-.649.608-.365.606.081H200.5l1.215-.2.689.04.647.4.324.689-.081.649.04,5.184-.081.689.163,1.9-.083.691.123.566.04.689.365.4.689.2.608.04,1.051-.04.892.081.689-.081.526-.242.163-.568v-.649l.04-.647-.121-.568.121-1.905-.121-.566-.042-3.93.123-.606-.04-.568.04-.729-.081-.649.081-2.957-.04-.647.04-1.055-.123-1.335.083-2.431L208.359,162l.123-.649v-.608l-.081-1.335.081-2.067-.081-.528-.042-.647-.242-.691-.649-.324-.608-.081-1.944.121-.649-.04-.649.244-.324.649.081.689-.121.649.121,1.3-.081.65.04.566-.04,2.147.081,1.174-.04,1.3.04.608-.04.649-.284.608-.647.324-2.594.04-.566-.04-.608.121h-.727l-.568-.365-.324-.649.04-.485v-.649l-.081-.689.121-3.767-.163-1.3.123-.568-.081-.687-.083-.568-.04-1.3-.363-.407-.731-.324-2.51.04-.771.081-.485.163-.2.729.04.526v.65l.04.649-.04.526.081,1.215-.04.729.081.89v2.957l-.081.65.04.566-.04.729.121,1.579-.121,4.659.121,1.013-.081,8.425-.081.649.4.649.566.365,1.257-.083Zm-15.636,0,.606-.04.528-.042.649.042.606-.324.2-.568.04-.649-.161-1.215.081-2.512-.081-.85v-.973l.081-.727-.081-.65v-.689l.081-.526-.081-1.458.04-1.66-.081-.973.121-.568-.081-.608-.04-.971.081-.89-.081-1.418.04-.771-.04-.568.04-.606v-1.944l-.04-.649.365-.729.687-.284.608.04.769.04.608-.081.729.04.649-.121.649-.322.4-.608-.081-.731.081-.606-.081-1.337-.322-.526-.568-.447-5.346.04L180,155.03h-.566l-.769-.038-1.257.159h-2.59l-1.378-.159-.608.119-.691-.081-.606.4-.4.568v.769l.081.608-.121.727.04.61.365.649.689.322h1.257l.768.121h.691l.606-.081.689.324.322.649v.649l.083.649-.04.687-.081.568.081.608-.081,1.3.081,1.011v1.053l-.081.608-.04,3.887.079.649-.038,7.819.081.687-.042.65.123.526.04.649.324.485.771.242h.647Zm-20.253.4.931-.04.687-.123.608-.161,1.257-.284.649-.282,1.011-.649.568-.487,1.053-1.619.608-1.984.526-3.972-.04-.971v-1.539l.081-.729-.121-1.3v-.689l.081-.689-.081-1.3.04-.566v-.689l.081-.606v-.771l-.121-.568.081-1.416-.081-1.217.04-1.3-.04-1.215.04-1.013-.081-.729.081-1.053-.365-.568-.649-.324-.971-.04-.892.121-.566-.121-.649.081-.608.407-.4.568.083,1.823-.083.727.083,1.337v.649l-.083.647.04,2.959-.081.566.04,1.378-.04.931.04.608.04.689-.081.689.123,1.257-.163,5.467-.081.731-.163.608-.2.606-.4.608-.85.769-2.026-.163-.606-.322-.445-.447-.2-.649-.244-.606-.2-1.255-.081-5.348.04-.568-.04-2.552-.04-.526.081-.689.04-1.621-.081-.647.04-3.484-.081-.649.081-.689-.119-1.376.038-.487-.038-.606-.123-.608-.324-.608-.769-.2-.526.081-.649.04-.689-.081-.649.04-.568-.081-.647.324-.163.608.083,1.337-.083.608v.606l.083.528-.042.566.042,1.619-.083,1.3.083.933-.042,1.255.082.647-.04.568-.042,1.378.123.568v1.053l-.123.85.082.729-.04,3.847.121.731-.081.768.081.608.2.568v.769l.161.568.729,1.944.649,1.134.445.445.445.324.528.528.566.365.528.2.608.081,1.3.324.647.123Zm-22.037-4.862-1.783-.081-.528-.244-.443-.282-.487-.568-.244-.608-.284-.566-.121-.729-.282-1.3v-.566l-.121-.649v-.649l-.123-.647V170.95l-.04-.689.04-.971-.04-1.053.081-.729v-.729l.123-1.3-.04-.649.121-.729.038-.769.324-1.255.2-.528.161-.687.326-.528.484-.284.367-.487.649-.081.89.04.892-.119.566.242.4.528.487.4.526,1.215.365,1.905v.727l.121.649.083,1.3.04.526.04.769-.081,1.581.121,1.619v.769l-.244,1.378v1.458l-.161.608-.042.767-.161.608-.526,1.216-.324.4-.365.568-.487.282Zm-2.471,4.782H135l1.013-.083h1.255l1.539-.4.608-.121.608-.282.485-.324.487-.284.606-.487.4-.566.4-.365.326-.487.89-1.9.365-1.174.284-1.3.04-.647.121-.649v-.729l.242-1.946-.04-.566.163-3.4-.083-.528-.04-1.986-.2-1.418V163.5l-.161-.608-.04-.566-.365-1.339-.2-.566-.163-.526-.284-.769-.566-1.136-.769-1.011-.89-.769-.973-.649-.649-.284-.568-.2-.606-.282-.689.081-1.621-.2-2.1.2-1.3.445-.568.324-.568.284-.4.284-.485.526-.447.445-.363.407-.447.566-.284.608-.485,1.215-.163.649-.242.526-.161.769-.2.566v.691l-.04.568-.163.687v.608l-.121.729v.608l-.163.687.042.568-.042.608.042,2.147.081.566-.04.608.081.81-.04.689.04.608.161.568.123.687v.689l.487,1.863.119.608.2.687.526,1.176.367.606.363.366.4.649.324.363.973.771,1.1.606.647.2.608.081Zm-20.941.081.89-.121h.973l.729-.083,1.215-.365.608-.2.649-.161.566-.365.487-.366.445-.485.485-.445.407-.445.365-.568.244-.606.322-.528.365-1.257.121-.727.2-1.662-.161-1.5-.2-.812-.081-.606-.769-1.742-.447-.568-.365-.485-.324-.566-.526-.447-.445-.284-1.541-1.255-1.74-1.215-.973-.769-.89-.973-.365-.647-.284-.407-.284-.608.04-1.011.121-.89.284-.568.528-.447.85-.363,1.662-.163,1.66.566.769.163.608-.407,1.053-1.658.161-.812-.284-.85-.524-.324-1.136-.487-.485-.284-1.863-.363h-.649l-.973-.121-1.053.04-.566.244-.689.119-.568.284-.649.163-1.053.689-.485.4-.322.367-.812,1.092-.284.568-.566,1.905.081,2.592.123.608.2.687.892,1.823.81,1.094.892.933.485.242.568.528.568.324,1.376,1.053,1.378.852,1.337,1.577.445,1.257.121.649v.892l-.121,1.092-.2.689-.731,1.013-.566.363-.528.244-1.984.083-1.742-.608-.566-.324-.447-.365H109.6l-.649.365-.324.566-.366.528-.242.649-.282.445-.082.852.324.687.526.324.568.2,1.134.729.608.161,1.215.4.649.083Z" transform="translate(98.913 142.065)" fill="#de4826"/><path d="M263.161,160.57l.155-.023.307.015.171-.023.251.015.219-.094.094-.14-.023-.821.023-.244-.008-.163.013-.28-.013-.173v-.305l.071-.071.077.033.125.1.094.117.32.32.1.125.211.2.163.117.173.008.155-.117.109-.117.1-.094.217-.259.111-.077.32-.328.1-.048.061.117-.015.432.023.313-.015.3.015.29-.015.14.015.353v.117l.061.178.167.048.944.031.163-.086.1-.226-.025-.407.015-.155-.015-2.345.015-.173-.006-.773.006-.15-.015-.336.01-.132-.01-.32.015-.15-.092-.163-.165-.086-.226.071-.165.1-.328.343-.1.125-.094.086-.107.142-.689.7-.1.132-.478.485-.14.094-.163-.063-.1-.132-.107-.111-.142-.178-.171-.157-.712-.789-.109-.092-.2-.244-.127-.109-.2-.211-.18-.132-.219-.063-.171.079-.086.163.023.478-.023.305.015.14-.008,1.251.015.155-.023.791.015.148-.008,1.727.086.165Zm-3.532-.008.524-.015.226-.079.079-.219.023-.407-.023-.3.015-.167-.008-.311.015-.142-.023-.171.015-1.259-.023-.163.023-.681.063-.234.148-.094.305-.015.288.04.165-.025.14.008.134-.084.094-.173.006-.744-.084-.155-.15-.1H261.1l-.148-.017-.165.023-.148-.015L260,155.1l-.155-.033-.148-.008-.165.023-.171-.015-.142.033-.46-.023-.244.023-.547-.033-.148.079-.094.18.01.155-.017.391.017.242.069.14.14.079.157-.015.741.015.15.079.086.155-.015.249.015.221-.008.173.008.155-.015.219.023,1.165-.015.155-.008.633.015.165-.008.453-.017.148.1.173.228.079Z" transform="translate(236.786 142.463)" fill="#de4826"/></g></svg>