<svg xmlns="http://www.w3.org/2000/svg" width="865" height="239.07" viewBox="0 0 865 239.07"><path d="M749.555,14.1l101.351,0,0,210.875-641.491,0v0H14.1l0-210.877,735.461,0ZM0,0V239.068l865,0L865,0H752.956V0Z" fill="#f26c3f"/><path d="M643.854,136.891l-24.711-2.512-.9-.107.4-.8,17-34.5-27.6-56.907L591.79,53.31l27.483,54.96.454.9H590.595l-.176-.35L565.915,58.4v50.778H540.968V2.125l.573-.052L565.231.059,565.915,0V47.243l28.268-17.356.159-.09h33.827l.181.357L648.4,72.7l17.1-42.51.171-.391h26.591l-.4.887L644.489,136.526l-.194.417Zm-254.529-25.7c-19.463-.179-23.2-11.162-23.255-31.371v-28.1H353.843l.15-.759,4.022-20.659.109-.508h7.947V15.371l.4-.145,23.695-9.077.855-.321V29.8h82.642l-.58.962-33.7,55.481H474.9l-.234.81-6.049,21.158-.127.454H399.845l.6-.943L435.627,50.71h-44.6v27.6a8.237,8.237,0,0,0,2.214,6.17c1.965,1.939,6.181,3.021,9.8,2.772a3.756,3.756,0,0,0,1.766-.363s-14.307,23.627-14.615,24.065a.677.677,0,0,1-.588.265A1.654,1.654,0,0,1,389.325,111.192ZM389.384,111.192Zm84.284-10.22-.487-.379.384-.492,12.09-15.634.446-.565.506.516c4.18,4.369,8.432,6.015,15.2,5.86,2.919.1,6.811-.176,8.747-2.126a4.22,4.22,0,0,0,1.188-3.311c.062-3.427-4.612-4.433-10.516-5.688-10.822-2.313-25.647-5.484-25.779-26.057.21-19.15,16.492-25.875,30.366-25.824,8.771-.052,18.794,4.063,26.134,10.747l.477.444-.457.461-13.1,13.6-.41.439-.459-.394A18.163,18.163,0,0,0,506.3,48.195c-1.426-.036-4.929.08-6.567,1.711a2.845,2.845,0,0,0-.847,2.194c-.023,4.594,5.146,5.66,11.7,7.023,10.361,2.141,24.55,5.089,24.581,25.229a24.752,24.752,0,0,1-7.327,17.954c-5.813,5.74-14.582,8.976-24.04,8.886-.433,0-.857.007-1.276.007C490.1,111.2,483.971,108.975,473.667,100.972Zm233.875-.5-.5-.376.371-.5,12.1-16.132.438-.586.519.532a21.762,21.762,0,0,0,16.695,6.863c2.282.091,6.407-.067,8.546-2.095a4.458,4.458,0,0,0,1.4-3.316c-.039-3.446-4.726-4.443-10.677-5.7-10.84-2.305-25.688-5.465-25.613-26.054-.049-7.109,2.219-12.992,6.72-17.516,5.393-5.4,13.609-8.354,23.137-8.32,8.9-.052,18.847,3.954,26.628,10.74l.495.438-.451.477-13.1,13.6-.415.415-.441-.36a19.741,19.741,0,0,0-12.222-4.387c-1.706-.036-7.275.14-7.421,3.894.06,4.589,5.243,5.668,11.812,7.018,10.371,2.149,24.568,5.086,24.475,25.237a24.434,24.434,0,0,1-7.143,17.962c-5.743,5.74-14.392,8.976-23.716,8.886-.358,0-.71.006-1.06.006C725.463,111.2,717.894,108.509,707.542,100.471ZM125.288,111.192c-28.058.15-43.342-20.716-43.472-40.452.145-25.652,18.012-43.531,43.464-43.469A43.8,43.8,0,0,1,153.406,37l.448.371-.332.472L141.42,54.98l-.4.568-.529-.457a22.606,22.606,0,0,0-15.206-5.385,18.773,18.773,0,0,0-13.256,5.359,17.8,17.8,0,0,0-5.268,12.65c.026,6.484,2.214,12.194,6.14,16.062a17.616,17.616,0,0,0,12.9,4.985,19.782,19.782,0,0,0,14.677-5.385l.5-.446.426.526,13.109,16.635.335.42-.374.391C148.21,107.649,135.2,111.2,125.862,111.2,125.67,111.2,125.478,111.2,125.288,111.192ZM.449,98.934,0,98.547l.36-.464L15.486,78.428l.466-.607.5.576c4.7,5.3,11.509,8.086,19.215,7.842,3.251.161,8-.868,10.747-3.469a6.694,6.694,0,0,0,2.2-4.968c-.012-5.9-6.909-8.123-15.639-10.9C19.264,62.5,2.2,57.031,2.253,33.958a28.955,28.955,0,0,1,8.62-21.04c7.138-7.14,18.284-11.392,29.8-11.348A53,53,0,0,1,74.351,13.81l.469.392-.381.487L60.324,32.33l-.41.511-.492-.428c-5.883-5.105-10.314-7.721-18.217-7.905-4.267.184-10.555,2.828-10.482,7.938-.033,5.94,6.816,8.051,15.486,10.719C59.958,47.386,77.076,52.638,77.1,76.291c-.016,9.622-3.231,17.887-9.308,23.912-7.231,7.18-18.286,11.079-31.131,10.988-.244,0-.486,0-.729,0C22.239,111.2,9.341,106.752.449,98.934Zm280.006-.586a40.866,40.866,0,0,1-.057-58.105,45.69,45.69,0,0,1,63.8.016,40.93,40.93,0,0,1-.06,58.069,45.028,45.028,0,0,1-31.87,12.865h-.292A44.994,44.994,0,0,1,280.454,98.347Zm12.792-29.119c-.06,10.215,8.657,18.924,19.018,19.025,10.409-.1,19.126-8.81,19.035-19.025.091-10.122-8.636-18.833-19.023-19.022C301.9,50.4,293.187,59.107,293.246,69.229ZM672.7,96.39a13.291,13.291,0,1,1,13.324,13.15A13.1,13.1,0,0,1,672.7,96.39Zm2.637,0a10.656,10.656,0,1,0,10.687-10.9A10.606,10.606,0,0,0,675.34,96.39ZM229.608,109.177H205.294v-46.5c.026-4.556-1.092-7.985-3.326-10.215a10.24,10.24,0,0,0-7.643-2.751c-7.265-.062-11.322,4.545-11.458,12.966v46.5H157.917V2.125l.575-.052L182.18.061l.687-.06V34.026a27.833,27.833,0,0,1,18.014-6.751c9.1-.018,16.174,2.405,21.011,7.223,5.582,5.553,8.317,14.109,8.354,26.166v48.515Zm33.268,0h-24.32V2.123l.573-.052L262.827.06,263.51,0V109.176Zm427-5.186-3.99-6.557h-2.637v6.557h-2.292V88.858h5.761c3.576,0,5.344,1.319,5.344,4.3,0,2.707-1.7,3.889-3.921,4.164l4.3,6.663Zm-6.627-8.5h2.741c1.941,0,3.679-.137,3.679-2.464,0-1.874-1.7-2.221-3.3-2.221h-3.122ZM702.1,50.141,690,44.6l-.6-.277.316-.591.928-1.7c2.779-5.146,6.6-12.191,6.554-17.154a12.19,12.19,0,0,0-7.643-11.506l-1.183-.428,1.042-.687L705.556,1.671l.305-.2.316.168c5.7,2.863,10.485,10.742,10.43,17.195.041,10.511-6.863,20.848-12.416,29.157l-1.3,1.929-.3.454Z" transform="translate(44.409 58.99)" fill="#313131"/></svg>