<?xml version="1.0" encoding="iso-8859-1"?>
<!-- Generator: Adobe Illustrator 24.3.0, SVG Export Plug-In . SVG Version: 6.00 Build 0)  -->
<svg version="1.1" id="Layer_1" xmlns="http://www.w3.org/2000/svg" xmlns:xlink="http://www.w3.org/1999/xlink" x="0px" y="0px"
	 viewBox="0 0 500 500" style="enable-background:new 0 0 500 500;" xml:space="preserve">
<g id="watermark_1_">
	<g>
		<g id="watermark" style="opacity:0.61;">
			<g>
				<g>
					<g>
						<g>
							<polygon style="fill:#FFFFFF;" points="213.765,461.172 208.204,474.017 205.268,474.017 199.726,461.172 202.938,461.172 
								206.846,470.347 210.81,461.172 							"/>
						</g>
						<g>
							<path style="fill:#FFFFFF;" d="M223.507,469.741h-7.469c0.275,1.23,1.321,1.982,2.826,1.982c1.046,0,1.798-0.312,2.477-0.954
								l1.523,1.651c-0.917,1.046-2.294,1.597-4.074,1.597c-3.413,0-5.634-2.147-5.634-5.083c0-2.954,2.257-5.083,5.267-5.083
								c2.899,0,5.138,1.945,5.138,5.12C223.562,469.191,223.526,469.503,223.507,469.741 M216.002,468.071h4.863
								c-0.202-1.248-1.138-2.055-2.422-2.055C217.139,466.016,216.204,466.805,216.002,468.071"/>
						</g>
						<g>
							<path style="fill:#FFFFFF;" d="M224.735,468.934c0-2.973,2.294-5.083,5.505-5.083c2.074,0,3.707,0.899,4.423,2.514
								l-2.22,1.193c-0.532-0.936-1.321-1.358-2.221-1.358c-1.45,0-2.587,1.009-2.587,2.734c0,1.725,1.138,2.734,2.587,2.734
								c0.899,0,1.688-0.404,2.221-1.358l2.22,1.211c-0.716,1.578-2.349,2.495-4.423,2.495
								C227.029,474.017,224.735,471.907,224.735,468.934"/>
						</g>
						<g>
							<path style="fill:#FFFFFF;" d="M242.828,473.393c-0.587,0.422-1.45,0.624-2.331,0.624c-2.33,0-3.688-1.193-3.688-3.542
								v-4.055h-1.523v-2.202h1.523v-2.404h2.863v2.404h2.459v2.202h-2.459v4.019c0,0.844,0.458,1.303,1.229,1.303
								c0.422,0,0.844-0.128,1.156-0.367L242.828,473.393z"/>
						</g>
					</g>
					<g>
						<path style="fill:#FFFFFF;" d="M262.474,463.997v2.643c-0.238-0.018-0.422-0.037-0.642-0.037
							c-1.578,0-2.624,0.862-2.624,2.753v4.661h-2.863v-9.873h2.734v1.303C259.776,464.493,260.951,463.997,262.474,463.997"/>
					</g>
					<g>
						<path style="fill:#FFFFFF;" d="M263.299,472.53l1.009-2.239c1.083,0.789,2.697,1.339,4.239,1.339
							c1.762,0,2.477-0.587,2.477-1.376c0-2.404-7.469-0.752-7.469-5.524c0-2.184,1.762-4,5.413-4c1.615,0,3.267,0.385,4.459,1.138
							l-0.918,2.257c-1.193-0.679-2.422-1.009-3.56-1.009c-1.761,0-2.44,0.66-2.44,1.468c0,2.367,7.468,0.734,7.468,5.45
							c0,2.147-1.78,3.982-5.45,3.982C266.492,474.017,264.437,473.411,263.299,472.53"/>
					</g>
					<g>
						<path style="fill:#FFFFFF;" d="M285.428,469.741h-7.469c0.275,1.23,1.321,1.982,2.826,1.982c1.046,0,1.798-0.312,2.477-0.954
							l1.523,1.651c-0.918,1.046-2.294,1.597-4.074,1.597c-3.413,0-5.634-2.147-5.634-5.083c0-2.954,2.257-5.083,5.267-5.083
							c2.9,0,5.138,1.945,5.138,5.12C285.484,469.191,285.447,469.503,285.428,469.741 M277.923,468.071h4.863
							c-0.202-1.248-1.138-2.055-2.422-2.055C279.061,466.016,278.125,466.805,277.923,468.071"/>
					</g>
					<g>
						<path style="fill:#FFFFFF;" d="M297.007,469.741h-7.469c0.275,1.23,1.321,1.982,2.826,1.982c1.046,0,1.798-0.312,2.477-0.954
							l1.523,1.651c-0.918,1.046-2.294,1.597-4.074,1.597c-3.413,0-5.634-2.147-5.634-5.083c0-2.954,2.257-5.083,5.267-5.083
							c2.899,0,5.138,1.945,5.138,5.12C297.062,469.191,297.025,469.503,297.007,469.741 M289.501,468.071h4.863
							c-0.202-1.248-1.138-2.055-2.422-2.055C290.639,466.016,289.703,466.805,289.501,468.071"/>
					</g>
					<g>
						<polygon style="fill:#FFFFFF;" points="303.208,470.145 301.831,471.503 301.831,474.017 298.969,474.017 298.969,460.401 
							301.831,460.401 301.831,468.108 306.016,464.144 309.429,464.144 305.318,468.328 309.796,474.017 306.327,474.017 						"/>
					</g>
					<g>
						<path style="fill:#FFFFFF;" d="M256.601,475.359L256.601,475.359l-2.86-2.86c-0.435,0.508-0.953,0.943-1.534,1.284
							c-0.092,0.069-0.186,0.136-0.283,0.199l3.027,3.027c0.456,0.456,1.195,0.456,1.65,0
							C257.057,476.554,257.057,475.815,256.601,475.359"/>
					</g>
					<g>
						<path style="fill:#FFFFFF;" d="M249.984,463.244c0.221-0.173,0.495-0.281,0.797-0.281c0.042,0,0.083,0.002,0.124,0.006
							c-0.214-0.156-0.478-0.249-0.764-0.249c-0.395,0-0.744,0.18-0.981,0.458c-0.051,0-0.1,0.006-0.151,0.008
							c0.039-0.077,0.064-0.162,0.064-0.255c0-0.234-0.143-0.434-0.346-0.519c0.087,0.126,0.138,0.279,0.138,0.445
							c0,0.122-0.031,0.237-0.081,0.341c-2.811,0.201-5.03,2.539-5.03,5.4c0,2.993,2.426,5.42,5.42,5.42
							c2.993,0,5.42-2.426,5.42-5.42C254.595,465.879,252.593,463.635,249.984,463.244 M247.983,464.656
							c0.435,0,0.844,0.112,1.199,0.309c0.374-0.245,0.82-0.387,1.299-0.387c0.711,0,1.348,0.312,1.784,0.806
							c-0.435-0.379-1.004-0.61-1.627-0.61c-0.449,0-0.87,0.12-1.234,0.329c-0.079,0.046-0.156,0.096-0.229,0.15
							c-0.065-0.048-0.133-0.093-0.204-0.134c-0.369-0.219-0.8-0.344-1.26-0.344c-0.3,0-0.588,0.054-0.854,0.152
							C247.196,464.754,247.578,464.656,247.983,464.656 M251.772,469.098c0.115,0.305,0.181,0.634,0.181,0.979
							c0,1.534-1.244,2.777-2.778,2.777c-1.534,0-2.777-1.243-2.777-2.777c0-0.345,0.066-0.674,0.181-0.979
							c-0.62-0.382-1.035-1.064-1.035-1.846c0-1.197,0.971-2.168,2.168-2.168c0.565,0,1.078,0.218,1.463,0.572
							c0.386-0.354,0.899-0.572,1.464-0.572c1.197,0,2.168,0.971,2.168,2.168C252.807,468.034,252.392,468.716,251.772,469.098"/>
					</g>
					<g>
						<path style="fill:#FFFFFF;" d="M251.666,467.061c0,0.497-0.404,0.901-0.901,0.901c-0.497,0-0.901-0.404-0.901-0.901
							s0.404-0.901,0.901-0.901c0.101,0,0.197,0.017,0.287,0.047c-0.03,0.062-0.045,0.132-0.045,0.204
							c0,0.273,0.221,0.494,0.494,0.494c0.05,0,0.099-0.008,0.146-0.022C251.66,466.941,251.666,467,251.666,467.061"/>
					</g>
					<g>
						<path style="fill:#FFFFFF;" d="M248.255,467.061c0,0.376-0.305,0.681-0.681,0.681c-0.376,0-0.681-0.305-0.681-0.681
							s0.305-0.681,0.681-0.681c0.076,0,0.149,0.013,0.217,0.035c-0.023,0.047-0.034,0.1-0.034,0.155
							c0,0.206,0.167,0.374,0.374,0.374c0.038,0,0.075-0.006,0.11-0.017C248.25,466.97,248.255,467.015,248.255,467.061"/>
					</g>
					<g>
						<g>
							<g>
								<rect x="242.908" y="467.83" style="fill:#FFFFFF;" width="0.616" height="0.616"/>
							</g>
							<g>
								<rect x="254.827" y="467.83" style="fill:#FFFFFF;" width="0.616" height="0.616"/>
							</g>
							<g>
								<path style="fill:#FFFFFF;" d="M255.205,468.082h-0.14c0-3.248-2.642-5.89-5.89-5.89c-3.248,0-5.89,2.642-5.89,5.89h-0.14
									c0-1.611,0.627-3.125,1.766-4.264c1.139-1.139,2.653-1.766,4.264-1.766c1.611,0,3.125,0.627,4.264,1.766
									C254.578,464.957,255.205,466.471,255.205,468.082"/>
							</g>
						</g>
						<g>
							<rect x="248.868" y="461.814" style="fill:#FFFFFF;" width="0.616" height="0.616"/>
						</g>
						<g>
							<rect x="244.95" y="462.052" style="fill:#FFFFFF;" width="8.45" height="0.14"/>
						</g>
						<g>
							<path style="fill:#FFFFFF;" d="M245.174,462.15c0,0.108-0.088,0.196-0.196,0.196c-0.108,0-0.196-0.088-0.196-0.196
								c0-0.108,0.088-0.196,0.196-0.196C245.086,461.954,245.174,462.042,245.174,462.15"/>
						</g>
						<g>
							<path style="fill:#FFFFFF;" d="M253.596,462.15c0,0.108-0.088,0.196-0.196,0.196c-0.108,0-0.196-0.088-0.196-0.196
								c0-0.108,0.088-0.196,0.196-0.196C253.509,461.954,253.596,462.042,253.596,462.15"/>
						</g>
					</g>
				</g>
				<g>
					<path style="fill:#FFFFFF;" d="M314.356,473.409c0,1.559-2.364,1.559-2.364,0C311.993,471.851,314.356,471.851,314.356,473.409
						z"/>
				</g>
				<g>
					<g>
						<g>
							<path style="fill:#FFFFFF;" d="M161.739,466.549l1.772,6.088l1.855-6.088h2.215l-2.823,8.14h-2.33l-0.837-2.396l-0.722-2.708
								l-0.722,2.708l-0.837,2.396h-2.33l-2.839-8.14h2.231l1.855,6.088l1.756-6.088H161.739z"/>
						</g>
						<g>
							<path style="fill:#FFFFFF;" d="M176.713,466.549l1.772,6.088l1.855-6.088h2.215l-2.823,8.14h-2.33l-0.837-2.396l-0.722-2.708
								l-0.722,2.708l-0.837,2.396h-2.33l-2.839-8.14h2.231l1.855,6.088l1.756-6.088H176.713z"/>
						</g>
						<g>
							<path style="fill:#FFFFFF;" d="M191.687,466.549l1.772,6.088l1.855-6.088h2.215l-2.823,8.14h-2.33l-0.837-2.396l-0.722-2.708
								l-0.722,2.708l-0.837,2.396h-2.33l-2.839-8.14h2.231l1.855,6.088l1.756-6.088H191.687z"/>
						</g>
					</g>
					<g>
						<path style="fill:#FFFFFF;" d="M200.908,473.52c0,1.559-2.364,1.559-2.364,0C198.545,471.962,200.908,471.962,200.908,473.52z
							"/>
					</g>
					<g>
						<path style="fill:#FFFFFF;" d="M322.71,473.409c-0.935,0.919-1.919,1.28-3.117,1.28c-2.346,0-4.3-1.411-4.3-4.282
							s1.953-4.284,4.3-4.284c1.149,0,2.035,0.329,2.921,1.199l-1.264,1.329c-0.476-0.428-1.066-0.64-1.623-0.64
							c-1.346,0-2.33,0.985-2.33,2.396c0,1.542,1.05,2.362,2.297,2.362c0.64,0,1.28-0.18,1.772-0.672L322.71,473.409z"/>
					</g>
					<g>
						<path style="fill:#FFFFFF;" d="M331.805,470.472c0,2.33-1.591,4.217-4.217,4.217c-2.626,0-4.201-1.887-4.201-4.217
							c0-2.314,1.609-4.217,4.185-4.217C330.149,466.255,331.805,468.158,331.805,470.472z M325.389,470.472
							c0,1.231,0.739,2.38,2.199,2.38c1.46,0,2.199-1.149,2.199-2.38c0-1.215-0.854-2.396-2.199-2.396
							C326.144,468.077,325.389,469.258,325.389,470.472z"/>
					</g>
					<g>
						<path style="fill:#FFFFFF;" d="M338.572,474.689v-4.332c0-1.068-0.559-2.035-1.658-2.035c-1.082,0-1.722,0.967-1.722,2.035
							v4.332h-2.003v-8.107h1.855l0.148,0.985c0.426-0.82,1.362-1.116,2.133-1.116c0.969,0,1.937,0.394,2.396,1.51
							c0.723-1.149,1.658-1.478,2.708-1.478c2.297,0,3.43,1.412,3.43,3.84v4.365h-2.003v-4.365c0-1.066-0.442-1.97-1.526-1.97
							c-1.082,0-1.756,0.935-1.756,2.003v4.332H338.572z"/>
					</g>
				</g>
			</g>
		</g>
		<g style="opacity:0.61;">
			<g>
				<g>
					<path style="fill:#FFFFFF;" d="M345.988,431.299c-0.006-1.224-0.959-2.121-2.189-2.14c-0.924-0.014-0.832,0.12-0.834-0.867
						c-0.003-1.097-0.007-2.194,0.003-3.292c0.003-0.379-0.112-0.691-0.362-0.976c-2.342-2.668-4.678-5.342-7.019-8.011
						c-0.12-0.137-0.275-0.244-0.414-0.366c-6.214,0-12.427,0-18.641,0c-0.794,0.293-1.14,0.868-1.138,1.709
						c0.01,3.748,0.004,7.496,0.004,11.243c0,0.556-0.003,0.589-0.55,0.551c-1.497-0.102-2.516,0.986-2.497,2.492
						c0.044,3.476,0.013,6.953,0.014,10.429c0.001,1.58,0.867,2.443,2.45,2.449c0.582,0.002,0.582,0.002,0.582,0.6
						c0,2.219-0.001,4.438,0.001,6.657c0.001,1.192,0.58,1.771,1.768,1.771c8.013,0.001,16.027,0.001,24.04,0
						c1.168,0,1.755-0.583,1.757-1.745c0.002-2.256,0-4.512,0.001-6.768c0-0.512,0.002-0.511,0.52-0.515
						c0.271-0.002,0.541,0.008,0.809-0.058c0.996-0.246,1.69-1.044,1.694-2.069C346.003,438.696,346.005,434.997,345.988,431.299z
						 M317.537,417.162c5.337,0,10.674,0,16.01,0c0.548,0,0.554,0.007,0.554,0.561c0.001,2.243-0.001,4.486,0.001,6.73
						c0.001,0.811,0.249,1.059,1.06,1.059c1.91,0.001,3.821,0,5.731,0.001c0.458,0,0.479,0.021,0.481,0.483
						c0.003,0.887,0.002,1.775,0,2.662c-0.001,0.477-0.024,0.498-0.504,0.499c-3.895,0.001-7.79,0-11.684,0
						c-3.882,0-7.765,0-11.647,0c-0.55,0-0.552-0.001-0.552-0.561c-0.001-3.624-0.001-7.247,0-10.871
						C316.987,417.166,316.991,417.162,317.537,417.162z M340.822,451.579c-3.883,0.001-7.766,0-11.65,0c-3.871,0-7.742,0-11.613,0
						c-0.572,0-0.574-0.002-0.574-0.579c-0.001-1.997-0.001-3.994,0.001-5.991c0-0.464,0.023-0.486,0.478-0.487
						c7.803-0.001,15.607-0.001,23.41,0c0.478,0,0.499,0.02,0.499,0.503c0.002,1.997,0.001,3.994,0,5.991
						C341.375,451.574,341.37,451.579,340.822,451.579z"/>
				</g>
				<g>
					<g>
						<rect x="327.418" y="417.053" style="fill:#FFFFFF;" width="1.757" height="1.054"/>
					</g>
					<g>
						<rect x="325.662" y="418.107" style="fill:#FFFFFF;" width="1.757" height="1.054"/>
					</g>
					<g>
						<rect x="327.418" y="419.161" style="fill:#FFFFFF;" width="1.757" height="1.054"/>
					</g>
					<g>
						<rect x="325.662" y="420.215" style="fill:#FFFFFF;" width="1.757" height="1.054"/>
					</g>
					<g>
						<rect x="327.418" y="421.269" style="fill:#FFFFFF;" width="1.757" height="1.054"/>
					</g>
					<g>
						<rect x="325.662" y="422.323" style="fill:#FFFFFF;" width="1.757" height="1.054"/>
					</g>
					<g>
						<rect x="327.418" y="423.378" style="fill:#FFFFFF;" width="1.757" height="1.054"/>
					</g>
					<g>
						<rect x="325.662" y="424.432" style="fill:#FFFFFF;" width="1.757" height="1.054"/>
					</g>
					<g>
						<rect x="327.418" y="425.486" style="fill:#FFFFFF;" width="1.757" height="1.054"/>
					</g>
					<g>
						<rect x="325.662" y="426.54" style="fill:#FFFFFF;" width="1.757" height="1.054"/>
					</g>
					<g>
						<rect x="327.418" y="427.594" style="fill:#FFFFFF;" width="1.757" height="1.054"/>
					</g>
					<g>
						<rect x="325.662" y="428.648" style="fill:#FFFFFF;" width="1.757" height="1.054"/>
					</g>
				</g>
			</g>
			<g>
				<path style="fill:#FFFFFF;" d="M187.637,431.299c-0.006-1.224-0.959-2.121-2.189-2.14c-0.924-0.014-0.832,0.12-0.834-0.867
					c-0.003-1.097-0.007-2.194,0.003-3.292c0.003-0.379-0.112-0.691-0.362-0.976c-2.342-2.668-4.678-5.342-7.019-8.011
					c-0.12-0.137-0.275-0.244-0.414-0.366c-6.214,0-12.427,0-18.641,0c-0.794,0.293-1.14,0.868-1.138,1.709
					c0.01,3.748,0.004,7.496,0.004,11.243c0,0.556-0.003,0.589-0.55,0.551c-1.497-0.102-2.516,0.986-2.497,2.492
					c0.044,3.476,0.013,6.953,0.014,10.429c0.001,1.58,0.867,2.443,2.45,2.449c0.582,0.002,0.582,0.002,0.582,0.6
					c0,2.219-0.001,4.438,0.001,6.657c0.001,1.192,0.58,1.771,1.768,1.771c8.013,0.001,16.027,0.001,24.04,0
					c1.168,0,1.755-0.583,1.757-1.745c0.002-2.256,0-4.512,0.001-6.768c0-0.512,0.002-0.511,0.52-0.515
					c0.271-0.002,0.541,0.008,0.809-0.058c0.996-0.246,1.69-1.044,1.694-2.069C187.652,438.696,187.655,434.997,187.637,431.299z
					 M159.187,417.162c5.337,0,10.674,0,16.01,0c0.548,0,0.554,0.007,0.554,0.561c0.001,2.243-0.001,4.486,0.001,6.73
					c0.001,0.811,0.249,1.059,1.06,1.059c1.91,0.001,3.821,0,5.731,0.001c0.458,0,0.479,0.021,0.481,0.483
					c0.003,0.887,0.002,1.775,0,2.662c-0.001,0.477-0.024,0.498-0.504,0.499c-3.895,0.001-7.79,0-11.684,0
					c-3.882,0-7.765,0-11.647,0c-0.55,0-0.552-0.001-0.552-0.561c-0.001-3.624-0.001-7.247,0-10.871
					C158.636,417.166,158.64,417.162,159.187,417.162z M182.472,451.579c-3.883,0.001-7.766,0-11.65,0c-3.871,0-7.742,0-11.613,0
					c-0.572,0-0.574-0.002-0.574-0.579c-0.001-1.997-0.001-3.994,0.001-5.991c0-0.464,0.023-0.486,0.478-0.487
					c7.803-0.001,15.607-0.001,23.41,0c0.478,0,0.499,0.02,0.499,0.503c0.002,1.997,0.001,3.994,0,5.991
					C183.024,451.574,183.019,451.579,182.472,451.579z"/>
			</g>
			<g>
				<path style="fill:#FFFFFF;" d="M159.779,440.669v-7.897h2.779c0.375,0,0.726,0.061,1.053,0.182
					c0.327,0.121,0.612,0.292,0.855,0.513c0.242,0.221,0.434,0.483,0.573,0.789c0.14,0.305,0.21,0.642,0.21,1.009
					c0,0.375-0.07,0.715-0.21,1.02c-0.14,0.305-0.331,0.568-0.573,0.789c-0.243,0.221-0.528,0.392-0.855,0.513
					c-0.327,0.121-0.678,0.182-1.053,0.182h-1.29v2.901H159.779z M162.58,436.356c0.39,0,0.684-0.111,0.882-0.331
					c0.199-0.22,0.298-0.474,0.298-0.761c0-0.14-0.024-0.276-0.072-0.408c-0.048-0.132-0.121-0.248-0.221-0.347
					c-0.099-0.099-0.223-0.178-0.37-0.237c-0.147-0.059-0.32-0.089-0.518-0.089h-1.312v2.173H162.58z"/>
				<path style="fill:#FFFFFF;" d="M166.308,432.771h1.731l3.177,5.294h0.088l-0.088-1.522v-3.772h1.478v7.897h-1.566l-3.353-5.592
					h-0.088l0.088,1.522v4.07h-1.467V432.771z"/>
				<path style="fill:#FFFFFF;" d="M177.922,436.334h3.872c0.022,0.089,0.04,0.195,0.055,0.32c0.014,0.125,0.022,0.25,0.022,0.375
					c0,0.507-0.077,0.985-0.231,1.434c-0.154,0.449-0.397,0.849-0.728,1.202c-0.353,0.375-0.776,0.666-1.268,0.871
					c-0.493,0.206-1.055,0.309-1.688,0.309c-0.574,0-1.114-0.103-1.622-0.309c-0.507-0.206-0.948-0.492-1.323-0.86
					c-0.375-0.367-0.673-0.803-0.894-1.307c-0.221-0.504-0.331-1.053-0.331-1.649c0-0.595,0.11-1.145,0.331-1.649
					c0.221-0.504,0.518-0.939,0.894-1.307c0.375-0.367,0.816-0.654,1.323-0.86c0.507-0.206,1.048-0.309,1.622-0.309
					c0.64,0,1.211,0.11,1.715,0.331c0.504,0.221,0.935,0.526,1.296,0.915l-1.025,1.004c-0.258-0.272-0.544-0.48-0.861-0.623
					c-0.316-0.143-0.695-0.215-1.136-0.215c-0.361,0-0.703,0.065-1.026,0.193c-0.324,0.129-0.607,0.311-0.85,0.546
					c-0.242,0.235-0.436,0.52-0.579,0.855c-0.143,0.335-0.215,0.708-0.215,1.119c0,0.412,0.072,0.785,0.215,1.12
					c0.143,0.335,0.338,0.62,0.584,0.855c0.246,0.235,0.531,0.418,0.855,0.546c0.323,0.129,0.669,0.193,1.037,0.193
					c0.419,0,0.773-0.061,1.064-0.182c0.29-0.121,0.538-0.278,0.744-0.469c0.148-0.132,0.275-0.3,0.381-0.502
					c0.106-0.202,0.189-0.428,0.248-0.678h-2.482V436.334z"/>
			</g>
			<g>
				<path style="fill:#FFFFFF;" d="M224.019,431.299c-0.006-1.224-0.959-2.121-2.189-2.14c-0.924-0.014-0.832,0.12-0.834-0.867
					c-0.003-1.097-0.007-2.194,0.003-3.292c0.003-0.379-0.112-0.691-0.362-0.976c-2.342-2.668-4.678-5.342-7.019-8.011
					c-0.12-0.137-0.275-0.244-0.414-0.366c-6.214,0-12.427,0-18.641,0c-0.794,0.293-1.14,0.868-1.138,1.709
					c0.01,3.748,0.004,7.496,0.004,11.243c0,0.556-0.003,0.589-0.55,0.551c-1.497-0.102-2.516,0.986-2.497,2.492
					c0.044,3.476,0.013,6.953,0.014,10.429c0.001,1.58,0.867,2.443,2.45,2.449c0.582,0.002,0.582,0.002,0.582,0.6
					c0,2.219-0.001,4.438,0.001,6.657c0.001,1.192,0.58,1.771,1.768,1.771c8.013,0.001,16.027,0.001,24.04,0
					c1.168,0,1.755-0.583,1.757-1.745c0.002-2.256,0-4.512,0.001-6.768c0-0.512,0.002-0.511,0.52-0.515
					c0.271-0.002,0.541,0.008,0.809-0.058c0.997-0.246,1.69-1.044,1.694-2.069C224.034,438.696,224.036,434.997,224.019,431.299z
					 M195.568,417.162c5.337,0,10.674,0,16.01,0c0.548,0,0.554,0.007,0.554,0.561c0.001,2.243-0.001,4.486,0.001,6.73
					c0.001,0.811,0.249,1.059,1.06,1.059c1.91,0.001,3.821,0,5.731,0.001c0.458,0,0.479,0.021,0.481,0.483
					c0.003,0.887,0.002,1.775,0,2.662c-0.001,0.477-0.024,0.498-0.504,0.499c-3.895,0.001-7.79,0-11.684,0
					c-3.882,0-7.765,0-11.647,0c-0.55,0-0.552-0.001-0.552-0.561c-0.001-3.624-0.001-7.247,0-10.871
					C195.018,417.166,195.022,417.162,195.568,417.162z M218.854,451.579c-3.883,0.001-7.766,0-11.65,0c-3.871,0-7.742,0-11.613,0
					c-0.572,0-0.574-0.002-0.574-0.579c-0.001-1.997-0.001-3.994,0.001-5.991c0-0.464,0.023-0.486,0.478-0.487
					c7.803-0.001,15.607-0.001,23.41,0c0.478,0,0.499,0.02,0.499,0.503c0.002,1.997,0.001,3.994,0,5.991
					C219.406,451.574,219.401,451.579,218.854,451.579z"/>
			</g>
			<g>
				<path style="fill:#FFFFFF;" d="M205.111,432.771h1.699l2.967,7.897h-1.644l-0.651-1.886h-3.044l-0.651,1.886h-1.643
					L205.111,432.771z M206.997,437.415l-0.706-1.974l-0.287-0.96h-0.088l-0.287,0.96l-0.706,1.974H206.997z"/>
				<path style="fill:#FFFFFF;" d="M211.331,434.536c-0.125,0-0.245-0.024-0.359-0.072c-0.114-0.048-0.213-0.114-0.298-0.199
					c-0.084-0.084-0.151-0.182-0.198-0.292c-0.048-0.11-0.072-0.232-0.072-0.364s0.024-0.254,0.072-0.364
					c0.048-0.11,0.114-0.208,0.198-0.292c0.084-0.084,0.184-0.151,0.298-0.198c0.114-0.048,0.233-0.072,0.359-0.072
					c0.257,0,0.478,0.09,0.662,0.27c0.184,0.181,0.276,0.399,0.276,0.656s-0.092,0.476-0.276,0.656
					C211.809,434.446,211.589,434.536,211.331,434.536z M210.615,440.669v-5.404h1.445v5.404H210.615z"/>
			</g>
			<g>
				<path style="fill:#FFFFFF;" d="M261.044,431.299c-0.006-1.224-0.959-2.121-2.189-2.14c-0.924-0.014-0.832,0.12-0.834-0.867
					c-0.003-1.097-0.007-2.194,0.003-3.292c0.003-0.379-0.112-0.691-0.362-0.976c-2.342-2.668-4.678-5.342-7.019-8.011
					c-0.12-0.137-0.275-0.244-0.414-0.366c-6.214,0-12.427,0-18.641,0c-0.794,0.293-1.14,0.868-1.138,1.709
					c0.01,3.748,0.004,7.496,0.004,11.243c0,0.556-0.003,0.589-0.55,0.551c-1.497-0.102-2.516,0.986-2.497,2.492
					c0.044,3.476,0.013,6.953,0.014,10.429c0.001,1.58,0.867,2.443,2.45,2.449c0.582,0.002,0.582,0.002,0.582,0.6
					c0,2.219-0.001,4.438,0.001,6.657c0.001,1.192,0.58,1.771,1.768,1.771c8.013,0.001,16.027,0.001,24.04,0
					c1.168,0,1.755-0.583,1.757-1.745c0.002-2.256,0-4.512,0.001-6.768c0-0.512,0.002-0.511,0.52-0.515
					c0.271-0.002,0.541,0.008,0.809-0.058c0.996-0.246,1.69-1.044,1.694-2.069C261.059,438.696,261.061,434.997,261.044,431.299z
					 M232.593,417.162c5.337,0,10.674,0,16.01,0c0.548,0,0.554,0.007,0.554,0.561c0.001,2.243-0.001,4.486,0.001,6.73
					c0.001,0.811,0.249,1.059,1.06,1.059c1.91,0.001,3.821,0,5.731,0.001c0.458,0,0.479,0.021,0.481,0.483
					c0.003,0.887,0.002,1.775,0,2.662c-0.001,0.477-0.024,0.498-0.504,0.499c-3.895,0.001-7.79,0-11.684,0
					c-3.882,0-7.765,0-11.647,0c-0.55,0-0.552-0.001-0.552-0.561c-0.001-3.624-0.001-7.247,0-10.871
					C232.042,417.166,232.047,417.162,232.593,417.162z M255.878,451.579c-3.883,0.001-7.766,0-11.65,0c-3.871,0-7.742,0-11.613,0
					c-0.572,0-0.574-0.002-0.574-0.579c-0.001-1.997-0.001-3.994,0.001-5.991c0-0.464,0.023-0.486,0.478-0.487
					c7.803-0.001,15.607-0.001,23.41,0c0.478,0,0.499,0.02,0.499,0.503c0.002,1.997,0.001,3.994,0,5.991
					C256.431,451.574,256.426,451.579,255.878,451.579z"/>
			</g>
			<g>
				<path style="fill:#FFFFFF;" d="M236.361,440.845c-0.338,0-0.662-0.048-0.971-0.143c-0.309-0.095-0.592-0.239-0.849-0.43
					c-0.257-0.191-0.481-0.425-0.673-0.7c-0.191-0.276-0.342-0.597-0.452-0.965l1.401-0.551c0.103,0.397,0.283,0.726,0.54,0.987
					c0.257,0.261,0.596,0.392,1.015,0.392c0.154,0,0.303-0.02,0.447-0.061c0.143-0.04,0.272-0.099,0.386-0.176
					s0.204-0.175,0.27-0.292c0.066-0.118,0.099-0.254,0.099-0.408c0-0.147-0.026-0.279-0.077-0.397
					c-0.051-0.117-0.138-0.227-0.259-0.331c-0.121-0.103-0.28-0.202-0.475-0.298c-0.195-0.095-0.435-0.195-0.722-0.298l-0.485-0.176
					c-0.213-0.073-0.429-0.173-0.645-0.298c-0.217-0.125-0.413-0.276-0.59-0.452c-0.177-0.176-0.322-0.384-0.436-0.623
					c-0.114-0.239-0.171-0.509-0.171-0.81c0-0.309,0.06-0.597,0.182-0.866c0.121-0.268,0.294-0.503,0.518-0.706
					c0.224-0.202,0.492-0.36,0.805-0.474s0.66-0.171,1.042-0.171c0.397,0,0.74,0.053,1.031,0.16
					c0.291,0.107,0.537,0.243,0.739,0.408c0.202,0.165,0.366,0.348,0.491,0.546c0.125,0.199,0.217,0.386,0.276,0.563l-1.312,0.551
					c-0.074-0.221-0.208-0.419-0.402-0.596c-0.195-0.176-0.462-0.265-0.8-0.265c-0.324,0-0.592,0.075-0.805,0.226
					c-0.213,0.151-0.32,0.348-0.32,0.59c0,0.235,0.103,0.436,0.309,0.601c0.206,0.165,0.533,0.325,0.982,0.48l0.497,0.165
					c0.316,0.111,0.605,0.237,0.866,0.381c0.261,0.143,0.485,0.314,0.673,0.513c0.187,0.199,0.331,0.425,0.43,0.678
					c0.1,0.254,0.149,0.546,0.149,0.877c0,0.412-0.083,0.767-0.248,1.064c-0.165,0.298-0.377,0.542-0.634,0.734
					c-0.258,0.191-0.548,0.335-0.872,0.43C236.986,440.797,236.67,440.845,236.361,440.845z"/>
				<path style="fill:#FFFFFF;" d="M239.516,432.771h1.61l1.633,4.754l0.287,1.015h0.088l0.309-1.015l1.699-4.754h1.61l-2.879,7.897
					h-1.566L239.516,432.771z"/>
				<path style="fill:#FFFFFF;" d="M251.097,436.334h3.871c0.022,0.089,0.04,0.195,0.055,0.32c0.015,0.125,0.023,0.25,0.023,0.375
					c0,0.507-0.078,0.985-0.232,1.434c-0.154,0.449-0.397,0.849-0.728,1.202c-0.353,0.375-0.775,0.666-1.268,0.871
					c-0.493,0.206-1.055,0.309-1.688,0.309c-0.574,0-1.114-0.103-1.621-0.309c-0.507-0.206-0.949-0.492-1.324-0.86
					c-0.375-0.367-0.673-0.803-0.894-1.307c-0.22-0.504-0.331-1.053-0.331-1.649c0-0.595,0.11-1.145,0.331-1.649
					c0.221-0.504,0.518-0.939,0.894-1.307c0.375-0.367,0.816-0.654,1.324-0.86c0.507-0.206,1.047-0.309,1.621-0.309
					c0.64,0,1.211,0.11,1.715,0.331c0.504,0.221,0.936,0.526,1.296,0.915l-1.026,1.004c-0.257-0.272-0.544-0.48-0.861-0.623
					c-0.316-0.143-0.694-0.215-1.136-0.215c-0.36,0-0.702,0.065-1.026,0.193c-0.323,0.129-0.607,0.311-0.849,0.546
					c-0.243,0.235-0.436,0.52-0.579,0.855c-0.143,0.335-0.215,0.708-0.215,1.119c0,0.412,0.072,0.785,0.215,1.12
					c0.143,0.335,0.338,0.62,0.585,0.855c0.246,0.235,0.531,0.418,0.854,0.546c0.324,0.129,0.669,0.193,1.037,0.193
					c0.419,0,0.774-0.061,1.064-0.182c0.29-0.121,0.539-0.278,0.745-0.469c0.147-0.132,0.274-0.3,0.38-0.502
					c0.107-0.202,0.189-0.428,0.248-0.678h-2.482V436.334z"/>
			</g>
			<g>
				<path style="fill:#FFFFFF;" d="M297.3,431.299c-0.006-1.224-0.959-2.121-2.189-2.14c-0.924-0.014-0.832,0.12-0.834-0.867
					c-0.003-1.097-0.007-2.194,0.003-3.292c0.003-0.379-0.112-0.691-0.362-0.976c-2.342-2.668-4.678-5.342-7.019-8.011
					c-0.12-0.137-0.275-0.244-0.414-0.366c-6.214,0-12.427,0-18.641,0c-0.794,0.293-1.14,0.868-1.138,1.709
					c0.01,3.748,0.004,7.496,0.004,11.243c0,0.556-0.003,0.589-0.55,0.551c-1.497-0.102-2.516,0.986-2.497,2.492
					c0.044,3.476,0.013,6.953,0.014,10.429c0.001,1.58,0.867,2.443,2.45,2.449c0.582,0.002,0.582,0.002,0.582,0.6
					c0,2.219-0.001,4.438,0.001,6.657c0.001,1.192,0.58,1.771,1.768,1.771c8.013,0.001,16.027,0.001,24.04,0
					c1.168,0,1.755-0.583,1.757-1.745c0.002-2.256,0-4.512,0.001-6.768c0-0.512,0.002-0.511,0.52-0.515
					c0.271-0.002,0.541,0.008,0.809-0.058c0.996-0.246,1.69-1.044,1.694-2.069C297.315,438.696,297.318,434.997,297.3,431.299z
					 M268.85,417.162c5.337,0,10.674,0,16.01,0c0.548,0,0.554,0.007,0.554,0.561c0.001,2.243-0.001,4.486,0.001,6.73
					c0.001,0.811,0.249,1.059,1.06,1.059c1.91,0.001,3.821,0,5.731,0.001c0.458,0,0.479,0.021,0.481,0.483
					c0.003,0.887,0.002,1.775,0,2.662c-0.001,0.477-0.024,0.498-0.504,0.499c-3.895,0.001-7.79,0-11.684,0
					c-3.882,0-7.765,0-11.647,0c-0.55,0-0.552-0.001-0.552-0.561c-0.001-3.624-0.001-7.247,0-10.871
					C268.299,417.166,268.303,417.162,268.85,417.162z M292.135,451.579c-3.883,0.001-7.766,0-11.65,0c-3.871,0-7.742,0-11.613,0
					c-0.572,0-0.574-0.002-0.574-0.579c-0.001-1.997-0.001-3.994,0.001-5.991c0-0.464,0.023-0.486,0.478-0.487
					c7.803-0.001,15.607-0.001,23.41,0c0.478,0,0.499,0.02,0.499,0.503c0.001,1.997,0.001,3.994,0,5.991
					C292.687,451.574,292.682,451.579,292.135,451.579z"/>
			</g>
			<g>
				<path style="fill:#FFFFFF;" d="M272.966,434.183v1.831h3.165v1.412h-3.165v1.831h3.518v1.412h-5.007v-7.897h5.007v1.412H272.966
					z"/>
				<path style="fill:#FFFFFF;" d="M277.852,440.669v-7.897h2.779c0.375,0,0.726,0.061,1.053,0.182
					c0.327,0.121,0.612,0.292,0.855,0.513c0.243,0.221,0.434,0.483,0.574,0.789c0.14,0.305,0.209,0.642,0.209,1.009
					c0,0.375-0.07,0.715-0.209,1.02c-0.14,0.305-0.331,0.568-0.574,0.789c-0.243,0.221-0.528,0.392-0.855,0.513
					c-0.327,0.121-0.678,0.182-1.053,0.182h-1.29v2.901H277.852z M280.653,436.356c0.389,0,0.684-0.111,0.882-0.331
					c0.199-0.22,0.298-0.474,0.298-0.761c0-0.14-0.024-0.276-0.072-0.408c-0.048-0.132-0.121-0.248-0.221-0.347
					c-0.099-0.099-0.222-0.178-0.37-0.237c-0.147-0.059-0.32-0.089-0.518-0.089h-1.312v2.173H280.653z"/>
				<path style="fill:#FFFFFF;" d="M286.797,440.845c-0.338,0-0.662-0.048-0.971-0.143c-0.309-0.095-0.592-0.239-0.849-0.43
					c-0.257-0.191-0.482-0.425-0.673-0.7c-0.191-0.276-0.342-0.597-0.452-0.965l1.401-0.551c0.103,0.397,0.283,0.726,0.541,0.987
					c0.257,0.261,0.595,0.392,1.015,0.392c0.154,0,0.303-0.02,0.447-0.061c0.143-0.04,0.272-0.099,0.386-0.176
					c0.114-0.077,0.204-0.175,0.27-0.292c0.066-0.118,0.1-0.254,0.1-0.408c0-0.147-0.026-0.279-0.077-0.397
					c-0.051-0.117-0.138-0.227-0.259-0.331c-0.121-0.103-0.279-0.202-0.474-0.298c-0.195-0.095-0.436-0.195-0.723-0.298
					l-0.485-0.176c-0.213-0.073-0.428-0.173-0.645-0.298c-0.217-0.125-0.414-0.276-0.59-0.452c-0.176-0.176-0.322-0.384-0.436-0.623
					c-0.114-0.239-0.171-0.509-0.171-0.81c0-0.309,0.061-0.597,0.182-0.866c0.121-0.268,0.294-0.503,0.518-0.706
					c0.224-0.202,0.493-0.36,0.805-0.474c0.312-0.114,0.66-0.171,1.042-0.171c0.397,0,0.741,0.053,1.031,0.16
					c0.29,0.107,0.537,0.243,0.739,0.408c0.202,0.165,0.365,0.348,0.491,0.546c0.125,0.199,0.217,0.386,0.276,0.563l-1.312,0.551
					c-0.074-0.221-0.208-0.419-0.403-0.596c-0.195-0.176-0.462-0.265-0.799-0.265c-0.324,0-0.592,0.075-0.805,0.226
					c-0.213,0.151-0.32,0.348-0.32,0.59c0,0.235,0.103,0.436,0.309,0.601c0.206,0.165,0.533,0.325,0.982,0.48l0.496,0.165
					c0.316,0.111,0.605,0.237,0.866,0.381c0.261,0.143,0.485,0.314,0.673,0.513c0.187,0.199,0.331,0.425,0.43,0.678
					c0.099,0.254,0.149,0.546,0.149,0.877c0,0.412-0.083,0.767-0.248,1.064c-0.165,0.298-0.377,0.542-0.634,0.734
					c-0.258,0.191-0.548,0.335-0.872,0.43C287.422,440.797,287.105,440.845,286.797,440.845z"/>
			</g>
			<g>
				<path style="fill:#FFFFFF;" d="M321.394,439.168l4.004-4.985h-3.827v-1.412h5.559v1.5l-3.96,4.985h4.004v1.412h-5.779V439.168z"
					/>
				<path style="fill:#FFFFFF;" d="M328.409,432.771h1.489v7.897h-1.489V432.771z"/>
				<path style="fill:#FFFFFF;" d="M331.486,440.669v-7.897h2.779c0.375,0,0.726,0.061,1.053,0.182
					c0.327,0.121,0.612,0.292,0.855,0.513s0.434,0.483,0.574,0.789c0.14,0.305,0.209,0.642,0.209,1.009
					c0,0.375-0.07,0.715-0.209,1.02c-0.14,0.305-0.331,0.568-0.574,0.789c-0.243,0.221-0.528,0.392-0.855,0.513
					c-0.327,0.121-0.678,0.182-1.053,0.182h-1.29v2.901H331.486z M334.288,436.356c0.389,0,0.684-0.111,0.882-0.331
					c0.199-0.22,0.298-0.474,0.298-0.761c0-0.14-0.024-0.276-0.072-0.408c-0.048-0.132-0.121-0.248-0.221-0.347
					c-0.099-0.099-0.222-0.178-0.37-0.237c-0.147-0.059-0.32-0.089-0.518-0.089h-1.312v2.173H334.288z"/>
			</g>
		</g>
		<g style="opacity:0.61;">
			<path style="fill:#FFFFFF;" d="M300.133,433.27h9.067v2.242h-9.067V433.27z M300.133,437.136h9.067v2.243h-9.067V437.136z"/>
		</g>
	</g>
	<g style="opacity:0.61;">
		<path style="fill:#FFFFFF;" d="M156.756,478.878h1.607c1.263,0,2.114,0.812,2.114,1.974c0,1.161-0.851,1.973-2.114,1.973h-1.607
			V478.878z M158.34,482.464c1.049,0,1.725-0.665,1.725-1.612c0-0.947-0.677-1.613-1.725-1.613h-1.167v3.225H158.34z"/>
		<path style="fill:#FFFFFF;" d="M165.139,480.851c0-1.15,0.879-2.007,2.075-2.007c1.184,0,2.069,0.851,2.069,2.007
			c0,1.156-0.885,2.007-2.069,2.007C166.019,482.858,165.139,482.002,165.139,480.851z M168.866,480.851
			c0-0.942-0.705-1.635-1.652-1.635c-0.953,0-1.663,0.693-1.663,1.635c0,0.941,0.71,1.635,1.663,1.635
			C168.162,482.486,168.866,481.793,168.866,480.851z"/>
		<path style="fill:#FFFFFF;" d="M179.596,478.878l-1.331,3.947h-0.44l-1.156-3.366l-1.161,3.366h-0.434l-1.331-3.947h0.429
			l1.139,3.394l1.178-3.394h0.389l1.161,3.411l1.156-3.411H179.596z"/>
		<path style="fill:#FFFFFF;" d="M187.731,478.878v3.947h-0.344l-2.537-3.202v3.202h-0.417v-3.947h0.344l2.543,3.203v-3.203H187.731
			z"/>
		<path style="fill:#FFFFFF;" d="M193.093,478.878h0.417v3.586h2.21v0.361h-2.627V478.878z"/>
		<path style="fill:#FFFFFF;" d="M200.061,480.851c0-1.15,0.879-2.007,2.075-2.007c1.184,0,2.069,0.851,2.069,2.007
			c0,1.156-0.885,2.007-2.069,2.007C200.941,482.858,200.061,482.002,200.061,480.851z M203.788,480.851
			c0-0.942-0.705-1.635-1.652-1.635c-0.953,0-1.663,0.693-1.663,1.635c0,0.941,0.71,1.635,1.663,1.635
			C203.083,482.486,203.788,481.793,203.788,480.851z"/>
		<path style="fill:#FFFFFF;" d="M211.636,481.77h-2.199l-0.474,1.054h-0.434l1.804-3.947h0.412l1.804,3.947h-0.44L211.636,481.77z
			 M211.484,481.432l-0.947-2.12l-0.947,2.12H211.484z"/>
		<path style="fill:#FFFFFF;" d="M217.28,478.878h1.607c1.263,0,2.114,0.812,2.114,1.974c0,1.161-0.851,1.973-2.114,1.973h-1.607
			V478.878z M218.864,482.464c1.049,0,1.725-0.665,1.725-1.612c0-0.947-0.677-1.613-1.725-1.613h-1.167v3.225H218.864z"/>
		<path style="fill:#FFFFFF;" d="M234.041,481.77h-2.199l-0.474,1.054h-0.434l1.804-3.947h0.412l1.804,3.947h-0.44L234.041,481.77z
			 M233.889,481.432l-0.947-2.12l-0.947,2.12H233.889z"/>
		<path style="fill:#FFFFFF;" d="M239.685,478.878h0.417v3.586h2.21v0.361h-2.627V478.878z"/>
		<path style="fill:#FFFFFF;" d="M247.082,478.878h0.417v3.586h2.21v0.361h-2.627V478.878z"/>
		<path style="fill:#FFFFFF;" d="M260.449,479.239v1.551h2.041v0.361h-2.041v1.675h-0.417v-3.947h2.706v0.361H260.449z"/>
		<path style="fill:#FFFFFF;" d="M267.678,478.878h0.417v3.947h-0.417V478.878z"/>
		<path style="fill:#FFFFFF;" d="M273.456,478.878h0.417v3.586h2.21v0.361h-2.627V478.878z"/>
		<path style="fill:#FFFFFF;" d="M283.644,482.464v0.361h-2.791v-3.947h2.706v0.361h-2.289v1.404h2.041v0.355h-2.041v1.466H283.644z
			"/>
		<path style="fill:#FFFFFF;" d="M294.672,479.239v1.551h2.041v0.361h-2.041v1.675h-0.417v-3.947h2.706v0.361H294.672z"/>
		<path style="fill:#FFFFFF;" d="M301.5,480.851c0-1.15,0.879-2.007,2.075-2.007c1.184,0,2.069,0.851,2.069,2.007
			c0,1.156-0.885,2.007-2.069,2.007C302.379,482.858,301.5,482.002,301.5,480.851z M305.226,480.851
			c0-0.942-0.705-1.635-1.652-1.635c-0.953,0-1.663,0.693-1.663,1.635c0,0.941,0.71,1.635,1.663,1.635
			C304.522,482.486,305.226,481.793,305.226,480.851z"/>
		<path style="fill:#FFFFFF;" d="M313.351,482.825l-0.902-1.269c-0.102,0.011-0.203,0.017-0.316,0.017h-1.06v1.252h-0.417v-3.947
			h1.477c1.004,0,1.613,0.507,1.613,1.353c0,0.62-0.327,1.054-0.902,1.24l0.964,1.353H313.351z M313.328,480.231
			c0-0.632-0.417-0.992-1.207-0.992h-1.048v1.979h1.048C312.911,481.218,313.328,480.851,313.328,480.231z"/>
		<path style="fill:#FFFFFF;" d="M322.907,478.878v3.947h-0.4v-3.158l-1.551,2.656h-0.197l-1.551-2.639v3.14h-0.4v-3.947h0.344
			l1.714,2.926l1.697-2.926H322.907z"/>
		<path style="fill:#FFFFFF;" d="M330.744,481.77h-2.199l-0.473,1.054h-0.434l1.804-3.947h0.411l1.804,3.947h-0.44L330.744,481.77z
			 M330.592,481.432l-0.947-2.12l-0.947,2.12H330.592z"/>
		<path style="fill:#FFFFFF;" d="M336.957,479.239h-1.387v-0.361h3.192v0.361h-1.387v3.586h-0.417V479.239z"/>
		<path style="fill:#FFFFFF;" d="M343.063,482.346l0.164-0.321c0.282,0.276,0.784,0.479,1.302,0.479c0.739,0,1.06-0.31,1.06-0.699
			c0-1.083-2.43-0.417-2.43-1.877c0-0.581,0.451-1.083,1.455-1.083c0.446,0,0.908,0.13,1.224,0.35l-0.141,0.333
			c-0.338-0.22-0.733-0.327-1.083-0.327c-0.722,0-1.043,0.321-1.043,0.716c0,1.083,2.43,0.429,2.43,1.866
			c0,0.581-0.462,1.077-1.472,1.077C343.937,482.858,343.356,482.65,343.063,482.346z"/>
	</g>
</g>
<g>
</g>
<g>
	<path style="fill:#D91A22;" d="M393.268,265.38c-17.928-3.077-34.696-15.469-41.872-32.371
		c-5.532-13.031-6.106-26.299-1.213-39.611c5.122-13.92,16.298-25.126,29.739-31.111c13.402-5.962,28.828-6.398,42.623-1.557
		c10.175,3.573,19.21,10.218,25.834,18.701c8.962,11.482,12.637,26.321,10.441,40.66c-2.295,14.955-11.149,27.559-23.36,36.167
		c-9.088,6.403-20.384,10.036-31.431,10.011C400.275,266.191,397.044,266.014,393.268,265.38 M401.449,233.868
		c0.828,0.065,2.615,0.082,3.443,0c5.843-0.587,11.258-3.521,14.882-8.177c5.476-7.046,6.3-17.152,1.959-24.975
		c-5.536-9.984-17.794-14.312-28.034-8.824c-7.702,4.13-12.466,13.01-11.624,21.743
		C383.058,223.909,390.761,233.027,401.449,233.868"/>
	<path style="fill:#D91A22;" d="M69.07,265.729c-5.458-0.82-10.645-2.688-15.068-6.028c-6.334-4.782-9.79-12.505-10.119-20.233
		c-0.638-14.973-0.107-30.597-0.107-45.639c-5.347,0-10.693,0.017-16.039,0c-2.153-0.009-4.393-1.791-4.522-3.875
		c-0.505-8.207-0.211-17.117-0.108-25.402c0.03-2.36,2.084-4.237,4.198-4.388c5.196-0.367,11.185-0.026,16.471-0.026
		c0-11.159-0.16-22.321,0.025-33.475c0.031-1.843,2.141-3.422,3.742-3.823c0.28-0.069,0.569-0.16,0.858-0.16
		c9.761,0,19.521-0.134,29.277,0c2.339,0.03,4.483,2.171,4.522,4.414c0.186,11.008,0,22.032,0,33.044
		c6.097,0,12.229-0.25,18.3,0.133c1.773,0.113,3.594,2.201,3.633,3.85c0.216,8.457,0.108,16.94,0.026,25.401
		c-0.022,2.318-2.403,4.247-4.522,4.307c-5.804,0.164-11.633,0-17.437,0c0,9.182-0.03,18.369,0,27.555
		c0.009,2.442,0.419,5.023,1.269,7.318c1.182,3.202,4.396,4.496,7.559,4.626c4.25,0.172,8.691-0.626,12.915-0.859
		c3.167-0.177,3.491,6.058,3.659,8.289c0.402,5.264,0.902,10.701,1.506,15.931c0.233,2.015-0.151,4.794-1.933,6.028
		c-1.105,0.759-2.373,1.048-3.664,1.29c-8.245,1.54-16.603,1.981-24.97,2.179C75.374,266.298,72.198,266.156,69.07,265.729"/>
	<path style="fill:#D91A22;" d="M301.132,438.162c-0.794-0.28-0.881-0.177-0.972-1.078c-0.414-4.104,0.027-8.311-0.353-12.423
		c-0.824,0.073-1.571,0.237-2.339,0.565c-0.535-0.297-1.053-0.811-0.966-1.489c0.111-0.867-0.251-1.16,0.673-1.79
		c0.578-0.392,2.382-1.907,2.666-2.085c1.07-0.664,2.214-0.837,3.443-0.512c0.657,0.176,0.869,0.789,0.86,1.375
		c-0.057,5.287,0.228,10.607,0.216,15.931c0,0.221-0.061,0.437-0.122,0.648C303.484,438.305,302.258,438.447,301.132,438.162"/>
	<path style="fill:#D91A22;" d="M275.729,265.492c-14.343-2.106-28.461-10.706-36.785-22.581
		c-8.284-11.822-12.086-25.704-9.497-40.042c1.303-7.232,4.004-14.11,8.069-20.232c9.713-14.637,26.636-24.436,44.241-25.187
		c12.875-0.552,24.431,2.736,34.873,10.382c7.128,5.221,13.075,12.353,16.738,20.401c1.459,3.206,4.194,8.505,2.235,11.65
		c-0.457,0.734-2.23,1.152-3.042,1.156c-9.467,0.074-18.964,0.152-28.418-0.108c-0.389-0.008-1.45-0.353-1.722-0.642
		c-1.791-1.942-3.327-3.983-5.165-5.869c-5.868-6.011-14.843-6.062-21.959-2.476c-7.771,3.918-12.073,12.772-11.624,21.259
		c0.263,4.915,2.304,9.614,5.437,13.346c5.182,6.167,14.023,8.932,21.686,6.43c2.171-0.708,4.164-1.916,5.869-3.413
		c1.648-1.459,3.448-3.724,4.897-5.386c0.54-0.621,2.214-0.962,3.013-0.966c9.328-0.06,18.657-0.06,27.986,0
		c1.351,0.004,2.96,0.669,3.361,2.045c0.989,3.361-3.409,12.759-5.298,15.931c-4.454,7.478-10.814,13.535-18.3,17.92
		C301.416,265.492,288.147,267.343,275.729,265.492"/>
	<path style="fill:#D91A22;" d="M143.123,265.513c-10.398-1.864-20.754-8.837-23.387-19.59c-1.946-7.974-1.406-16.505,1.748-24.108
		c3.189-7.689,9.514-13.505,16.902-17.061c3.654-1.76,7.615-2.99,11.624-3.499c10.378-1.325,20.807-1.791,31.232-2.27
		c0.53-8.258-6.352-13.139-14.007-13.013c-7.21,0.116-14.217,1.363-21.1,3.607c-2.904,0.945-5.743,2.149-8.608,3.197
		c-1.735,0.634-3.844-0.263-4.574-1.963c-2.391-5.558-4.578-11.202-6.891-16.79c-0.79-1.907-1.065-4.263,0.699-5.626
		c0.988-0.76,2.317-1.277,3.448-1.804c9.825-4.578,20.237-7.534,30.998-8.716c12.807-1.402,26.149-0.108,37.885,5.381
		c7.504,3.512,13.743,9.333,17.333,16.793c1.864,3.88,3.168,8.203,3.228,12.488c0.306,22.334,0.056,44.81,0,67.162
		c-0.009,2.274-2.529,4.185-4.63,4.198c-9.756,0.069-19.521,0.039-29.276,0c-1.593-0.009-3.15-1.135-3.875-2.477
		c-0.928-1.709-0.648-4.271-0.648-6.187c-7.818,7.823-19.59,10.632-30.351,10.976C148.258,266.307,145.686,265.961,143.123,265.513
		 M166.372,239.895c4.026,0.371,8.69-0.487,11.599-3.469c1.545-1.588,3.18-4.121,3.253-6.434c0.134-3.999,0-8.004,0-12.008
		c-5.855-0.19-16.323,0.254-20.88,4.233c-2.697,2.356-4.034,5.458-3.741,9.07C157.004,236.223,161.768,239.485,166.372,239.895"/>
	<path style="fill:#D91A22;" d="M350.645,437.891c-0.703-0.182-1.83-0.937-2.019-1.666c-0.048-0.147-0.091-0.289-0.138-0.431
		c0.245-1.018,0.673-1.873,1.726-2.071c0.517-0.104,2.467,0.893,3.011,0.996c2.072,0.385,4.328-1.247,4.816-3.231
		c0.108-0.436,0.121-0.828,0.043-1.269c-1.993,0.785-4.056,1.238-6.149,0.867c-0.781-0.137-2.023-0.924-2.585-1.48
		c-2.2-2.183-2.217-6.174-0.241-8.452c1.251-1.447,3.608-1.994,5.411-2.262c3.405-0.505,6.17,2.05,7.56,4.846
		c1.005,2.032,1.065,4.712,0.565,6.891c-0.786,3.408-2.792,7.025-6.403,7.827C354.386,438.853,352.449,438.391,350.645,437.891
		 M353.657,427.639c1.359,0.431,3.392-0.021,4.086-1.316c0.376-0.7,0.401-0.946,0.139-1.722c-0.493-1.45-2.439-2.097-3.793-1.454
		c-0.669,0.315-2.025,1.475-1.938,2.312C352.242,426.353,352.712,427.354,353.657,427.639"/>
	<path style="fill:#D91A22;" d="M214.591,438.456c-0.639-0.134-1.165-0.764-1.157-1.372c0.052-5.394-0.181-11.008,0.082-16.358
		c0.035-0.73,0.143-0.691,0.648-1.13c0.116-0.109,1.148-0.368,1.29-0.38c0.759-0.087,1.096,0.112,1.721,0.431
		c0.298,0.543,0.505,0.816,0.54,1.506c0.276,5.203,0.03,10.295,0.216,15.503c0.03,0.885-0.389,1.463-1.187,1.8
		C216.002,438.732,215.329,438.615,214.591,438.456"/>
	<path style="fill:#D91A22;" d="M235.687,437.516c-2.287-2.797-4.565-6.835-6.33-10.011l-0.66,0.289
		c-0.031,2.123,0.604,8.16-0.164,9.722c-0.285,0.573-0.863,0.823-1.454,0.862c-0.794,0.048-2.132-0.133-2.585-0.862
		c-0.108-0.173-0.216-0.647-0.216-0.859c0.031-5.174,0.091-10.33-0.108-15.503c-0.025-0.708,0.255-1.231,0.755-1.588
		c0.389-0.277,1.256-0.355,1.722-0.324c1.269,0.078,1.308,0.108,2.425,0.621c1.441,3.266,4.492,7.348,6.55,10.36
		c0.164-0.143,0.333-0.289,0.496-0.432c0.039-0.15,0.104-0.301,0.108-0.457c0.044-2.856-0.03-5.773-0.108-8.608
		c-0.021-0.678,0.66-1.308,1.295-1.454c0.85-0.203,1.614-0.25,2.395,0.16c0.263,0.138,0.599,0.591,0.591,0.862
		c-0.22,5.424-0.013,11.345,0.026,16.79c0.004,0.5-0.484,0.958-0.859,1.187C238.418,438.952,236.468,438.413,235.687,437.516"/>
	<path style="fill:#D91A22;" d="M312.324,437.998c-0.893-0.223-2.158-0.841-2.447-1.773c-0.263-0.832,0.384-1.942,1.157-2.291
		c0.474-0.211,0.587-0.32,1.139-0.307c1.605,0.988,2.063,1.395,4.026,0.928c2.08-0.491,2.99-2.304,3.538-4.202
		c-0.32,0.039-0.648,0.021-0.953,0.112c-1.869,0.561-4.134,1.182-6.029,0.432c-1.721-0.687-3.059-1.912-3.525-3.716
		c-0.686-2.641,0.125-5.786,2.667-7.107c3.055-1.584,6.899-1.743,9.471,0.807c3.564,3.543,3.473,8.954,1.29,13.192
		C320.216,438.806,316.971,439.138,312.324,437.998 M314.477,427.427c1.415,0.613,3.18,0.479,4.28-0.716
		c0.341-0.371,0.669-1.165,0.535-1.679c-0.401-1.566-1.885-2.446-3.52-2.019c-1.152,0.298-2.538,1.575-2.235,2.878
		C313.665,426.456,313.908,427.151,314.477,427.427"/>
	<path style="fill:#D91A22;" d="M268.843,438.702c-0.725,0.004-0.889-0.307-1.308-0.838c0.246-5.656,0.294-11.499,0.229-17.139
		c-0.008-0.669,0.294-0.867,0.76-1.263c3.668-0.057,7.439,0.15,11.081-0.139c0.582-0.047,1.345,0.414,1.557,0.971
		c0.367,0.941,0.156,1.787-0.212,2.649c-0.133,0.32-0.599,0.587-0.914,0.605c-2.231,0.121-4.656,0.091-6.891,0.082
		c-0.423,0-0.816,0.349-1.117,0.612c-0.082,0.665-0.25,1.973,0.297,2.481c0.216,0.199,0.531,0.277,0.82,0.247
		c1.536-0.164,3.27-0.368,4.738,0.159c1.074,0.384,1.126,1.26,1.13,2.205c0,0.63-0.418,1.092-0.867,1.475
		c-1.959,0.221-3.97,0.332-5.954,0.225c-0.095,0.906-0.186,1.752,0.068,2.645c0.255,0.238,0.527,0.475,0.885,0.47
		c2.533-0.009,4.824,0,7.322,0.272c0.289,0.03,0.557,0.276,0.674,0.51c0.254,0.526,0.241,1.57,0.159,2.153
		c-0.095,0.66-0.5,1.01-1.01,1.376C276.563,438.443,272.558,438.594,268.843,438.702"/>
	<path style="fill:#D91A22;" d="M334.715,438.487c-3.099-0.505-5.61-3.004-6.029-6.136c-0.63-4.674-0.362-9.273,3.875-12.221
		c0.975-0.676,1.817-1.19,3.012-1.238c2.339-0.09,6.407-0.021,7.106,2.692c0.156,0.618-0.478,1.822-1.078,2.046
		c-0.138,0.052-0.281,0.108-0.427,0.108c-0.725,0-2.3-0.647-3.016-0.751c-0.924-0.138-2.192,0.108-3.012,0.54
		c-1.234,0.642-1.782,1.907-2.235,3.149l0.573,0.535c2.628-1.523,5.7-1.42,8.117,0.562c2.326,1.898,2.606,5.074,1.157,7.59
		C341.213,438.055,337.614,438.935,334.715,438.487 M335.573,434.392c0.384,0.052,1.372-0.044,1.726-0.212
		c0.673-0.35,1.372-1.031,1.475-1.829c0.078-0.583-0.077-1.269-0.457-1.722c-0.548-0.647-1.42-1.165-2.312-1.079
		c-1.088,0.108-2.999,1.079-2.878,2.369C333.247,433.221,334.244,434.236,335.573,434.392"/>
	<path style="fill:#D91A22;" d="M254.202,438.486c-4.423-0.617-7.508-3.896-8.181-8.289c-0.203-1.308-0.086-3.042,0.267-4.307
		c0.626-2.209,2.87-4.915,4.902-5.975c0.626-0.328,3.608-1.127,4.302-1.127c1.7,0,3.711,0.501,5.17,1.393
		c0.914,0.566,0.75,1.485,0.323,2.266c-0.285,0.51-0.975,1.411-1.618,1.398c-0.897-0.013-2.136-0.306-3.012-0.54
		c-2.412-0.63-4.246,1.153-5.329,3.017c-0.902,1.545-0.695,3.611,0,5.165c0.402,0.897,1.424,1.933,2.313,2.317
		c2.114,0.898,4.544,0.242,6.46-0.811c0.176-0.1,0.392-0.109,0.59-0.147c0.739,0.324,1.528,0.703,1.995,1.411
		c0.526,0.798,0.448,1.769-0.432,2.343C259.635,438.11,256.973,438.882,254.202,438.486"/>
	<path style="fill:#D91A22;" d="M199.955,438.806c-0.596-0.014-2.788-0.358-3.443-0.592c-1.217-0.435-2.287-1.108-3.181-1.989
		c-0.53-0.526,0.298-1.734,0.622-2.152c0.393-0.51,0.694-0.717,1.264-0.915c1.363,0.53,2.857,1.152,4.306,1.531
		c0.971,0.26,2.171-0.104,2.974-0.643c0.31-0.211,0.383-0.5,0.47-0.837c-0.307-0.686-0.199-0.799-0.859-1.156
		c-2.218-1.195-4.695-1.994-6.891-3.306c-0.638-0.383-1.338-1.738-1.532-2.424c-0.958-3.405,1.118-5.726,4.117-7.025
		c1.359-0.592,4.595-0.237,6.028,0.19c1.234,0.362,2.304,0.884,2.774,2.096c0.35,0.907-0.846,2.034-1.484,2.421
		c-0.298,0.186-0.544,0.273-0.859,0.164c-1.346-0.462-2.451-0.967-3.875-1.29c-0.962-0.219-2.093,0.734-2.377,1.563
		c0.319,0.771,0.302,1.013,1.083,1.419c1.89,0.984,4.544,1.726,6.459,2.718c1.433,0.743,2.201,3.155,2.154,4.63
		c-0.091,2.607-2.486,4.505-4.738,5.247C201.931,438.776,201.064,438.87,199.955,438.806"/>
	<path style="fill:#7F252C;" d="M456.128,129.895c-117.397,0-234.793,0.044-352.185,0c-1.968-0.004-3.525-1.708-3.34-3.659
		c0.147-1.532,1.407-2.904,2.908-2.908c39.789-0.194,79.581,0,119.373,0c0.168-3.923,0.708-7.966,1.61-11.732
		c2.601-10.831,7.93-20.881,15.93-28.686c4-3.905,8.708-6.999,13.744-9.394c1.527-4.461,6.153-7.301,10.799-7.128
		c1.67,0.065,3.336,0.509,4.825,1.282c2.99-3.249,6.722-5.493,11.102-6.231c5.743-0.971,11.655,0.776,15.931,4.703
		c1.049,0.967,1.937,2.11,2.757,3.275c5.334-2.558,10.99-1.087,14.464,3.642c1.126,1.532,1.712,3.607,1.726,5.493
		c1.937,0,3.736-0.035,5.596,0.617c4.695,1.652,7.616,6.434,6.995,11.331c-0.035,0.289-0.091,0.578-0.16,0.859
		c-0.216,0.133-0.445,0.28-0.648,0.431c-0.319,0.237-0.077,0.652,0.268,0.458c0.432-0.246,1.769,0.189,2.153,0.431
		c2.357,1.484,4.065,3.323,4.928,6.002c0.311,0.975,0.44,2.416,0.324,3.443c-0.026,0.19-0.255,0.285-0.38,0.432l0.332,0.483
		l-0.919,2.736c1.886,5.678,3.042,11.585,3.284,17.553c39.667,0,79.342-0.043,119.01,0c1.467,0,2.83,1.514,2.909,2.908
		c0.086,1.588-0.808,3.189-2.478,3.525C456.805,129.796,456.313,129.891,456.128,129.895 M332.237,101.693
		c0.108,0.151,0.216,0.302,0.324,0.457c0.086-0.449,0.63-1.26,1.049-1.462l-0.712-1.256
		C332.82,99.764,332.393,101.3,332.237,101.693"/>
	<path style="fill:#7F252C;" d="M71.223,302.54c-7.9,0.03-15.788,0.143-23.68,0c-1.955-0.035-3.728-1.761-3.767-3.659
		c-0.125-5.735-0.043-11.487,0-17.221c0.009-1.722,1.622-3.634,3.335-3.659c8.173-0.134,16.367-0.082,24.544,0
		c1.734,0.017,3.365,2.084,3.417,3.659c0.168,5.588,0.056,11.201,0.026,16.789C75.085,300.59,73.325,302.505,71.223,302.54"/>
	<path style="fill:#7F252C;" d="M35.918,431.759c-1.07-0.177-2.252-0.949-2.692-1.993c-1.528-3.611-1.99-14.494-2.37-18.943
		c-0.137-1.609,0.406-3.689,1.645-4.699c2.55-2.084,5.652-3.754,8.418-5.636c2.369-1.604,2.839-5.194,2.856-7.749
		c0.134-25.829-0.017-51.667,0-77.496c0-2.131,1.929-3.594,3.768-3.659c7.762-0.28,15.874-0.021,23.68,0
		c1.074,0,2.313,0.673,2.934,1.506c0.535,0.721,0.941,1.666,0.941,2.585c0,25.972,0.198,51.956-0.108,77.928
		c-0.073,6.303-0.557,12.814-2.154,18.942c-2.019,7.749-6.929,13.64-14.96,15.555c-5.419,1.286-10.903,2.33-16.361,3.413
		C39.612,431.88,37.834,432.048,35.918,431.759"/>
	<path style="fill:#7F252C;" d="M379.06,341.991c-0.898-0.069-2.162-0.889-2.369-1.777c-0.1-0.437-0.134-1.278-0.027-1.722
		c1.265-5.277,2.434-10.576,3.824-15.827c-2.771,0.03-5.562,0.095-8.315-0.078c-1.17-0.074-2.403-1.558-2.667-2.611
		c-0.13-0.492-0.134-0.353-0.134-0.858c0-6.175-0.064-12.346,0-18.516c0.018-1.639,1.312-3.102,2.801-3.227
		c6.045-0.514,13.212-0.311,19.374-0.082c1.467,0.055,3.037,1.471,3.094,2.878c0.207,5.027,0.858,15.706-0.324,20.237
		c-1.579,6.058-4.138,12.487-6.106,18.515c-0.551,1.678-1.07,2.581-2.692,3.038C383.362,342.375,381.221,342.173,379.06,341.991"/>
	<path style="fill:#7F252C;" d="M422.545,397.796c-6.524-0.332-13.476-1.312-19.374-4.357c-1.523-0.787-2.658-1.968-2.692-3.711
		c-0.095-4.462,0.56-8.997,1.454-13.351c0.539-2.658,2.89-4.319,5.545-3.736c3.456,0.755,6.799,1.786,10.33,2.204
		c2.549,0.303,5.169,0.328,7.749,0.242c2.52-0.087,5.959-0.867,7.051-3.443c1.009-2.387-1.373-4.259-3.176-5.355
		c-4.859-2.947-10.4-4.492-15.499-6.917c-5.351-2.542-9.817-7.284-12.113-12.699c-2.511-5.925-2.783-12.789-1.152-18.947
		c2.421-9.16,10.521-14.606,19.292-16.789c10.356-2.58,21.527-1.722,31.862,0.565c2.477,0.548,4.996,1.359,6.244,3.741
		c0.233,0.44,0.539,1.649,0.535,2.154c-0.031,4.171-0.769,8.353-1.342,12.482c-0.406,2.908-2.779,4-5.437,3.525
		c-2.879-0.513-5.721-1.173-8.613-1.561c-3.171-0.423-7.961-0.687-10.762,0.971c-1.889,1.117-2.519,3.288-1.751,5.247
		c0.268,0.676,1.157,1.639,1.751,2.041c5.019,3.395,11.021,5.16,16.359,7.969c7.426,3.901,13.497,11.198,14.425,19.698
		c0.781,7.179-1.489,16.742-6.702,21.928C448.219,397.969,433.621,398.306,422.545,397.796"/>
	<path style="fill:#7F252C;" d="M265.395,395.967c-8.035,0-16.073,0.039-24.108,0c-2.149-0.009-3.629-1.748-3.659-3.659
		c-0.285-15.724,0.013-31.615,0-47.357c-0.008-4.198-2.412-7.948-6.244-9.634c-5.13-2.262-11.391-1.032-14.614,3.606
		c-1.019,1.463-1.627,3.409-1.64,5.165c-0.108,15.927,0.117,31.862,0,47.788c-0.013,2.166-1.463,4.013-3.551,4.091
		c-7.896,0.298-16.172-0.082-24.112,0c-2.067,0.021-3.642-1.804-3.659-3.659c-0.272-34.559-0.039-69.195,0-103.761
		c0-1.976,1.743-3.737,3.659-3.768c7.887-0.133,15.788,0.048,23.68,0c2.378-0.012,3.966,1.986,3.983,4.199
		c0.082,9.186,0,18.378,0,27.564c5.208-4.285,12.146-6.667,18.835-7.09c9.277-0.582,18.295,1.226,25.648,7.081
		c6.066,4.837,9.126,13.13,9.229,20.664c0.25,18.473,0.078,37.057,0,55.542c-0.009,1.355-1.514,2.541-2.585,3.042
		C266.132,395.837,265.533,395.967,265.395,395.967"/>
	<path style="fill:#7F252C;" d="M454.406,432.674c-25.98,0-51.956-0.009-77.932,0c-0.759,0-1.527-0.35-2.097-0.794
		c-1.48-1.161-1.428-3.357-0.324-4.699c0.605-0.737,1.515-1.07,2.421-1.074c26.122-0.07,52.241-0.048,78.36,0
		c1.743,0.004,2.864,1.673,3.015,3.227c0.121,1.23-1.009,2.736-2.153,3.099C455.273,432.562,454.855,432.674,454.406,432.674"/>
	<path style="fill:#7F252C;" d="M469.474,334.185c-3.159-0.151-6.028-2.49-6.675-5.596c-0.626-3.016,0.444-5.717,2.8-7.616
		c2.361-1.903,5.717-1.639,8.181-0.246c3.345,1.894,4.048,6.356,2.528,9.583C475.152,332.761,472.149,334.319,469.474,334.185
		 M468.611,332.947c1.652,0.255,3.379,0.018,4.737-0.997c2.404-1.799,3.556-5.406,1.83-8.099c-1.42-2.214-3.879-3.612-6.567-3.011
		c-3.099,0.69-5.251,3.71-4.842,6.885C464.076,330.121,466.13,332.593,468.611,332.947"/>
	<path style="fill:#7F252C;" d="M361.406,395.967c-8.034,0-16.072,0.043-24.107,0c-2.115-0.009-3.629-1.761-3.664-3.659
		c-0.262-15.875,0.013-31.901,0-47.788c-0.003-5.471-4.793-9.877-10.114-10.227c-5.648-0.371-10.3,2.08-12.004,7.643
		c-0.155,0.509-0.376,1.618-0.376,2.152c-0.038,16.073,0.053,32.147,0,48.22c-0.007,1.946-1.743,3.616-3.55,3.659
		c-8.026,0.194-16.086,0.082-24.112,0c-2.05-0.018-3.642-1.786-3.659-3.659c-0.268-25.51,0.034-51.114,0-76.633
		c-0.005-2.296,1.838-4.082,4.09-4.091c8.03-0.043,16.095-0.255,24.108,0.104c1.109,0.048,2.252,1.359,2.748,2.26
		c0.587,1.071,0.375,4.122,0.375,5.403c4.566-5.574,13.153-8.78,20.13-9.704c4.086-0.544,8.436-0.277,12.483,0.426
		c7.145,1.252,13.048,4.484,16.902,10.767c2.826,4.612,4.064,10.191,4.193,15.499c0.462,18.563,0.221,37.376,0.113,55.969
		c-0.013,1.661-1.303,2.883-2.693,3.499C362.007,395.915,361.687,395.967,361.406,395.967"/>
	<path style="fill:#7F252C;" d="M180.149,432.674c-25.976,0-51.952,0.22-77.928,0c-1.121-0.013-1.808-0.466-2.558-1.226
		c-0.656-0.664-0.743-1.678-0.669-2.541c0.129-1.666,1.678-2.796,3.227-2.8c26.118-0.061,52.237-0.031,78.36,0
		c1.488,0,2.701,1.445,2.903,2.8c0.221,1.441-0.643,3.051-2.045,3.526C181.115,432.536,180.49,432.674,180.149,432.674"/>
	<path style="fill:#7F252C;" d="M125.902,397.796c-11.378-0.897-22.541-6.105-30.304-14.528
		c-7.913-8.587-12.292-19.736-11.891-31.43c0.397-11.593,5.877-22.264,14.183-30.166c6.477-6.161,15.322-10.334,24.138-11.706
		c15.55-2.429,30.36,2.675,41.302,13.911c7.97,8.186,12.207,19.624,11.974,30.973c-0.185,9.113-3.702,18.282-9.337,25.402
		c-7.526,9.51-18.568,15.883-30.593,17.307C132.047,397.913,129.281,398.047,125.902,397.796 M124.181,370.724
		c3.823,1.329,8.366,1.212,12.051-0.535c4.156-1.977,7.694-5.32,9.312-9.739c2.589-7.077,1.342-15.245-4.574-20.397
		c-5.342-4.651-13.035-6.05-19.374-2.476c-6.093,3.434-9.773,10.273-9.255,17.272C112.863,361.944,117.368,368.326,124.181,370.724"
		/>
	<path style="fill:#D91A22;" d="M275.897,71.367c-0.612-0.565-1.264-1.083-1.945-1.562c1.212-1.152,2.878-2.477,4.362-3.124
		c1.225-0.539,3.331-1.091,4.733-1.221c2.391-0.22,4.043,0.626,6.028,0.854c0.949,0.108,1.76,0.742,2.585,1.226
		c1.247,0.742,2.347,1.842,3.336,2.904c-3.474-0.337-6.15-0.898-9.795-0.828c-1.986,0.034-6.745,0.811-8.609,1.466
		C276.368,71.16,276.113,71.277,275.897,71.367"/>
	<path style="fill:#D91A22;" d="M301.994,72.433c-0.224-0.056-0.12-0.242,0.108-0.289c1.523-0.332,2.115-0.393,3.767-0.362
		c0.733,0.008,1.472,0.207,2.149,0.496c1.2,0.509,2.3,1.622,2.973,2.722c0.181,0.294,0.846,2.05,0.906,2.378
		C309.101,75.98,305.312,73.236,301.994,72.433"/>
	<path style="fill:#ABAB25;" d="M234.396,122.818c-3.271-0.841-5.7-4.125-6.127-7.348c-0.651-4.884,3.348-8.906,7.905-9.635
		c-0.535-1.627-0.876-3.301-0.802-5.001c0.073-1.843,0.854-4.44,1.795-6.028c0.729-1.238,2.52-3.206,3.688-4.147
		c1.709-1.381,4.035-2.339,6.206-2.649c-0.501-4.574,2.041-8.889,6.709-9.946c1.26-0.289,2.516-0.35,3.775-0.095
		c1.688-3.232,5.076-5.148,8.712-4.902c0.876,0.056,1.929,0.315,2.732,0.669c-11.378,5.575-19.171,14.127-24.738,25.372
		c-2.412,4.867-4.073,10.166-5.018,15.499c-0.5,2.831-0.794,5.873-1.139,8.694C236.912,123.405,235.535,123.125,234.396,122.818"/>
	<path style="fill:#F7C325;" d="M330.839,123.285c-26.101,0-52.271,0.022-78.359,0.147c-2.658,0.013-5.488-0.199-8.254-0.138
		c0.612-9.959,3.495-19.655,8.962-28.06c4.414-6.783,10.627-12.311,17.803-16.065c0.19-0.103,0.289-0.323,0.431-0.483
		c3.5-1.001,6.594-2.429,10.335-3.016c8.682-1.355,16.798,0.177,24.539,4.25c10.144,5.329,17.954,15.391,21.778,26.079
		c2.01,5.631,3.085,11.344,3.503,17.286H330.839z M277.451,87.544c0.142-0.017,0.289,0.009,0.431,0.014
		c0.664-0.009,1.169-0.769,1.264-1.364c0.1-0.635,0.057-1.269-0.35-1.791c-0.517-0.66-1.483-0.91-2.161-0.336
		c-0.414,0.353-0.885,1.113-0.811,1.696C275.923,86.535,276.415,87.704,277.451,87.544 M316.199,96.859
		c0.155-0.047,0.298-0.129,0.431-0.219c0.85-0.575,1.187-1.735,0.703-2.698c-0.31-0.612-1.316-1.29-1.993-0.82
		c-1.104,0.769-1.355,1.239-1.036,2.542C314.486,96.411,315.439,97.058,316.199,96.859 M314.477,109.071
		c0.143-0.026,0.289-0.026,0.432-0.07c0.669-0.219,1.216-1.009,1.263-1.713c0.066-0.979-0.18-2.148-1.263-2.532
		c-0.535-0.186-1.636-0.156-1.99,0.38c-0.517,0.785-0.879,1.605-0.544,2.584C312.682,108.609,313.463,109.273,314.477,109.071
		 M299.41,108.419c0.573,0.22,1.306,0.212,1.759-0.229c0.846-0.824,0.562-1.216,0.527-2.192c-0.031-0.751-1.114-1.186-1.704-1.29
		c-0.626,0.182-1.321,0.574-1.45,1.29C298.404,106.792,298.464,108.075,299.41,108.419 M252.048,118.002
		c0.458,0.225,1.26,0.285,1.722-0.047c0.829-0.6,1.226-1.445,1.074-2.485c-0.068-0.492-0.612-1.412-1.074-1.627
		c-1.065-0.496-1.868-0.229-2.567,0.764C250.409,115.738,250.888,117.312,252.048,118.002 M261.952,112.294
		c0.15-0.078,0.297-0.164,0.431-0.268c0.186-0.164,0.336-0.651,0.461-0.863c0.341-0.565,0-1.505-0.232-2.049
		c-0.587-0.539-1.791-0.825-2.369-0.086c-0.493,0.625-0.828,1.829-0.345,2.567C260.329,112.26,261.166,112.7,261.952,112.294
		 M306.727,116.799c0.143-0.009,0.289-0.013,0.432-0.031c0.677-0.107,1.264-0.53,1.605-1.126c0.1-0.854,0.311-2.006-0.362-2.688
		c-0.376-0.379-1.101-0.846-1.675-0.712c-1.203,0.276-1.799,1.144-1.79,2.365C304.937,115.484,305.744,116.855,306.727,116.799
		 M320.936,116.6c1.187,0.371,2.464-0.401,2.961-1.562c0.582-1.363,0.163-3.322-1.239-4.013c-0.375-0.185-1.316-0.414-1.722-0.254
		c-0.841,0.332-1.402,0.772-1.726,1.687C318.606,114.145,319.202,115.975,320.936,116.6"/>
	<path style="fill:#7F252C;" d="M471.623,330.868c0.107-0.768,0.018-1.532-0.16-2.279c-0.366-1.005-2.261-0.928-3.068-0.936v3.124
		l-1.505,0.039v-7.87c1.38-0.221,2.917-0.104,4.306-0.009c0.78,0.052,1.165,0.358,1.613,0.915c0.277,0.341,0.411,1.299,0.324,1.722
		c-0.194,0.922-0.647,1.22-1.458,1.557c-0.316,0.129,0.587,0.354,0.811,0.609c0.695,0.785,0.561,2.148,0.531,3.102L471.623,330.868z
		 M468.413,326.639c1.233,0.125,2.227,0.021,3.235-0.742c0.109-0.746,0.009-1.631-0.883-1.856c-0.623-0.155-1.736-0.237-2.37-0.168
		C468.356,324.792,468.356,325.72,468.413,326.639"/>
</g>
</svg>
